/* XPM */
static char * brick_xpm[] = {
"64 64 88 1",
" 	c #A35C36",
".	c #A25B36",
"+	c #A35C37",
"@	c #A45C37",
"#	c #A25C36",
"$	c #322416",
"%	c #332416",
"&	c #A45D37",
"*	c #5D321C",
"=	c #63341D",
"-	c #FFFFFF",
";	c #FFA569",
">	c #EB8752",
",	c #2F2316",
"'	c #E88551",
")	c #FFA368",
"!	c #945331",
"~	c #806053",
"{	c #AA6039",
"]	c #58311C",
"^	c #B66B41",
"/	c #603017",
"(	c #9A5633",
"_	c #FFA86B",
":	c #6D4A3A",
"<	c #18160D",
"[	c #DD8F5B",
"}	c #1D1B10",
"|	c #F09961",
"1	c #EB9A73",
"2	c #532E1A",
"3	c #8B4D2D",
"4	c #CD7648",
"5	c #C26F42",
"6	c #000000",
"7	c #B3653D",
"8	c #3A3531",
"9	c #24190E",
"0	c #19150C",
"a	c #4F2915",
"b	c #59432C",
"c	c #473522",
"d	c #493520",
"e	c #5C4D3E",
"f	c #FFF9EE",
"g	c #140800",
"h	c #FFEDB6",
"i	c #FFE7AB",
"j	c #4D3210",
"k	c #D97C4B",
"l	c #E5E2E1",
"m	c #6C3A21",
"n	c #432A19",
"o	c #5F1900",
"p	c #D6CDCA",
"q	c #FFB278",
"r	c #EA935D",
"s	c #FFF7E6",
"t	c #804628",
"u	c #EB8049",
"v	c #4B230B",
"w	c #1D0B00",
"x	c #FFC18A",
"y	c #D58553",
"z	c #84431C",
"A	c #330000",
"B	c #6D2500",
"C	c #763100",
"D	c #CF713A",
"E	c #402C0C",
"F	c #572500",
"G	c #382E1F",
"H	c #D38C69",
"I	c #F0EFEE",
"J	c #6A310F",
"K	c #753C1E",
"L	c #252D2F",
"M	c #291A0D",
"N	c #4E463B",
"O	c #E48B53",
"P	c #E6AB78",
"Q	c #7F7356",
"R	c #F3E0AE",
"S	c #FFF7BE",
"T	c #3D0000",
"U	c #EEA97F",
"V	c #4B1900",
"W	c #530B00",
"I1)))))))))))))))))))))))))))x---I1)))))))))))))))))))))))))))xf",
"Q^yyyyyyyyyyyyyyyyyyyyyyyyyyy1xppQ7yyyyyyyyyyyyyyyyyyyyyyyyyyy1x",
":3++++++++@@+@@@@@@@@@@@@@@@@4',G=3@@@@@@@@@@&&@&&&&&&&&&&&&&&5r",
":3++++++++++@+@+@@@@@@@@@@@@@4'M$=3@@@@@@@@@@@@&@&@@&&&&&&&&&&5r",
":3+++++++++++++@+@@@@@@@@@@@@4'M$=3@@@@@@@@@@@@@@@&@&&@&@&@&&&5r",
":3+++++++++++++++++@+@+@@@@@@4'M$=3@@@@@@@@@@@@@@@@@@@&@&@&&&&5r",
":3++++++++++++++++++++@+@@@@@4'M$=3@@@@@@@@@@@@@@@@@@@@@@@@&&&5r",
":3+++++++++++++++++++++@+@@@@4'M$=3@@@@@@@@@@@@@@@@@@@@@@@@@@@5r",
":3++++++++++++++++++++++++@+@4'M$=3@@@@@@@@@@@@@@@@@@@@@@@@@@&5r",
":3+++++++++++++++++++++++++++4'M$=3@@@@@@@@@@@@@@@@@@@@@@@@@@@5r",
":3++++++++++++++++++++++++++@4'M$=3@@@@@@@@@@@@@@@@@@@@@@@@@@@5r",
":3+++++ +++++++++++++++++++++4'M$=3+@@@@@@@@@@@@@@@@@@@@@@@@@@5r",
":3+  +++ ++++++++++++++++++++4'M$=3++++++@@@@@@@@@@@@@@@@@@@@@5r",
":3 ++  ++ +++++++++++++++++++4'M$=3++++++++@@@@@@@@@@@@@@@@@@@5r",
":3         ++++ +  ++++++++++4'M$=3+++++++++++@@@@@@@@@@@@@@@@5r",
":3        +  ++ ++ + ++++++++4'M$=3++++++++++++@+@@@@+@@@@@@@@5r",
":3           +        +++++++4'M$=3+++++++++++++++++@@+@@@@@@@5r",
":3            + +  + + ++++ +4'M$=3+++++++++++++++++++@+@+@@@@5r",
"QK333333333333333333333333333 7,$2K333333333333333333333333333.H",
"IQ*]]]]]]]]]]]]]]]]]]]]]]]]]]=n$%%2]]]]]]]]]]]]]]]]]]]]]]]]]]*QI",
"-p,$$$$$$$$$$$$$$$$$$$$$$$$$$$%%%%$$$$$$$$$$$$$$$$$$$$$$$$$$$Gp-",
"-p}}9}9999999M%%%%,999999999999999}}9}99999}9M$$$$,}}9}9}}}}},p-",
"I1)))))))))))Ue%$n4))))))))))))))))))))))))))Ue$%ny)))))))))))x-",
"Q^yyyyyyyyyyy1P%,m7yyyyyyyyyyyyyyyyyyyyyyyyyyPP9%m^yyyyyyyyyyy1x",
":3           5'%,=3                +    + + +4'<%=3+ +++++++++5r",
":3           5'%,=3                          4'<%=3 ++++ + +++5r",
":3           5'%,=3                          4'<%=3   + + + ++5r",
":3           5'%,=3                          4'<%=3   +  +  + 5r",
":3           5'%,=3                          4'<%=3       +   5r",
":3#          5'%,=3                          4'<%=3           5r",
":3## # #     5'%,=3                          4'<%=3           5r",
":3### # #    5'%,=3                          4'<%=3           5r",
":3###### # # 5'%,=3                          4'<%=3           5r",
":3########## 5'%,=3                          4'<%=3           5r",
":3###########5'%,=3                          4'<%=3           5r",
":3###########5'%,=3## #                      4'<%=3           5r",
":3###########5'%,=3 #                        4'<%=3           5r",
":3###########5'%,=3### ##                    4'<%=3           5r",
":3###########5'%,=3#### ## #                 4'<%=3           5r",
":3.####.#####5'%,=3########## #              4'<%=3           5r",
"QK33333333333 7%,]K33333333333333333333333333@79%]K33333333333.H",
"IQ***********=n$$%2**************************=%$%%2***********QI",
"-p,$,,,,,$$$$$$$$$$,,,$$$$,$$,$$$$$$$$$$$$$$$$%$$$$$$$$$$$$$$Gp-",
"-p}99999999999999999999999999,$$$$,99999999999999999999999999,p-",
"IP)))))))))))))))))))))))))))Ue$$n4)))))))))))))))))))))))))))x-",
"Q^yyyyyyyyyyyyyyyyyyyyyyyyyyy1P,$m^yyyyyyyyyyyyyyyyyyyyyyyyyyyPx",
":3....................#.####.4'M$=3############# #            5r",
":3.................#.....##.#4'M$=3################### # #    5r",
":3......................#...#4'M$=3###################### #   5r",
":3...........................4'M$=3######.####################5r",
":3...........................4'M$=3####.#.################### 5r",
":3...........................4'M$=3........#.#################5r",
":3...........................4'M$=3#......#.#.####.###########5r",
":3...........................4'M$=3........#..#.#.############5r",
":3...........................4'M$=3..............#...####.#.##5r",
":3...........................4'M$=3...................#..#####5r",
":3...........................4'M$=3.......................#.#.5r",
":3...........................4'M$=3........................#.#5r",
":3...........................4'M$=3...........................5r",
":3...........................4'M$=3..........................#5r",
":3...........................4'M$=3...........................5r",
":3...........................4'9,=3...........................5r",
"Qt333333333333333333333333333&HppQK333333333333333333333333333@H",
"I~mmmmmmmmmmmmmmmmmmmmmmmmmmmQI--IQmmmmmmmmmmmmmmmmmmmmmmmmmmm~I"};
