/* XPM */
static char * floor_xpm[] = {
"64 64 43 1",
" 	c None",
".	c #21181B",
"+	c #3B2027",
"@	c #7D3833",
"#	c #AB5130",
"$	c #CF752B",
"%	c #F0B541",
"&	c #FFEE83",
"*	c #C8D45D",
"=	c #63AB3F",
"-	c #3B7D4F",
";	c #2F5753",
">	c #283540",
",	c #1B1F21",
"'	c #2B2B45",
")	c #3A3F5E",
"!	c #4C6885",
"~	c #4FA4B8",
"{	c #92E8C0",
"]	c #F5FFE8",
"^	c #DFE0E8",
"/	c #A3A7C2",
"(	c #686F99",
"_	c #404973",
":	c #2C354D",
"<	c #14182E",
"[	c #4B1D52",
"}	c #692464",
"|	c #9C2A70",
"1	c #CC2F7B",
"2	c #FF5277",
"3	c #FFC2A1",
"4	c #FF8933",
"5	c #E64539",
"6	c #AD2F45",
"7	c #781D4F",
"8	c #4F1D4C",
"9	c #291D2B",
"0	c #3D2936",
"a	c #52333F",
"b	c #8F4D57",
"c	c #BD6A62",
"d	c #FFAE70",
"====----========================================================",
"====----========================================================",
"====----========================================================",
"====----========================================================",
"============================================----================",
"============================================----================",
"============================================----================",
"============================================----================",
"============----================================================",
"============----================================================",
"============----================================================",
"============----================================================",
"================----====----====================================",
"================----====----====================================",
"================----====----====================================",
"================----====----====================================",
"====----====----;;;;----========================================",
"====----====----;;;;----========================================",
"====----====----;;;;----========================================",
"====----====----;;;;----========================================",
"========----;;;;;;;;;;;;--------================================",
"========----;;;;;;;;;;;;--------================================",
"========----;;;;;;;;;;;;--------================================",
"========----;;;;;;;;;;;;--------================================",
"================================================================",
"================================================================",
"================================================================",
"================================================================",
"========================================================----====",
"========================================================----====",
"========================================================----====",
"========================================================----====",
"================================================================",
"================================================================",
"================================================================",
"================================================================",
"====================----========================================",
"====================----========================================",
"====================----========================================",
"====================----========================================",
"----============================================================",
"----============================================================",
"----============================================================",
"----============================================================",
"========================================----========----====----",
"========================================----========----====----",
"========================================----========----====----",
"========================================----========----====----",
"----====----============================================----;;;;",
"----====----============================================----;;;;",
"----====----============================================----;;;;",
"----====----============================================----;;;;",
";;;;----========================================--------;;;;;;;;",
";;;;----========================================--------;;;;;;;;",
";;;;----========================================--------;;;;;;;;",
";;;;----========================================--------;;;;;;;;",
"========================----====================================",
"========================----====================================",
"========================----====================================",
"========================----====================================",
"================================================================",
"================================================================",
"================================================================",
"================================================================"};
