/* XPM */
static char * pcollect03_xpm[] = {
"64 64 158 2",
"  	c #65A847",
". 	c #64A647",
"+ 	c #407B52",
"@ 	c #417D51",
"# 	c #64A747",
"$ 	c #488450",
"% 	c #498550",
"& 	c #65A747",
"* 	c #60A149",
"= 	c #5FA149",
"- 	c #448051",
"; 	c #61A448",
"> 	c #60A249",
", 	c #4A8650",
"' 	c #468251",
") 	c #62A448",
"! 	c #417C52",
"~ 	c #64A648",
"{ 	c #417D52",
"] 	c #468250",
"^ 	c #458151",
"/ 	c #61A348",
"( 	c #4E8439",
"_ 	c #3A6228",
": 	c #3A6227",
"< 	c #508538",
"[ 	c #427D52",
"} 	c #2C5636",
"| 	c #000000",
"1 	c #010000",
"2 	c #020000",
"3 	c #42702E",
"4 	c #2C5635",
"5 	c #417A52",
"6 	c #3F7852",
"7 	c #2E5935",
"8 	c #B48800",
"9 	c #D7A300",
"0 	c #D6A400",
"a 	c #775B00",
"b 	c #427D51",
"c 	c #407A52",
"d 	c #355954",
"e 	c #345754",
"f 	c #41702F",
"g 	c #CB9A00",
"h 	c #F3B900",
"i 	c #F2B900",
"j 	c #876800",
"k 	c #42702F",
"l 	c #437E51",
"m 	c #447F51",
"n 	c #62A548",
"o 	c #63A548",
"p 	c #3F7952",
"q 	c #345854",
"r 	c #406E30",
"s 	c #CC9A00",
"t 	c #886800",
"u 	c #63A648",
"v 	c #295136",
"w 	c #CC9B00",
"x 	c #F4B900",
"y 	c #F4B800",
"z 	c #886700",
"A 	c #295137",
"B 	c #F5B900",
"C 	c #F5B800",
"D 	c #CCC1B1",
"E 	c #F3E6D4",
"F 	c #F3E7D4",
"G 	c #F6E8D4",
"H 	c #F6E7D4",
"I 	c #F6EAD1",
"J 	c #F6E9CB",
"K 	c #8A826B",
"L 	c #64A748",
"M 	c #427E52",
"N 	c #365C53",
"O 	c #365A53",
"P 	c #365A54",
"Q 	c #2A5236",
"R 	c #CFD0D1",
"S 	c #F7F9FA",
"T 	c #8B8C8D",
"U 	c #43722F",
"V 	c #CFD1D1",
"W 	c #F8FAFA",
"X 	c #F8F9FA",
"Y 	c #8C8D8D",
"Z 	c #44732F",
"` 	c #D0D1D1",
" .	c #F9FAFA",
"..	c #F8F9F9",
"+.	c #D0D1D0",
"@.	c #8C8C8D",
"#.	c #CFD0D0",
"$.	c #8C8C8C",
"%.	c #F7F9F9",
"&.	c #F8F8F9",
"*.	c #8C8B8C",
"=.	c #478350",
"-.	c #CEC9BC",
";.	c #F6F1E2",
">.	c #F5F1E2",
",.	c #F6F1E1",
"'.	c #F6F0DD",
").	c #8A867B",
"!.	c #846800",
"~.	c #F4BA00",
"{.	c #F3BA00",
"].	c #CB9B00",
"^.	c #F2BA00",
"/.	c #CA9B00",
"(.	c #F1B900",
"_.	c #CA9A00",
":.	c #876700",
"<.	c #458051",
"[.	c #876600",
"}.	c #B57E00",
"|.	c #D99700",
"1.	c #D89800",
"2.	c #785300",
"3.	c #AC7200",
"4.	c #CE8900",
"5.	c #CE8800",
"6.	c #CD8800",
"7.	c #CD8909",
"8.	c #714B00",
"9.	c #000001",
"0.	c #AC7201",
"a.	c #CD8900",
"b.	c #CD890E",
"c.	c #CD890C",
"d.	c #498650",
"e.	c #4B884F",
"f.	c #61A349",
"g.	c #CD8902",
"h.	c #488550",
"i.	c #623F00",
"j.	c #764D00",
"k.	c #3E2800",
"l.	c #396553",
"m.	c #365E54",
"n.	c #375F54",
"o.	c #376153",
"p.	c #5E9F49",
"q.	c #5EA049",
"r.	c #5FA049",
"s.	c #60A043",
"t.	c #5C9A41",
"u.	c #4C8A4F",
"v.	c #365D54",
"w.	c #5C994A",
"x.	c #5E9F4A",
"y.	c #4A8750",
"z.	c #5C9A4A",
"A.	c #5D9E4A",
"      . + + + @ #                                                                                                               ",
"      . + + + @ #                                                                                                               ",
"      . + + + @ #                                                                                                               ",
"      # $ $ $ % &                                                                       * = = = #                               ",
"                                                                                        - + + + ;                               ",
"                                                                                        - + + + ;                               ",
"                                                                                        - + + + ;                               ",
"                        > > > >                                                         , ' ' ' )                               ",
"                      # ! + + ! ~                                                                                               ",
"                      # { + + ! ~                                                                                               ",
"                      # { + + ! ~                                                                                               ",
"                      # ] ^ ^ ' > / / /         ( _ : : : : : : : : : : : : <                                                   ",
"                              # [ + + + .       } | | | | 1 1 1 2 2 2 2 2 2 3                                                   ",
"                              # [ + + + .       4 | | | | | | 1 1 1 1 1 1 1 3                                                   ",
"                              # [ + + + .       4 | | | | | | | | | | | | | 3                                                   ",
"        ) ) ) )         ) ) ) / 5 6 6 6 > ) ) ) 7 | | | 8 9 9 9 9 9 0 a | | 3                                                   ",
"      . + + + b #     # [ + + c d e e e c + + + f | | | g h h h h h i j | | 3                                                   ",
"      . + + + @ #     # { + + c d e e e c + + + k | | | g h h h h i i j | | 3                                                   ",
"      . + + + @ #     # { + + c d e e e c + + + k | | | g h h h h h i j | | 3                                                   ",
"      . l l l m n o o ) 5 p p 6 q e e e 6 p p p r | | | s h h h h h h t | | 3                                                   ",
"        # # # u { ! ! + d q q q e e e e q q q q v | | | w x x y y x h z | | 3                                                   ",
"              ~ ! + + c q e e e e e e e e e e e A | | | w B B y C C x z | | 3                                                   ",
"              ~ ! + + c q e e e e e e e e e e e A | | | D E F G H I J K | | 3                                                   ",
"              L M { { ! N O O O O O O O O O O P Q | | | R S S S S S S T | | 3                                                   ",
"                # # # # # # # # # # # # # # # # U | | | V W X X X W W Y | | 3                                                   ",
"                                                Z | | | `  .......W W Y | | 3                                                   ",
"                                                Z | | | +...........W @.| | 3                                                   ",
"                                                Z | | | #.............$.| | 3                                   # # # #         ",
"                                                Z | | | #.%.%.%.%.%.&.*.| | 3                                   =.! ! ! >       ",
"                                                Z | | | -.;.>.>.;.,.'.).| | 3                                   ' + + + >       ",
"                                                Z | | | s y y y y y i !.| | 3                                   ' + + + >       ",
"                                                Z | | | w ~.h h h {.{.t | | 3                                   ] + + + >       ",
"                                                Z | | | ].{.{.h h {.{.t | | 3                                   # . . .         ",
"                                                Z | | | ].{.{.h h h ^.j | | 3                                                   ",
"                                                Z | | | ].^.i i i i i j | | 3                                                   ",
"                                                Z | | | /.^.i i i i (.j | | 3                                                   ",
"                                        ^ m m m k | | | _.i i i i (.(.j | | 3                                                   ",
"                                        [ + + + k | | | _.i i (.(.(.(.:.| | 3                                                   ",
"                                        [ + + + k | | | _.i i (.(.(.(.:.| | 3                                                   ",
"                                        [ + + + k | | | _.i i i i (.(.:.| | 3                                                   ",
"<.<.<.'                                 ) ; ; ; U | | | _.i i i i i (.[.| | 3                                                   ",
"+ + + {                                         Z | | | }.|.|.|.|.|.1.2.| | 3                                                   ",
"+ + + {                                         Z | | | 3.4.5.5.5.6.7.8.| | 3                                                   ",
"+ + + {                                         Z | | 9.0.4.4.4.4.a.b.8.| | 3                                                   ",
"/ / / /                                         Z | | | 3.4.4.6.6.a.c.8.| | 3   d.^ ^ ^ )               , ^ ^ ^ /       e.^ ^ ^ ",
"                                                Z | | | 3.4.4.a.a.a.b.8.| | 3   <.+ + + )               ^ + + + f.      =.+ + + ",
"                                                Z | | | 3.4.4.4.4.a.c.8.| | 3   <.+ + + )               ^ + + + f.      =.+ + + ",
"                                                Z | | | 3.4.4.4.4.a.g.8.| | 3   <.+ + + )               ^ + + + f.      =.+ + + ",
"=.=.=.h.      # $ =.=.h.#                       Z | | | i.j.j.j.j.j.j.k.| | 3   > * * * #               > * * * e.=.=.=.l.m.m.m.",
"+ + + {       ~ ! + + ! #                       Z | | | | | | | | | | | | | 3                                   ' + + + m.e e e ",
"+ + + {       ~ ! + + ! #                       Z | | | | | | | | | | | | | 3                                   ' + + + m.e e e ",
"+ + + {       L ! + + ! #                       Z | | | | | | | | | | | | | 3                                   ' + + + m.e e e ",
"n.n.n.o.% d.d., p.q.q.r.                        s.t.t.t.t.t.t.t.t.t.t.t.t.t.s.                  u.d.d.d.d.d.d.d.l.n.n.n.q e e e ",
"e e e q + + + @ #                                                                               <.+ + + + + + + v.e e e e e e e ",
"e e e q + + + @ #                                                                               <.+ + + + + + + v.e e e e e e e ",
"e e e q + + + { #                                                                               <.+ + + + + + + v.e e e e e e e ",
"w.w.w.w.x.x.x.x.                                e.y.y.y.#                                       r.x.x.x.x.x.x.x.z.w.w.w.w.w.w.w.",
"                                                @ + + + .                                                                       ",
"                                                @ + + + .                                                                       ",
"                                                @ + + + .                                                                       ",
"                                                A.A.A.A.                                                                        ",
"                                                                                                                                ",
"                                                                                                                                ",
"                                                                                                                                "};
