/* XPM */
static char * pcollect00_xpm[] = {
"64 64 339 2",
"  	c #65A847",
". 	c #60A149",
"+ 	c #407B52",
"@ 	c #468150",
"# 	c #60A249",
"$ 	c #437E51",
"% 	c #488450",
"& 	c #63A548",
"* 	c #62A548",
"= 	c #458151",
"- 	c #61A348",
"; 	c #448051",
"> 	c #61A448",
", 	c #468350",
"' 	c #407C52",
") 	c #63A648",
"! 	c #417C52",
"~ 	c #417D52",
"{ 	c #62A448",
"] 	c #447F51",
"^ 	c #366845",
"/ 	c #274D31",
"( 	c #3E6A2B",
"_ 	c #56903C",
": 	c #2E5A3B",
"< 	c #000000",
"[ 	c #4C8035",
"} 	c #3F7952",
"| 	c #437D51",
"1 	c #305D3B",
"2 	c #468250",
"3 	c #3F7852",
"4 	c #345754",
"5 	c #345854",
"6 	c #355B54",
"7 	c #437F51",
"8 	c #64A747",
"9 	c #497C33",
"0 	c #295134",
"a 	c #27451A",
"b 	c #8F7310",
"c 	c #D8A300",
"d 	c #D7A300",
"e 	c #917511",
"f 	c #5B973F",
"g 	c #21442C",
"h 	c #9E7802",
"i 	c #F3B900",
"j 	c #F4B800",
"k 	c #F3B800",
"l 	c #F2B800",
"m 	c #A17900",
"n 	c #58943E",
"o 	c #427E51",
"p 	c #478350",
"q 	c #5FA149",
"r 	c #3E7652",
"s 	c #355A54",
"t 	c #21432C",
"u 	c #9E7903",
"v 	c #F3B901",
"w 	c #F4B900",
"x 	c #335653",
"y 	c #335652",
"z 	c #182E2C",
"A 	c #9F7C00",
"B 	c #F2BD00",
"C 	c #F4BA00",
"D 	c #F2B700",
"E 	c #56913C",
"F 	c #63A446",
"G 	c #61A349",
"H 	c #3F7752",
"I 	c #223B39",
"J 	c #C89900",
"K 	c #F3D69B",
"L 	c #F4F7F2",
"M 	c #F4F8F4",
"N 	c #F4F8F3",
"O 	c #DCBB98",
"P 	c #CD8900",
"Q 	c #CE8900",
"R 	c #EDB200",
"S 	c #F2B900",
"T 	c #F1B700",
"U 	c #F1B800",
"V 	c #6A4F00",
"W 	c #64A646",
"X 	c #CB9900",
"Y 	c #F5BA00",
"Z 	c #F5B900",
"` 	c #F5D7A4",
" .	c #F5F7F6",
"..	c #DBBA9A",
"+.	c #CD8800",
"@.	c #EEB200",
"#.	c #6B5100",
"$.	c #427D52",
"%.	c #417A52",
"&.	c #375B53",
"*.	c #375C53",
"=.	c #243F39",
"-.	c #CA9900",
";.	c #F4D7A4",
">.	c #F6F8F7",
",.	c #DCBA9A",
"'.	c #65A747",
").	c #60A044",
"!.	c #568F3D",
"~.	c #627228",
"{.	c #775900",
"].	c #775800",
"^.	c #765800",
"/.	c #D2AE63",
"(.	c #F3CA78",
"_.	c #F0D4A2",
":.	c #ECE1D3",
"<.	c #EDE2D0",
"[.	c #DAAF80",
"}.	c #CE8800",
"|.	c #E6A900",
"1.	c #EBAE00",
"2.	c #EFB500",
"3.	c #957100",
"4.	c #755800",
"5.	c #745601",
"6.	c #57903D",
"7.	c #59943E",
"8.	c #538C3A",
"9.	c #A97F00",
"0.	c #F6B900",
"a.	c #F4B801",
"b.	c #F4E6CD",
"c.	c #F6F8F8",
"d.	c #E6CFB9",
"e.	c #CE8700",
"f.	c #E4A600",
"g.	c #F0B706",
"h.	c #274519",
"i.	c #F5B800",
"j.	c #F7F8F8",
"k.	c #F0B707",
"l.	c #538A3A",
"m.	c #F1E5CB",
"n.	c #F6F7F6",
"o.	c #F7F7F6",
"p.	c #E6CEB7",
"q.	c #CF8800",
"r.	c #CF8700",
"s.	c #F0B705",
"t.	c #254319",
"u.	c #64A647",
"v.	c #64A648",
"w.	c #609F43",
"x.	c #795B02",
"y.	c #EBB407",
"z.	c #EAB606",
"A.	c #EBB606",
"B.	c #F0D8A7",
"C.	c #F5F6F2",
"D.	c #DBB489",
"E.	c #E5A800",
"F.	c #F0B900",
"G.	c #F1B900",
"H.	c #DE9F00",
"I.	c #CE8A00",
"J.	c #EBB000",
"K.	c #EDB404",
"L.	c #ECB305",
"M.	c #ECB406",
"N.	c #D3A307",
"O.	c #62A346",
"P.	c #7E5D00",
"Q.	c #F4D9A9",
"R.	c #DBB48D",
"S.	c #E5A900",
"T.	c #F1BA00",
"U.	c #DE9E00",
"V.	c #CD8700",
"W.	c #ECB000",
"X.	c #DAA706",
"Y.	c #63A347",
"Z.	c #F4DAA5",
"`.	c #F5F8F6",
" +	c #F6F8F6",
".+	c #F6F8F4",
"++	c #DCB688",
"@+	c #DAA703",
"#+	c #EFCE8C",
"$+	c #EBE3D5",
"%+	c #ECE3D6",
"&+	c #EDE4D4",
"*+	c #D9AC73",
"=+	c #E0A200",
"-+	c #EAAF00",
";+	c #F0B700",
">+	c #E3A500",
",+	c #D79500",
"'+	c #D79400",
")+	c #E7A900",
"!+	c #DAA704",
"~+	c #7E5E00",
"{+	c #E2A200",
"]+	c #CC8700",
"^+	c #CD8702",
"/+	c #D79300",
"(+	c #E3A300",
"_+	c #E2A300",
":+	c #E9AC00",
"<+	c #DF9F00",
"[+	c #D99700",
"}+	c #F3CB7C",
"|+	c #F2D7A6",
"1+	c #F1D7A7",
"2+	c #E3AD47",
"3+	c #D9A704",
"4+	c #E3A600",
"5+	c #F3E0BE",
"6+	c #F4F8F7",
"7+	c #F4F8F8",
"8+	c #F4C86D",
"9+	c #D9A703",
"0+	c #E6A800",
"a+	c #F4E0BF",
"b+	c #7E5F00",
"c+	c #F4BA01",
"d+	c #F3BA00",
"e+	c #F4E0BD",
"f+	c #F4F8F6",
"g+	c #F3BA01",
"h+	c #D9A805",
"i+	c #63A346",
"j+	c #63A546",
"k+	c #518939",
"l+	c #617C2E",
"m+	c #8E6D01",
"n+	c #8E6C00",
"o+	c #C39401",
"p+	c #E7AA00",
"q+	c #E7AB00",
"r+	c #EEB300",
"s+	c #F3DFB6",
"t+	c #F3E4C9",
"u+	c #F4E4C9",
"v+	c #F3D9A5",
"w+	c #F3D08F",
"x+	c #F3D090",
"y+	c #F3BE3C",
"z+	c #F2B803",
"A+	c #8D6B01",
"B+	c #826F13",
"C+	c #A87F00",
"D+	c #F4EFE0",
"E+	c #F4F7F6",
"F+	c #F4D5A2",
"G+	c #F1B70A",
"H+	c #F4F8F5",
"I+	c #F2B707",
"J+	c #A57F02",
"K+	c #EFB904",
"L+	c #F0B903",
"M+	c #F1B901",
"N+	c #F4CB80",
"O+	c #F4D5A1",
"P+	c #F5F2EA",
"Q+	c #F5F7F7",
"R+	c #F4D5A3",
"S+	c #C69600",
"T+	c #BB8D00",
"U+	c #BC8D00",
"V+	c #BA8C02",
"W+	c #264419",
"X+	c #427D51",
"Y+	c #498550",
"Z+	c #63A445",
"`+	c #5D9B41",
" @	c #4B702C",
".@	c #3A2C01",
"+@	c #3B2C00",
"@@	c #CB9A00",
"#@	c #F3E2C4",
"$@	c #F1CA6B",
"%@	c #F4C03E",
"&@	c #F4BB26",
"*@	c #6C5000",
"=@	c #5C9940",
"-@	c #5E9D42",
";@	c #457530",
">@	c #C89800",
",@	c #F2E3C3",
"'@	c #F4C459",
")@	c #F3E3C4",
"!@	c #F4C359",
"~@	c #478351",
"{@	c #508638",
"]@	c #7B711C",
"^@	c #8D6B00",
"/@	c #8D6A00",
"(@	c #BF9000",
"_@	c #F1C874",
":@	c #F2D091",
"<@	c #F2D092",
"[@	c #F1D092",
"}@	c #F3BC32",
"|@	c #BF9100",
"1@	c #8E6A00",
"2@	c #4B6038",
"3@	c #326240",
"4@	c #4E8438",
"5@	c #375F25",
"6@	c #9E7801",
"7@	c #396D47",
"8@	c #468151",
"9@	c #3F7A52",
"0@	c #9D7903",
"a@	c #A17800",
"b@	c #58933E",
"c@	c #365E54",
"d@	c #458051",
"e@	c #375E25",
"f@	c #9E7900",
"g@	c #365D54",
"h@	c #5F9E42",
"i@	c #50752E",
"j@	c #473500",
"k@	c #483500",
"l@	c #52782F",
"m@	c #407A52",
"n@	c #478250",
"o@	c #468251",
"p@	c #4A7C33",
"q@	c #365F54",
"r@	c #365C54",
"s@	c #172B0E",
"t@	c #4E8336",
"u@	c #355C54",
"v@	c #355954",
"w@	c #376054",
"x@	c #417D51",
"      . + + + @                                                                                                                 ",
"      . + + + @                                                                                                                 ",
"      . + + + @                                                                                                                 ",
"      # $ $ $ %                                                                         & & & &                                 ",
"                                                                                        $ + + + *                               ",
"                                                                                        $ + + + *                               ",
"                                                                                        $ + + + *                               ",
"                        & & & &                                                         = $ $ $ *                               ",
"                      - + + + ;                                                                                                 ",
"                      - + + + ;                                                                                                 ",
"                      - + + + ;                                                                                                 ",
"                      > $ $ $ , & & & &         & & & &                                                                         ",
"                              - + ' ' ;       ) ! ' ' ~                                                                         ",
"                              { + + + ]       ) + + ^ / ( ( ( ( ( ( ( ( ( _                                                     ",
"                              { + + + ]       ) + + : < < < < < < < < < < [                                                     ",
"        & & & )         & & & . } } } | & & & - $ $ 1 < < < < < < < < < < [                                                     ",
"      # ! ! ! 2       - + ! ! 3 4 5 5 6 ! ! ! 7 8 8 9 < < < < < < < < < < [                                                     ",
"      . + + + @       - + + + 3 4 4 4 6 + + + 0 a a b c c c c d d d d d d e a a a f                                             ",
"      . + + + @       - + + + 3 4 4 4 6 + + + g < < h i j k k k l l l l k m < < < n                                             ",
"      # o o o p ) ) ) q } } } r 4 4 4 s } } } t < < u v w i k k k k l k k m < < < n                                             ",
"        8 8 8 # ' ! ! 3 4 5 5 5 4 4 4 x y y y z < < A B C C l D D D l l k m < < < E F F F                                       ",
"              G + + + H 4 4 4 4 4 4 4 I < < < J k k K L M N O P Q P R S i l T T U V < < < W                                     ",
"              G + + + H 4 4 4 4 4 4 4 I < < < X Y Z `  . . ...+.+.+.@.i i i i i S #.< < < W                                     ",
"              G $.$.$.%.&.*.*.*.*.*.*.=.< < < -.w w ;. . .>.,.+.+.+.R i i i S S S #.< < < W                                     ",
"                '.'.'.'.8 8 8 ).!.!.!.~.{.].^./.(.(._.:.:.<.[.+.+.}.|.1.1.2.S S i 3.4.4.5.!.6.6.7.                              ",
"                              8.< < < 9.Z 0.a.b.>.c.d.}.}.e.e.}.}.}.}.}.+.f.S S i S S S g.< < < h.                              ",
"                              8.< < < 9.Z i.a.b.c.j.d.}.}.}.e.e.}.+.+.+.+.f.i k k S S i k.< < < a                               ",
"                        W W W l.< < < 9.Z i.l m.n.o.p.e.}.q.q.r.e.+.+.+.+.f.k k k l S i s.< < < t.W W W         u.v.v.v.        ",
"                      w.< < < x.y.z.A.B.C.C.C.D.Q Q }.}.}.q.E.F.G.G.U U U H.I.I.Q J.S i i K.L.M.N.< < < O.      = + + + #       ",
"                      w.< < < P.j w w Q. . . .R.}.}.}.}.}.q.S.G.T.G.G.G.S U.e.}.V.W.i i i k k k X.< < < Y.      = + + + #       ",
"                      w.< < < P.j w w Z.`. +.+++}.}.}.}.}.q.S.G.G.G.G.S S U.e.}.V.J.S l l l l k @+< < < Y.      = + + + #       ",
"                      w.< < < P.j w w #+$+%+&+*+}.e.e.e.}.q.=+-+-+-+;+l S >+,+,+'+)+1.1.1.l l k !+< < < Y.      2 ! ! ! #       ",
"                      w.< < < ~+w k k {+]+V.^+e.}.e.}.}.}.q.q.q.q.q.R S S l k k k /+q.q.q.l l k !+< < < Y.                      ",
"                      w.< < < ~+i i k (+}.e.e.e.e.e.e.}.}.}.q.r.r.e.R i i k k k k /+q.q.}.l l k !+< < < Y.                      ",
"                      w.< < < ~+i i k _+e.e.e.e.e.e.e.}.}.}.e.e.e.e.R i k k k k k /+q.e.}.l l k !+< < < Y.                      ",
"                      w.< < < ~+i i l :+<+<+<+<+<+H.,+}.}.}.[+<+<+<+2.k k }+|+1+1+2+<+<+<+l l k 3+< < < Y.                      ",
"                      w.< < < ~+i i l S S S S S S S 4+P +.+.E.l S S k k k 5+6+7+6+8+i i i l l k 9+< < < Y.                      ",
"                      w.< < < ~+i i i i i S S S S k 4+P +.P 0+k k i i k k a+6+6+6+8+w i i i i k 3+< < < Y.                      ",
"                      w.< < < b+c+d+d+i i i l S S k >+Q +.+.E.k k i i k j e+f+6+6+8+w i i g+d+d+h+< < < i+                      ",
") ) ) u.              j+k+k+k+l+m+n+n+o+i i i l S l R p+p+q+r+k k k s+t+u+v+w+x+w+y+i i z+A+n+n+B+k+k+k+W                       ",
"+ + + %                       8.< < < C+i i S l l l l l S i k k j j D+f+E+F+j w w i i w G+< < < h.                              ",
"+ + + p                       8.< < < C+i S S S S S l l k i i i w j D+f+H+F+j j w k k k I+< < < a                               ",
"+ + + p                       8.< < < J+K+L+M+i S S S i i i N+O+O+O+P+Q+Q+R+j j i S+T+U+V+< < < W+                              ",
"X+X+X+Y+                      Z+`+`+`+ @.@.@+@@@S S S i i i #@ . . .$@%@%@&@j k k *@< < < =@`+`+-@      u.) ) )         u.) ) ) ",
"'.'.'.'.                              ;@< < < >@S l k k i i ,@H+f+f+'@v j j j k k *@< < < W             ; ! ! + >       p ! ! ! ",
"                                      ;@< < < >@S l l k i i )@f+6+f+!@j w j j j k *@< < < W             ] + + + -       ~@+ + + ",
"                                      f {@{@{@]@^@/@(@i w i _@:@<@[@}@k k |@1@1@1@2@3@3@4@'.            ] + + + -       ~@+ + + ",
"v.v.v.8         v.v.v.u.                      5@< < 6@i w i k k k k k k j m < < < 7@$.$.&               = $.$.$.# v.v.v.8@9@9@9@",
"! ! ! %       G ! ! ! =                       5@< < 0@v w w i k k k i i k a@< < < b@8 8                 8 8 8 8 8@! ! ! c@5 5 5 ",
"+ + + p       G + + + d@                      e@< < f@d+Y Y Y Y Y C C C w m < < < n                             = + + + g@4 4 4 ",
"+ + + p       G + + + d@                      h@=@=@i@j@j@k@k@k@k@j@j@j@j@l@=@=@=@j+                            = + + + g@4 4 4 ",
"m@m@m@n@8 8 8 # ! ~ ~ o@                            p@< < < < < < < < < < [                     8 8 8 8 8 8 8 8 ] m@m@m@g@4 4 4 ",
"5 5 5 q@! ! ! 2 8 8 8 8                             p@< < < < < < < < < < [                     ; ! ! ! ! ! ! ! r@5 5 5 4 4 4 4 ",
"4 4 4 c@+ + + @                                     [ s@s@s@s@s@s@s@s@s@s@t@                    ] + + + + + + + u@4 4 4 4 4 4 4 ",
"4 4 4 c@+ + + @                                                                                 ] + + + + + + + u@4 4 4 4 4 4 4 ",
"v@v@v@w@! ! ! 2                                 8 8 8 8                                         ; ! ! ! ! ! ! ! g@v@v@v@v@v@v@v@",
"8 8 8 8 8 8 8 8                               ) ! ' ' x@                                        8 8 8 8 8 8 8 8 8 8 8 8 8 8 8 8 ",
"                                              ) + + + !                                                                         ",
"                                              ) + + + !                                                                         ",
"                                              ) ' + + ~                                                                         ",
"                                                                                                                                ",
"                                                                                                                                ",
"                                                                                                                                ",
"                                                                                                                                "};
