/* XPM */
static char * pcollect02_xpm[] = {
"64 64 261 2",
"  	c #65A847",
". 	c #60A149",
"+ 	c #407B52",
"@ 	c #468150",
"# 	c #61A348",
"$ 	c #498550",
"% 	c #4D8A4F",
"& 	c #5FA049",
"* 	c #64A747",
"= 	c #437E51",
"- 	c #62A548",
"; 	c #5FA149",
"> 	c #4A8750",
", 	c #488450",
"' 	c #63A548",
") 	c #448051",
"! 	c #62A448",
"~ 	c #478350",
"{ 	c #4A8650",
"] 	c #60A249",
"^ 	c #416F2F",
"/ 	c #365C24",
"( 	c #4A7C33",
"_ 	c #437F51",
": 	c #63A648",
"< 	c #1B3923",
"[ 	c #000000",
"} 	c #3A6428",
"| 	c #447F51",
"1 	c #65A747",
"2 	c #63A547",
"3 	c #193823",
"4 	c #396428",
"5 	c #5D9D4A",
"6 	c #3E7652",
"7 	c #417A51",
"8 	c #417031",
"9 	c #172B0E",
"0 	c #C49705",
"a 	c #E0AB00",
"b 	c #DFAC00",
"c 	c #1C1400",
"d 	c #614800",
"e 	c #E1AB00",
"f 	c #B48D06",
"g 	c #4D8135",
"h 	c #458151",
"i 	c #3F7A52",
"j 	c #3F7752",
"k 	c #345754",
"l 	c #355A54",
"m 	c #285034",
"n 	c #D3A100",
"o 	c #F2B900",
"p 	c #F0B900",
"q 	c #1E1600",
"r 	c #694E00",
"s 	c #F3B900",
"t 	c #C39402",
"u 	c #4A7E34",
"v 	c #3F7852",
"w 	c #355B54",
"x 	c #285134",
"y 	c #F1B900",
"z 	c #F0B800",
"A 	c #315250",
"B 	c #30514F",
"C 	c #32554F",
"D 	c #395332",
"E 	c #372800",
"F 	c #C89800",
"G 	c #E2AD00",
"H 	c #E2AC00",
"I 	c #E0AC00",
"J 	c #3E2F00",
"K 	c #362800",
"L 	c #745700",
"M 	c #C59601",
"N 	c #4E7830",
"O 	c #5E9D42",
"P 	c #60A144",
"Q 	c #468350",
"R 	c #4A874F",
"S 	c #3D7352",
"T 	c #365856",
"U 	c #132221",
"V 	c #B68D00",
"W 	c #E8B300",
"X 	c #F2BA00",
"Y 	c #9E7800",
"Z 	c #355B24",
"` 	c #61A349",
" .	c #365956",
"..	c #B78D00",
"+.	c #F4B900",
"@.	c #765800",
"#.	c #050300",
"$.	c #EAB300",
"%.	c #F3BA00",
"&.	c #F2B800",
"*.	c #9F7800",
"=.	c #B88D00",
"-.	c #F5B900",
";.	c #F5B800",
">.	c #F6B900",
",.	c #365855",
"'.	c #B69C64",
").	c #F4CF88",
"!.	c #F4CE88",
"~.	c #F6CE88",
"{.	c #76623F",
"].	c #F0B700",
"^.	c #E8AB00",
"/.	c #E7AB00",
"(.	c #EBB000",
"_.	c #468251",
":.	c #457F51",
"<.	c #3D6652",
"[.	c #3E6753",
"}.	c #16281F",
"|.	c #BABBBB",
"1.	c #F8F9F9",
"2.	c #777878",
"3.	c #EDB200",
"4.	c #CE8900",
"5.	c #DC9C00",
"6.	c #66A948",
"7.	c #28451A",
"8.	c #BBBBBB",
"9.	c #F9F9F9",
"0.	c #787878",
"a.	c #E9B300",
"b.	c #CD8800",
"c.	c #CE8800",
"d.	c #BBBBBC",
"e.	c #61A448",
"f.	c #F7F9F8",
"g.	c #F8F9F8",
"h.	c #DC9B00",
"i.	c #B9B099",
"j.	c #F6E9CD",
"k.	c #F6E9CE",
"l.	c #F7E9CF",
"m.	c #776F62",
"n.	c #CD8700",
"o.	c #67A949",
"p.	c #28451B",
"q.	c #765700",
"r.	c #CE8700",
"s.	c #755800",
"t.	c #F3B800",
"u.	c #A07800",
"v.	c #EDB100",
"w.	c #F4BA00",
"x.	c #9E7900",
"y.	c #F1B700",
"z.	c #E8AC00",
"A.	c #E9AB00",
"B.	c #EBC37D",
"C.	c #F3E8D0",
"D.	c #F2E8CF",
"E.	c #F2E8D0",
"F.	c #9E9786",
"G.	c #F4B800",
"H.	c #F2D196",
"I.	c #F5F9F9",
"J.	c #F6F9F9",
"K.	c #A1A1A2",
"L.	c #F5F8F9",
"M.	c #F5F9F8",
"N.	c #F2D297",
"O.	c #F5F9F7",
"P.	c #F6F8F8",
"Q.	c #A1A1A3",
"R.	c #B58D00",
"S.	c #F3C566",
"T.	c #F4F4E9",
"U.	c #F4F4E8",
"V.	c #F4F4E7",
"W.	c #F3E2B8",
"X.	c #F5BE33",
"Y.	c #F5BF34",
"Z.	c #A07B1F",
"`.	c #F3C66C",
" +	c #F4F9F8",
".+	c #F4F9F7",
"++	c #F4F9F6",
"@+	c #F4E5BF",
"#+	c #F4C66B",
"$+	c #F4F8F8",
"%+	c #F4E5B9",
"&+	c #345925",
"*+	c #66A848",
"=+	c #325522",
"-+	c #1E3713",
";+	c #AA8709",
">+	c #E4AD03",
",+	c #E4AE02",
"'+	c #806100",
")+	c #523D00",
"!+	c #523E00",
"~+	c #DCA802",
"{+	c #E4AE00",
"]+	c #E7BB62",
"^+	c #F4F1E3",
"/+	c #F4F2DD",
"(+	c #F4F3DB",
"_+	c #EEDDAA",
":+	c #E5AE03",
"<+	c #E5AE04",
"[+	c #E6AE04",
"}+	c #98770C",
"|+	c #112717",
"1+	c #102617",
"2+	c #254A30",
"3+	c #478351",
"4+	c #41702D",
"5+	c #D4A300",
"6+	c #F1BA00",
"7+	c #1C1500",
"8+	c #C59400",
"9+	c #4A7D34",
"0+	c #427D52",
"a+	c #D3A200",
"b+	c #F0BA00",
"c+	c #C49500",
"d+	c #D3A300",
"e+	c #6A4E00",
"f+	c #C59502",
"g+	c #458051",
"h+	c #468250",
"i+	c #468051",
"j+	c #3F7952",
"k+	c #4F8537",
"l+	c #396227",
"m+	c #A98A0D",
"n+	c #C19600",
"o+	c #C09300",
"p+	c #160F00",
"q+	c #533D00",
"r+	c #C39601",
"s+	c #C29600",
"t+	c #C39500",
"u+	c #A08214",
"v+	c #548D3B",
"w+	c #365E54",
"x+	c #2D4F1E",
"y+	c #365D54",
"z+	c #468151",
"A+	c #427E51",
"B+	c #345923",
"C+	c #182E0F",
"D+	c #3F6B2B",
"E+	c #407C52",
"F+	c #365C54",
"G+	c #355C54",
"H+	c #365B54",
"I+	c #386153",
"J+	c #375F53",
"K+	c #417C52",
"L+	c #417D52",
"      . + + + @                                                                                                                 ",
"      . + + + @                                                                                                                 ",
"      . + + + @                                                                                                                 ",
"      # $ $ $ %                                                                         & & & & *                               ",
"                                                                                        = + + + -                               ",
"                                                                                        = + + + -                               ",
"                                                                                        = + + + -                               ",
"                      * ; ; ; .                                                         > , , , '                               ",
"                      # + + + )                                                                                                 ",
"                      # + + + )                                                                                                 ",
"                      # + + + )                                                                                                 ",
"                      ! ~ ~ ~ { . ; ; ]         ^ / / / / / / / / / / (                                                         ",
"                              ! + + + _       : < [ [ [ [ [ [ [ [ [ [ }                                                         ",
"                              ! + + + |       : < [ [ [ [ [ [ [ [ [ [ }                                                         ",
"                              ! + + + | 1 1 1 2 3 [ [ [ [ [ [ [ [ [ [ 4 1 1 1                                                   ",
"      * . . . ]       * . . . 5 6 6 6 7 8 9 9 9 0 a a b c [ [ d e e e f 9 9 9 g                                                 ",
"      . + + + h       # i + + j k k k l m [ [ [ n o o p q [ [ r s s s t [ [ [ u                                                 ",
"      . + + + @       # + + + v k k k w x [ [ [ n o y z q [ [ r s s s t [ [ [ u                                                 ",
"      . + + + @       # + + + v k A B C D E E E F G H I J K K L s s s M K K K N O O P                                           ",
"      ] Q Q Q R ] ] ] 5 6 6 6 S T U [ [ V s s o L [ [ [ W X y o o s s o y y y Y [ [ Z                                           ",
"              ` + + + j k k k k  .U [ [ ..+.+.+.@.[ [ #.$.%.o o o &.o o o o s *.[ [ Z                                           ",
"              ` + + + j k k k k  .U [ [ =.-.;.>.@.[ [ #.$.%.o o o &.&.&.&.s s *.[ [ Z                                           ",
"              ` + + + j k k k k ,.U [ [ '.).!.~.{.[ [ #.$.%.o ].^././.(.&.s s *.[ [ Z                                           ",
"              # _._._.:.<.<.<.<.[.}.[ [ |.1.1.1.2.[ [ #.$.%.%.3.4.4.4.5.&.s s *.[ [ Z                                           ",
"                                6.7.[ [ 8.1.1.9.0.[ [ #.a.%.%.3.b.c.4.5.&.s s *.[ [ Z                                           ",
"                                6.7.[ [ d.9.9.9.0.[ [ #.a.%.%.3.b.c.4.5.&.s s *.[ [ Z                                           ",
"                                6.7.[ [ d.9.1.9.0.[ [ #.a.%.%.3.b.c.4.5.&.s s *.[ [ Z                                           ",
"                                6.7.[ [ d.1.1.1.2.[ [ #.a.%.%.3.b.c.4.5.&.s s *.[ [ Z                           e.# # # *       ",
"                                6.7.[ [ |.f.f.g.2.[ [ #.a.%.%.3.b.c.c.h.&.s s *.[ [ Z                           h + + + ]       ",
"                                6.7.[ [ i.j.k.l.m.[ [ #.a.%.%.3.n.c.c.h.&.s s *.[ [ Z                           h + + + ]       ",
"                                o.p.[ [ ..-.;.;.q.[ [ #.a.%.%.3.n.r.c.h.&.s s *.[ [ Z                           h + + + ]       ",
"                                o.p.[ [ ..+.+.-.@.[ [ #.a.%.%.3.n.r.c.h.&.s s *.[ [ Z                           $ ) ) ) #       ",
"                                o.p.[ [ V +.+.+.s.[ [ #.a.%.%.3.n.r.c.h.&.s s *.[ [ Z                                           ",
"                                o.p.[ [ V s s s s.[ [ #.$.%.%.3.b.c.c.h.t.s +.u.[ [ Z                                           ",
"                                o.p.[ [ V s s s s.[ [ #.$.%.%.v.b.c.c.h.s s +.u.[ [ Z                                           ",
"                                o.p.[ [ V s s +.s.[ [ #.$.%.%.v.b.b.c.5.+.+.w.u.[ [ Z                                           ",
"                                o.p.[ [ V s s +.s.[ [ #.a.%.%.3.b.b.c.5.s X X x.[ [ Z                                           ",
"                                o.p.[ [ V s s +.s.[ [ #.a.%.s y.z.^.A.B.C.D.E.F.[ [ Z                                           ",
"                                o.p.[ [ V s s +.s.[ [ #.a.%.%.s s G.G.H.I.I.J.K.[ [ Z                                           ",
"- - - '                         o.p.[ [ V s s s s.[ [ #.a.%.%.s s G.G.H.L.M.J.K.[ [ Z                                           ",
"+ + + ~                         o.p.[ [ V s s s s.[ [ #.$.%.s s t.G.t.N.I.O.P.Q.[ [ Z                                           ",
"+ + + ~                         o.p.[ [ R.o s s s.[ [ #.$.%.s S.T.U.V.W.X.X.Y.Z.[ [ Z                                           ",
"+ + + ~                         o.p.[ [ R.o s s s.[ [ #.a.%.s `. +.+++@++.;.-.u.[ [ Z                                           ",
"_ _ _ {                         o.p.[ [ R.o s s s.[ [ #.a.%.w.#+$+.+.+%++.-.-.u.[ [ &+'                 ' - - -         ' - - - ",
"                                *+=+-+-+;+>+>+,+'+)+)+!+~+,+{+]+^+/+(+_+:+<+[+}+|+1+2++ '               _ + + + #       3++ + + ",
"                                        4+[ [ [ 5+X X 6+7+[ [ r +.+.+.8+[ [ [ 9+0++ + + '               | + + + #       3++ + + ",
"                                        4+[ [ [ a+X X b+q [ [ r +.+.+.c+[ [ [ 9+0++ + + '               | + + + #       3++ + + ",
"' ' ' :         ' ' ' '                 4+[ [ [ d+X X p q [ [ e++.+.+.f+[ [ [ 9+g+= = _ '               h+= = = ; ' ' ' i+j+j+j+",
"+ + + ,       ` + + + h                 k+l+l+l+m+n+n+o+p+[ [ q+r+s+t+u+l+l+l+v+                                h + + + w+k k k ",
"+ + + ~       ` + + + g+                        x+[ [ [ [ [ [ [ [ [ [ }                                         h + + + y+k k k ",
"+ + + ~       ` + + + g+                        x+[ [ [ [ [ [ [ [ [ [ }                                         h + + + y+k k k ",
"j+j+j+z+: : : ; A+A+A+~                         B+C+C+C+C+C+C+C+C+C+C+D+                        : : : : : : : : | j+j+j+y+k k k ",
"k k k w+E+E+E+h+  1 1                                                                           ) E+E+E+E+E+E+E+F+k k k k k k k ",
"k k k w++ + + @                                                                                 | + + + + + + + G+k k k k k k k ",
"k k k w++ + + @                                                                                 | + + + + + + + G+k k k k k k k ",
"H+H+H+I+0+0+0+~                                 * * * *                                         h 0+0+0+0+0+0+0+J+H+H+H+H+H+H+H+",
"* * * * 1 1 1                                 : K++ + L+                                        1 1 1 1 1 1 1 1 * * * * * * * * ",
"                                              : + + + K+                                                                        ",
"                                              : + + + K+                                                                        ",
"                                              : K+E+E+L+                                                                        ",
"                                                                                                                                ",
"                                                                                                                                ",
"                                                                                                                                ",
"                                                                                                                                "};
