/* XPM */
static char * pcollect01_xpm[] = {
"64 64 375 2",
"  	c #65A847",
". 	c #5C9D4A",
"+ 	c #407B52",
"@ 	c #4B874F",
"# 	c #5D9E4A",
"$ 	c #478450",
"% 	c #508D4E",
"& 	c #61A348",
"* 	c #60A149",
"= 	c #64A648",
"- 	c #498650",
"; 	c #64A747",
"> 	c #61A448",
", 	c #4D8A4F",
"' 	c #458151",
") 	c #5FA149",
"! 	c #468251",
"~ 	c #448051",
"{ 	c #488550",
"] 	c #62A448",
"^ 	c #60A147",
"/ 	c #3B6529",
"( 	c #3C6629",
"_ 	c #5B9840",
": 	c #61A349",
"< 	c #64A647",
"[ 	c #3E784F",
"} 	c #000000",
"| 	c #558E3B",
"1 	c #64A748",
"2 	c #3F7850",
"3 	c #558F3B",
"4 	c #63A548",
"5 	c #63A648",
"6 	c #65A747",
"7 	c #5FA049",
"8 	c #3F7952",
"9 	c #437D51",
"0 	c #558E3E",
"a 	c #2A491C",
"b 	c #29481C",
"c 	c #133220",
"d 	c #D2A200",
"e 	c #D2A000",
"f 	c #B98D00",
"g 	c #846301",
"h 	c #D29F00",
"i 	c #CFA000",
"j 	c #6A6316",
"k 	c #4B7F34",
"l 	c #417C52",
"m 	c #4B884F",
"n 	c #3F7752",
"o 	c #345754",
"p 	c #345854",
"q 	c #365B54",
"r 	c #376745",
"s 	c #F3BC00",
"t 	c #F3B900",
"u 	c #D7A300",
"v 	c #987300",
"w 	c #EFB800",
"x 	c #755B00",
"y 	c #44742F",
"z 	c #355B54",
"A 	c #366645",
"B 	c #F2B900",
"C 	c #997300",
"D 	c #F3B800",
"E 	c #335653",
"F 	c #355A53",
"G 	c #3F7951",
"H 	c #366544",
"I 	c #030200",
"J 	c #EFB900",
"K 	c #F0B601",
"L 	c #EFB602",
"M 	c #D4A100",
"N 	c #020200",
"O 	c #997402",
"P 	c #F3B903",
"Q 	c #F3B801",
"R 	c #F2B800",
"S 	c #EFB700",
"T 	c #765A00",
"U 	c #44722E",
"V 	c #64A646",
"W 	c #417D52",
"X 	c #5E9F49",
"Y 	c #407A52",
"Z 	c #3E7652",
"` 	c #30504D",
" .	c #030707",
"..	c #040908",
"+.	c #050F07",
"@.	c #836305",
"#.	c #EAB200",
"$.	c #E9B200",
"%.	c #E2AD00",
"&.	c #1E1500",
"*.	c #241A00",
"=.	c #6B5001",
"-.	c #EBB401",
";.	c #EBB300",
">.	c #EED091",
",.	c #F4F5ED",
"'.	c #F4F5EE",
").	c #E0C29F",
"!.	c #CF8B00",
"~.	c #D08B00",
"{.	c #DA9900",
"].	c #B08602",
"^.	c #0B1706",
"/.	c #508638",
"(.	c #2F504D",
"_.	c #886600",
":.	c #ECB300",
"<.	c #6A4F00",
"[.	c #F5BB01",
"}.	c #F5BA00",
"|.	c #F4B900",
"1.	c #F3D499",
"2.	c #F5F8F6",
"3.	c #F5F8F5",
"4.	c #DFC3A5",
"5.	c #CD8800",
"6.	c #D89800",
"7.	c #B68A00",
"8.	c #4F8537",
"9.	c #3E7552",
"0.	c #EDB300",
"a.	c #F6BA01",
"b.	c #F5B900",
"c.	c #F4D498",
"d.	c #F5F8F7",
"e.	c #D99800",
"f.	c #B68900",
"g.	c #325350",
"h.	c #2E4E4B",
"i.	c #314B49",
"j.	c #4F4F4F",
"k.	c #4E4E4E",
"l.	c #886F40",
"m.	c #DBA708",
"n.	c #D5A204",
"o.	c #4A3800",
"p.	c #4D3903",
"q.	c #4D3900",
"r.	c #7D631D",
"s.	c #F3C450",
"t.	c #F3C350",
"u.	c #F3D395",
"v.	c #F0EADD",
"w.	c #F0EADC",
"x.	c #DDBB92",
"y.	c #CE8800",
"z.	c #D79600",
"A.	c #EEB200",
"B.	c #EDB100",
"C.	c #B88900",
"D.	c #537B31",
"E.	c #5A963F",
"F.	c #5E9D42",
"G.	c #3F7652",
"H.	c #355854",
"I.	c #26413E",
"J.	c #FAFAFA",
"K.	c #F9FAFA",
"L.	c #F9F9F9",
"M.	c #CDCCCD",
"N.	c #F4BC00",
"O.	c #F3C86B",
"P.	c #F5F9F9",
"Q.	c #F6F9F9",
"R.	c #E7D4BF",
"S.	c #CD8600",
"T.	c #CE8700",
"U.	c #CE8900",
"V.	c #E0A100",
"W.	c #F4BA00",
"X.	c #8E6B00",
"Y.	c #3A6327",
"Z.	c #63A547",
"`.	c #497C34",
" +	c #F8F9F9",
".+	c #CCCCCC",
"++	c #F1C86B",
"@+	c #F6F9F8",
"#+	c #F6F8F8",
"$+	c #DFA100",
"%+	c #3A6428",
"&+	c #4B7E34",
"*+	c #F4C86B",
"=+	c #F5F9F8",
"-+	c #E6D5C1",
";+	c #4E4F4F",
">+	c #F1C055",
",+	c #E9DAC8",
"'+	c #DFBF9B",
")+	c #D59300",
"!+	c #DA9B00",
"~+	c #DB9B00",
"{+	c #E6A900",
"]+	c #F8FAFA",
"^+	c #F7F9F8",
"/+	c #F7F9F9",
"(+	c #CCCCCD",
"_+	c #ECAF00",
":+	c #CF8701",
"<+	c #CF8803",
"[+	c #CE8802",
"}+	c #E3A700",
"|+	c #F1B900",
"1+	c #F7FAFA",
"2+	c #F6F9F7",
"3+	c #CBCCCD",
"4+	c #F2BC00",
"5+	c #CF8800",
"6+	c #52904E",
"7+	c #437F51",
"8+	c #58984B",
"9+	c #4E4D49",
"0+	c #F7F5EA",
"a+	c #F5F4EA",
"b+	c #CAC8C0",
"c+	c #EBAF00",
"d+	c #CF8A00",
"e+	c #D08C00",
"f+	c #E3A500",
"g+	c #EFB500",
"h+	c #F0B500",
"i+	c #F1B600",
"j+	c #508E4E",
"k+	c #57974C",
"l+	c #4D3800",
"m+	c #F6B904",
"n+	c #F4B804",
"o+	c #F3BA04",
"p+	c #C59904",
"q+	c #DC9C00",
"r+	c #DE9E00",
"s+	c #D99700",
"t+	c #C79900",
"u+	c #DD9D00",
"v+	c #D89600",
"w+	c #F1B700",
"x+	c #57964C",
"y+	c #CD8700",
"z+	c #C69900",
"A+	c #E3A600",
"B+	c #E0A63E",
"C+	c #F2CA79",
"D+	c #F3CA79",
"E+	c #F3CA78",
"F+	c #F2C257",
"G+	c #F4CD82",
"H+	c #F4F8F4",
"I+	c #F3F7F4",
"J+	c #F2DDB6",
"K+	c #F4CC82",
"L+	c #F4F8F6",
"M+	c #F3F7F5",
"N+	c #F2DDB8",
"O+	c #CD8900",
"P+	c #DC9D00",
"Q+	c #F3F7F6",
"R+	c #F3DDB8",
"S+	c #EEB300",
"T+	c #DE9F00",
"U+	c #F2CB7F",
"V+	c #F4D7A3",
"W+	c #F4E1BC",
"X+	c #F4E6C8",
"Y+	c #F3DFB9",
"Z+	c #F3DEB9",
"`+	c #F3CE89",
" @	c #F2E0C3",
".@	c #F4F9F9",
"+@	c #F4F9F8",
"@@	c #F4CC7D",
"#@	c #F2E0C2",
"$@	c #C69800",
"%@	c #4C894F",
"&@	c #5B9940",
"*@	c #4E8336",
"=@	c #547D31",
"-@	c #946F00",
";@	c #936F00",
">@	c #9B7600",
",@	c #BE9100",
"'@	c #BE9200",
")@	c #917000",
"!@	c #936E00",
"~@	c #A77F01",
"{@	c #F3B901",
"]@	c #F2C975",
"^@	c #F3D398",
"/@	c #F3D496",
"(@	c #F3C149",
"_@	c #F3BA00",
":@	c #CC9C00",
"<@	c #67772A",
"[@	c #56913C",
"}@	c #5D9B41",
"|@	c #F2BA00",
"1@	c #694F00",
"2@	c #F4BA01",
"3@	c #B68B00",
"4@	c #876600",
"5@	c #886601",
"6@	c #F4BA02",
"7@	c #EDB401",
"8@	c #F5BB02",
"9@	c #F4BB02",
"0@	c #F3BB01",
"a@	c #F4BB01",
"b@	c #B78B01",
"c@	c #54924D",
"d@	c #63A546",
"e@	c #5B973F",
"f@	c #5D8336",
"g@	c #684E01",
"h@	c #644B01",
"i@	c #DBA900",
"j@	c #DBA700",
"k@	c #C69600",
"l@	c #AA8200",
"m@	c #F1B800",
"n@	c #947101",
"o@	c #555D31",
"p@	c #549042",
"q@	c #61A244",
"r@	c #4D8B4F",
"s@	c #59994B",
"t@	c #558B3C",
"u@	c #D7A200",
"v@	c #765B00",
"w@	c #2A5437",
"x@	c #5E9F4A",
"y@	c #795B00",
"z@	c #518F4E",
"A@	c #538A3A",
"B@	c #010000",
"C@	c #EFBC02",
"D@	c #F0B900",
"E@	c #D4A400",
"F@	c #977201",
"G@	c #F0B700",
"H@	c #F0B800",
"I@	c #F2B700",
"J@	c #7A5B00",
"K@	c #3E6C31",
"L@	c #52914D",
"M@	c #417552",
"N@	c #376253",
"O@	c #488450",
"P@	c #63A446",
"Q@	c #60A044",
"R@	c #538B3A",
"S@	c #396853",
"T@	c #62A345",
"U@	c #386453",
"V@	c #3F7052",
"W@	c #5B9B4B",
"X@	c #64A746",
"Y@	c #61A144",
"Z@	c #55934D",
"`@	c #417452",
" #	c #365D54",
".#	c #386354",
"+#	c #396653",
"@#	c #56904C",
"##	c #57934C",
"$#	c #5D9D4A",
"%#	c #58974C",
"      . + + + @                                                                                                                 ",
"      . + + + @                                                                                                                 ",
"      . + + + @                                                                                                                 ",
"      # $ $ $ %                                                                         & * * * =                               ",
"                                                                                        - + + + .                               ",
"                                                                                        - + + + .                               ",
"                                                                                        - + + + .                               ",
"                      ; & & & >                                                         , ' ' ' #                               ",
"                      ) + + + '                                                                                                 ",
"                      ) + + + !                                                                                                 ",
"                      ) + + + !                                                                                                 ",
"                      * ~ ~ ~ { ] ] ] ]         ^ / ( ( ( ( ( ( ( ( ( ( ( ( ( ( _                                               ",
"                              : + + + ~       < [ } } } } } } } } } } } } } } } |                                               ",
"                              : + + + ~       < [ } } } } } } } } } } } } } } } |                                               ",
"                              : + + + ~       1 2 } } } } } } } } } } } } } } } 3                                               ",
"      ; 4 4 4 5       6 4 4 4 7 8 8 8 9 4 0 a b c d e e f } } } g h h h h h h i j a a k                                         ",
"      . l l l m       ) l l l n o p p q l r } } } s t t u } } } v t t t t t t w x } } y                                         ",
"      . + + + @       ) + + + n o o o z + A } } } s B t u } } } C t t D D t B w x } } y                                         ",
"      . + + + @       ) + + + n o o E F G H I I } J K L M N I I O P P P Q D R S T I I U V V V 6                                 ",
"      . W W W m < < < X Y Y Y Z o `  ...+.@.#.$.%.&.*.*.=.-.;.;.>.,.,.'.).!.~.{.;.$.$.].^.^.^./.                                ",
"        ; ; ; . l l l n p p p p o (.} } } _.t t :.} } } <.[.}.|.1.2.2.3.4.5.5.6.D R B 7.} } } 8.                                ",
"              # + + + 9.o o o o o (.} } } _.|.|.0.} } } <.a.b.b.c.2.d.d.4.5.5.e.D R R f.} } } 8.                                ",
"              # + + + 9.o o g.h.h.i.j.k.k.l.m.m.n.o.p.q.r.s.t.t.u.v.w.w.x.5.y.z.A.B.B.C.q.q.q.D.E.E.F.                          ",
"              # l l l G.H.H.I.} } j.J.K.L.M.} } } N.}.}.O.P.P.Q.R.S.S.S.T.y.y.U.U.U.U.V.t W.t X.} } Y.                          ",
"                < < < < Z.Z.`.} } j.J. + +.+} } } s |.|.++P.@+#+R.5.5.5.5.y.y.y.U.U.U.$+R R R X.} } %+                          ",
"                            &+} } j.K. + +.+} } } s t |.*+=+=+=+-+5.5.y.y.y.y.y.U.U.U.$+R R R X.} } %+                          ",
"                            &+} } ;+K. + +.+} } } s t |.>+,+,+,+'+5.5.y.)+!+~+~+~+~+~+{+R R R X.} } %+                          ",
"                            &+} } ;+]+^+/+(+} } } s t D _+:+<+[+y.y.5.5.}+|+R R R R R R R R R X.} } %+                          ",
"                            &+} } ;+1+2+^+3+} } } 4+t D _+5+5+y.y.y.5.5.}+B B R R R R R B R R X.} } %+          6+7+7+7+8+      ",
"                            &+} } 9+0+a+a+b+} } } 4+B R c+5+5+y.d+e+e+e+f+g+h+i+R R R R R R R X.} } %+          j++ + + k+      ",
"                            &+} } l+m+n+o+p+} } } 4+B R c+5+y.T.q+B B B r+T.T.s+R R R R R R R X.} } %+          j++ + + k+      ",
"                            &+} } l+b.|.t t+} } } 4+B R c+y.T.T.u+B B t r+T.T.v+w+R R R R R R X.} } %+          j++ + + x+      ",
"                            &+} } l+|.t t t+} } } s B R c+y.y.y+u+t t t r+y+y+v+R D R R R R R X.} } %+          4 & & & 5       ",
"                            &+} } l+|.t t z+} } } s B R c+y.y.y+u+t t t A+z.z.B+C+D+E+F+B R R X.} } %+                          ",
"                            &+} } l+|.t B z+} } } s B R c+y.y.5.u+t B B B t t G+H+I+I+J+R R R X.} } %+                          ",
"                            &+} } l+|.t B z+} } } s B R c+y.y.5.u+D D t t t D K+L+M+M+N+R R R X.} } %+                          ",
"                            &+} } l+|.t B z+} } } s B R c+U.5.O+P+t t t t t |.K+L+Q+Q+R+R R R X.} } %+                          ",
"                            &+} } l+|.t B z+} } } s B R S+T+T+T+{+R D t U+V+V+W+X+Y+Z+`+R R R X.} } %+                          ",
"                            &+} } l+|.t B z+} } } s B R R R R R R D D D  @.@.@+@@@t t t t R R X.} } %+                          ",
"                            &+} } l+|.t B z+} } } s B R R R R R R t D Q #@.@.@+@@@t t t D D R X.} } %+                          ",
"{ { { 6+                    &+} } q.|.t B $@} } } 4+R R B B B B t t D Q  @.@.@+@@@t t B R D R X.} } %+                          ",
"+ + + %@                    &@*@*@=@-@;@;@>@,@'@f )@!@!@~@{@t B t t D D ]@^@^@/@(@_@t :@!@!@;@<@*@*@[@                          ",
"+ + + %@                          }@} } } _.B |@:.} } } 1@2@t B t t t D D t t t _@t B 3@} } } 8.                                ",
"+ + + %@                          }@} } } 4@B t :.} } } 1@W._@_@t t t t D t t t _@_@t 3@} } } 8.                                ",
"# # # )                           }@} } } 5@6@6@7@} } } <.8@9@9@_@t t t D t t t 0@9@a@b@} } } 8.        c@@ @ @ .       x+@ @ @ ",
"                                  d@e@e@e@f@g@g@h@i@j@j@k@g@g@g@l@t t t D D t m@n@g@g@o@p@e@e@q@        r@+ + + s@      6++ + + ",
"                                          t@} } } 4+t D u@} } } v t t t t t D m@v@} } w@x@              r@+ + + s@      6++ + + ",
"                                          t@} } } 4+t t u } } } v t t t t t t R y@} } w@x@              r@+ + + s@      6++ + + ",
"%@%@%@c@      ) %@%@%@z@                  A@B@} } C@D@D@E@} } } F@G@H@J J D@H@I@J@} } K@5               7 . . . L@%@%@%@M@N@N@N@",
"+ + + %@      # + + + O@                  ; P@P@Q@} } } } } } } } } } } } } } } R@P@P@V                         j++ + + S@o o o ",
"+ + + %@      # + + + O@                        T@} } } } } } } } } } } } } } } |                               j++ + + S@o o o ",
"+ + + %@      # + + + O@                        T@} } } } } } } } } } } } } } } |                               j++ + + S@o o o ",
"U@U@U@V@r@r@r@z@W@W@W@#                         X@[@[@[@[@[@[@[@[@[@[@[@[@[@[@[@Y@              Z@r@r@r@r@r@r@r@`@U@U@U@ #o o o ",
"o o o .#+ + + @                                                                                 %@+ + + + + + + +#o o o o o o o ",
"o o o .#+ + + @                                                                                 %@+ + + + + + + +#o o o o o o o ",
"o o o .#+ + + @                                                                                 %@+ + + + + + + +#o o o o o o o ",
"@#@#@###s@s@s@.                               ; j+% % %                                         $#s@s@s@s@s@s@s@##@#@#@#@#@#@#@#",
"                                              < + + + + ;                                                                       ",
"                                              < + + + + ;                                                                       ",
"                                              < + + + + ;                                                                       ",
"                                              ; 8+%#%#%#                                                                        ",
"                                                                                                                                ",
"                                                                                                                                ",
"                                                                                                                                "};
