/* XPM */
static char * pexit_player_xpm[] = {
"64 64 529 2",
"  	c #65A847",
". 	c #60A249",
"+ 	c #407B52",
"@ 	c #458051",
"# 	c #66A847",
"$ 	c #67A747",
"% 	c #AF843B",
"& 	c #F3220B",
"* 	c #9F8E3C",
"= 	c #437E51",
"- 	c #478350",
"; 	c #B5823A",
"> 	c #FD0800",
", 	c #A48C3C",
"' 	c #63A548",
") 	c #65A747",
"! 	c #6DA647",
"~ 	c #989743",
"{ 	c #C97536",
"] 	c #FF1503",
"^ 	c #BD7E38",
"/ 	c #67A848",
"( 	c #5E9844",
"_ 	c #5B9442",
": 	c #468250",
"< 	c #5FA049",
"[ 	c #879D43",
"} 	c #FF2D0D",
"| 	c #FE2C0B",
"1 	c #6BA84C",
"2 	c #324F25",
"3 	c #000000",
"4 	c #2C4A1F",
"5 	c #314F24",
"6 	c #BF8139",
"7 	c #CC7833",
"8 	c #D37130",
"9 	c #FF6C10",
"0 	c #FFA013",
"a 	c #FF5F0F",
"b 	c #578F3E",
"c 	c #457331",
"d 	c #AE671A",
"e 	c #BF6409",
"f 	c #AB6417",
"g 	c #578F3F",
"h 	c #498550",
"i 	c #5FA149",
"j 	c #65A848",
"k 	c #EE4F24",
"l 	c #FF8B11",
"m 	c #FFD117",
"n 	c #FF7910",
"o 	c #487634",
"p 	c #E67A0D",
"q 	c #FF870F",
"r 	c #E2770C",
"s 	c #487535",
"t 	c #497535",
"u 	c #C17D36",
"v 	c #EC5224",
"w 	c #FC3413",
"x 	c #FF3911",
"y 	c #FF6B21",
"z 	c #FF7721",
"A 	c #FF8622",
"B 	c #FF5215",
"C 	c #5A9440",
"D 	c #2A421F",
"E 	c #A66118",
"F 	c #E57A0D",
"G 	c #FA850F",
"H 	c #FA840F",
"I 	c #A86218",
"J 	c #5B9541",
"K 	c #CF722F",
"L 	c #FF3C11",
"M 	c #FF7424",
"N 	c #FF4916",
"O 	c #67A24A",
"P 	c #5E9D43",
"Q 	c #52883A",
"R 	c #B66008",
"S 	c #B86109",
"T 	c #58923E",
"U 	c #CE7330",
"V 	c #FF3910",
"W 	c #FF3A11",
"X 	c #FF4514",
"Y 	c #FF7B23",
"Z 	c #FF8422",
"` 	c #FF5717",
" .	c #FD3A0F",
"..	c #385C40",
"+.	c #040304",
"@.	c #FF6C21",
"#.	c #FFA21F",
"$.	c #FF9621",
"%.	c #FD7323",
"&.	c #365E40",
"*.	c #040404",
"=.	c #6C402C",
"-.	c #980202",
";.	c #820505",
">.	c #3A6229",
",.	c #477831",
"'.	c #CE7E34",
").	c #FF5419",
"!.	c #FF7022",
"~.	c #FF7C23",
"{.	c #FFA51F",
"].	c #FFB81C",
"^.	c #FC7323",
"/.	c #6C1211",
"(.	c #9F0C0C",
"_.	c #9C2C0D",
":.	c #A95907",
"<.	c #D7720C",
"[.	c #D9730C",
"}.	c #50290A",
"|.	c #182812",
"1.	c #4F8039",
"2.	c #C8793D",
"3.	c #FF8522",
"4.	c #FC7424",
"5.	c #060201",
"6.	c #7F4104",
"7.	c #7A3E04",
"8.	c #131C0F",
"9.	c #65A648",
"0.	c #070807",
"a.	c #090E07",
"b.	c #4B7F34",
"c.	c #757C4F",
"d.	c #907C4C",
"e.	c #F17831",
"f.	c #F3802B",
"g.	c #A2B642",
"h.	c #A7B74B",
"i.	c #C59941",
"j.	c #FF9321",
"k.	c #F4BFA7",
"l.	c #F1ADA5",
"m.	c #E04222",
"n.	c #1C0C0B",
"o.	c #070707",
"p.	c #030303",
"q.	c #427E51",
"r.	c #427E52",
"s.	c #EC7934",
"t.	c #EF7E2D",
"u.	c #5E9E44",
"v.	c #497B35",
"w.	c #A86A39",
"x.	c #F9D8CF",
"y.	c #F7F2F2",
"z.	c #E6A3A3",
"A.	c #241A1A",
"B.	c #120707",
"C.	c #700404",
"D.	c #5C5F25",
"E.	c #4B7E34",
"F.	c #64A646",
"G.	c #64A747",
"H.	c #64A748",
"I.	c #E47C31",
"J.	c #F46F22",
"K.	c #E4732F",
"L.	c #8F9F83",
"M.	c #362A21",
"N.	c #9C4A1C",
"O.	c #F6D8CF",
"P.	c #F8F8F8",
"Q.	c #FDFDFD",
"R.	c #262626",
"S.	c #7F4511",
"T.	c #FF8F2A",
"U.	c #F9881E",
"V.	c #F4810E",
"W.	c #FD860F",
"X.	c #F8810F",
"Y.	c #FD810F",
"Z.	c #FC810F",
"`.	c #783B04",
" +	c #1D0808",
".+	c #B30606",
"++	c #780101",
"@+	c #62A345",
"#+	c #283F20",
"$+	c #000001",
"%+	c #5A2E03",
"&+	c #FF890D",
"*+	c #FD8711",
"=+	c #BB630B",
"-+	c #CDCDCD",
";+	c #818180",
">+	c #FFFEFD",
",+	c #B2B1B0",
"'+	c #941111",
")+	c #D50406",
"!+	c #C00305",
"~+	c #580404",
"{+	c #293E20",
"]+	c #5B2D02",
"^+	c #BE6409",
"/+	c #F7F7F7",
"(+	c #818181",
"_+	c #FFFFFF",
":+	c #B2B2B2",
"<+	c #941010",
"[+	c #D40404",
"}+	c #BF0303",
"|+	c #1E0808",
"1+	c #FBFBFB",
"2+	c #696969",
"3+	c #D2D2D2",
"4+	c #929292",
"5+	c #790E0E",
"6+	c #AF0B0B",
"7+	c #9E0B0B",
"8+	c #470404",
"9+	c #1D0707",
"0+	c #F2D8D8",
"a+	c #242020",
"b+	c #8A0202",
"c+	c #5D0101",
"d+	c #5C0001",
"e+	c #518738",
"f+	c #538A3A",
"g+	c #5A963F",
"h+	c #F3E4E4",
"i+	c #D41F1F",
"j+	c #220E0E",
"k+	c #1E0707",
"l+	c #B50303",
"m+	c #B30303",
"n+	c #010000",
"o+	c #3C6729",
"p+	c #ECC4C4",
"q+	c #D30505",
"r+	c #230E0E",
"s+	c #0B564F",
"t+	c #20B0A2",
"u+	c #13786E",
"v+	c #13776D",
"w+	c #0A524B",
"x+	c #E9B9B9",
"y+	c #116F66",
"z+	c #2BE0CE",
"A+	c #1B998D",
"B+	c #1B988C",
"C+	c #106B62",
"D+	c #64A648",
"E+	c #BD6409",
"F+	c #CCCCCC",
"G+	c #E8B7B7",
"H+	c #D20707",
"I+	c #230D0D",
"J+	c #106F65",
"K+	c #28E0CD",
"L+	c #16998C",
"M+	c #15988B",
"N+	c #0F6B61",
"O+	c #B30808",
"P+	c #B50505",
"Q+	c #B50404",
"R+	c #4B884F",
"S+	c #5C9D4A",
"T+	c #F8840F",
"U+	c #EF7F0E",
"V+	c #844B21",
"W+	c #2C1818",
"X+	c #2F0A0A",
"Y+	c #020101",
"Z+	c #78450F",
"`+	c #F18E27",
" @	c #F0861C",
".@	c #FC860F",
"+@	c #FC850F",
"@@	c #73420E",
"#@	c #290909",
"$@	c #2A0909",
"%@	c #6C0A0A",
"&@	c #884605",
"*@	c #660404",
"=@	c #3D602D",
"-@	c #12200B",
";@	c #4E2705",
">@	c #DC740C",
",@	c #944D06",
"'@	c #743C04",
")@	c #904B06",
"!@	c #EE7E0E",
"~@	c #8D4A06",
"{@	c #7F3106",
"]@	c #9B0505",
"^@	c #040303",
"/@	c #4C894F",
"(@	c #417C52",
"_@	c #2B4B1C",
":@	c #D36F0B",
"<@	c #D8720B",
"[@	c #DA730C",
"}@	c #D26F0B",
"|@	c #0A0A0A",
"1@	c #090909",
"2@	c #703A03",
"3@	c #B55F08",
"4@	c #E97B0D",
"5@	c #EC7D0D",
"6@	c #AA5A08",
"7@	c #AF5C08",
"8@	c #F1800E",
"9@	c #AA5B08",
"0@	c #ED7D0E",
"a@	c #743E0F",
"b@	c #2E4A22",
"c@	c #4B7837",
"d@	c #61A145",
"e@	c #A05406",
"f@	c #AD5B08",
"g@	c #AC5B07",
"h@	c #A35607",
"i@	c #5D9A42",
"j@	c #AC5A07",
"k@	c #FD870F",
"l@	c #5E3003",
"m@	c #5C2E03",
"n@	c #954D06",
"o@	c #F07F0E",
"p@	c #E3780D",
"q@	c #7B4004",
"r@	c #7A4005",
"s@	c #924C06",
"t@	c #613103",
"u@	c #FC870F",
"v@	c #060301",
"w@	c #6B3603",
"x@	c #6A3603",
"y@	c #1C0B01",
"z@	c #F9840F",
"A@	c #63A648",
"B@	c #64A647",
"C@	c #040204",
"D@	c #080708",
"E@	c #934E0B",
"F@	c #EA7C0D",
"G@	c #E77C0D",
"H@	c #FE8B10",
"I@	c #FD8F10",
"J@	c #7D4F06",
"K@	c #4A3904",
"L@	c #190A01",
"M@	c #E4790D",
"N@	c #954F0C",
"O@	c #172412",
"P@	c #253B1C",
"Q@	c #5E9C43",
"R@	c #61A144",
"S@	c #60A043",
"T@	c #548D3B",
"U@	c #0C0B0B",
"V@	c #F7A615",
"W@	c #F0BE1A",
"X@	c #EFBD1A",
"Y@	c #F7A715",
"Z@	c #4C7C37",
"`@	c #478351",
" #	c #59943E",
".#	c #0B0B0B",
"+#	c #50823A",
"@#	c #4B4B4B",
"##	c #626262",
"$#	c #343434",
"%#	c #9D5206",
"&#	c #A35506",
"*#	c #BC6309",
"=#	c #BA6209",
"-#	c #9C5206",
";#	c #060406",
">#	c #3F692D",
",#	c #5A9240",
"'#	c #427D51",
")#	c #488550",
"!#	c #757575",
"~#	c #999999",
"{#	c #545454",
"]#	c #F6830F",
"^#	c #F5830E",
"/#	c #61A245",
"(#	c #46814E",
"_#	c #5D9E4A",
":#	c #4D8A4F",
"<#	c #63A546",
"[#	c #5B9740",
"}#	c #446437",
"|#	c #363636",
"1#	c #1C1C1C",
"2#	c #FD9011",
"3#	c #FB9812",
"4#	c #F2B819",
"5#	c #F2B719",
"6#	c #325523",
"7#	c #4A864F",
"8#	c #3C6629",
"9#	c #F3B518",
"0#	c #F3B418",
"a#	c #385F28",
"b#	c #4A8750",
"c#	c #487A32",
"d#	c #315521",
"e#	c #1F3316",
"f#	c #000404",
"g#	c #EE7F0F",
"h#	c #F7830E",
"i#	c #F1BC1A",
"j#	c #F3B318",
"k#	c #ED7F0E",
"l#	c #0E1A0C",
"m#	c #101A0C",
"n#	c #3B622A",
"o#	c #427D52",
"p#	c #3F7A52",
"q#	c #488450",
"r#	c #61A448",
"s#	c #448051",
"t#	c #609F44",
"u#	c #030503",
"v#	c #19130E",
"w#	c #100601",
"x#	c #814204",
"y#	c #FF880F",
"z#	c #FE880F",
"A#	c #FD8D10",
"B#	c #7C3F04",
"C#	c #1C1E0F",
"D#	c #64A347",
"E#	c #64A547",
"F#	c #386353",
"G#	c #345854",
"H#	c #447F51",
"I#	c #010301",
"J#	c #010101",
"K#	c #0D0D0D",
"L#	c #FE8C10",
"M#	c #131B0F",
"N#	c #386354",
"O#	c #345754",
"P#	c #58923F",
"Q#	c #3F672D",
"R#	c #3E662D",
"S#	c #854811",
"T#	c #AC5A08",
"U#	c #FA880F",
"V#	c #C59C14",
"W#	c #F9880F",
"X#	c #A95807",
"Y#	c #85490F",
"Z#	c #558A3D",
"`#	c #558C3C",
" $	c #5A9540",
".$	c #407A52",
"+$	c #468251",
"@$	c #417D52",
"#$	c #458151",
"$$	c #375C26",
"%$	c #EE7F0E",
"&$	c #375E28",
"*$	c #4B874F",
"=$	c #376254",
"-$	c #365E54",
";$	c #458150",
">$	c #375C27",
",$	c #24462E",
"'$	c #386253",
")$	c #365D54",
"!$	c #9B5106",
"~$	c #934D09",
"{$	c #090B0C",
"]$	c #080A0B",
"^$	c #924D0C",
"/$	c #D4700B",
"($	c #E87B0D",
"_$	c #24452E",
":$	c #020202",
"<$	c #23452E",
"[$	c #355954",
"}$	c #375F54",
"|$	c #010100",
"1$	c #000101",
"2$	c #F5830F",
"3$	c #FE870F",
"4$	c #D7720B",
"5$	c #000100",
"6$	c #15220F",
"7$	c #4D8036",
"8$	c #4C8035",
"9$	c #192314",
"0$	c #F5820E",
"a$	c #609E44",
"b$	c #5F9D44",
"c$	c #442C15",
"d$	c #3F1F02",
"e$	c #341801",
"f$	c #2B1301",
"g$	c #3F1E01",
"h$	c #3F6B47",
"i$	c #3D744E",
"j$	c #5F9E45",
"k$	c #609F45",
"l$	c #598D3D",
"m$	c #2B1401",
"n$	c #351901",
"o$	c #422A0F",
"p$	c #609C44",
"q$	c #5F9E44",
"r$	c #191F16",
"s$	c #3B704B",
"t$	c #5A9640",
"u$	c #37522B",
"v$	c #304C24",
"w$	c #314C24",
"x$	c #304B24",
"y$	c #223A29",
"z$	c #213928",
"A$	c #3D734D",
"B$	c #5D9942",
"C$	c #355129",
"D$	c #65A748",
"      . + + + @                                                                                                                 ",
"      . + + + @         # $ $ #                                                                                                 ",
"      . + + + @         % & & *                                                                                                 ",
"      . = = = -         ; > > ,                                                         ' ' ' ' )                               ",
"                  ! ~ ~ { ] ] ^ ~ ~ /               ( _ _ _ _ _ _ _ _ _ _ _ _ (         : + + + <                               ",
"                  [ } } } } } } } | 1               2 3 3 3 3 3 3 3 3 3 3 3 3 4         : + + + <                               ",
"                  [ } } } } } } } | 1               5 3 3 3 3 3 3 3 3 3 3 3 3 4         : + + + <                               ",
"              6 7 8 } } 9 0 0 a } | 1         b c c d e e e e e e e e e e e e f c c g   h = = = i                               ",
"            j k } } } } l m m n } | 1         o 3 3 p q q q q q q q q q q q q r 3 3 s                                           ",
"            j k } } } } l m m n } | 1         o 3 3 p q q q q q q q q q q q q r 3 3 t                                           ",
"        u v v w } x y y z A A B } | 1   C D D E F F G q q q q q q q q q q q q H F F I D D J                                     ",
"        K } } } } L M M M M M N } | O P Q 3 3 R q q q q q q q q q q q q q q q q q q S 3 3 T                                     ",
"        U } } V W X M M Y Z Z ` W  ...3 +.3 3 R q q q q q q q q q q q q q q q q q q S 3 3 T                                     ",
"        U } } @.M M M M #.m m $.M %.&.3 *.3 3 R q q q q q q q q q q q q q q q q q q S 3 3 T                                     ",
"        U } } @.M M M M #.m m $.M %.=.-.;.3 3 R q q q q q q q q q q q q q q q q q q S 3 3 >.,.                                  ",
"        '.).).!.M ~.{.{.].m m $.M ^./.(._.:.:.<.q q q q q q q q q q q q q q q q q q [.:.:.}.|.1.)                               ",
"      . 2.M M M M 3.m m m m m $.M 4.5.3 6.q q q q q q q q q q q q q q q q q q q q q q q q 7.3 8.9.                              ",
"      . 2.M M M M 3.m m m m m $.M 4.5.3 6.q q q q q q q q q q q q q q q q q q q q q q q q 7.3 0.a.b.                            ",
"      . c.d.d.e.M f.g.h.i.j.j.k.l.m.n.3 6.q q q q q q q q q q q q q q q q q q q q q q q q 7.3 o.p.b.                            ",
"      . q.q.r.s.M t.u.v.w.M M x.y.z.A.3 6.q q q q q q q q q q q q q q q q q q q q q q q q 7.3 B.C.D.E.E.F.                      ",
"        G.G.H.I.J.K.L.M.N.J.J.O.P.Q.R.3 S.T.T.U.V.V.W.q q q q q q q q q q q q W.V.V.X.Y.Z.`.3  +.+++3 3 @+                      ",
"              #+$+%+&+*+=+$+3 -+P.Q.R.3 ;+>+>+,+3 3 p q q q q q q q q q q q q r 3 3 '+)+!+~+3  +.+++3 3 @+                      ",
"              {+3 ]+q q ^+3 3 -+/+Q.R.3 (+_+_+:+3 3 p q q q q q q q q q q q q r 3 3 <+[+}+~+3 |+.+++3 3 @+                      ",
"              {+3 ]+q q ^+3 3 -+/+1+R.3 2+3+3+4+3 3 p q q q q q q q q q q q q r 3 3 5+6+7+8+3 9+.+++3 3 @+                      ",
"              {+3 ]+q q ^+3 3 -+/+0+a+3 3 3 3 3 3 3 p q q q q q q q q q q q q r 3 3 3 3 3 3 3 9+.+b+c+d+e+f+g+                  ",
"              {+3 ]+q q ^+3 3 -+h+i+j+3 3 3 3 3 3 3 p q q q q q q q q q q q q r 3 3 3 3 3 3 3 k+.+l+l+m+n+3 o+                  ",
"              {+3 ]+q q ^+3 3 -+p+q+r+3 s+t+t+u+3 3 p q q q q q q q q q q q q r 3 3 v+t+t+w+3 k+.+l+l+m+n+3 o+                  ",
"              {+3 ]+q q ^+3 3 -+x+q+r+3 y+z+z+A+3 3 p q q q q q q q q q q q q r 3 3 B+z+z+C+3 k+.+l+l+m+n+3 o+  G.D+D+D+        ",
"              {+3 ]+q q E+3 3 F+G+H+I+3 J+K+K+L+3 3 p q q q q q q q q q q q q r 3 3 M+K+K+N+3 9+O+P+Q+m+n+3 o+  R++ + + S+      ",
"              {+3 ]+q q T+U+U+V+W+X+Y+3 Z+`+`+ @U+U+.@q q q q q q q q q q q q +@U+U+ @`+`+@@3 Y+#@$@%@m+n+3 o+  R++ + + S+      ",
"              {+3 ]+q q q q q &@3 3 3 3 6.q q q q q q q q q q q q q q q q q q q q q q q q 7.3 3 3 3 *@m+n+3 o+  R++ + + S+      ",
"              =@-@;@>@>@>@>@>@,@'@'@'@'@)@>@>@!@q q q q q q q q q q q q q q q q q q !@>@>@~@'@'@'@'@{@]@^@p.o+  /@(@(@(@S+      ",
"                _@p.3 3 3 3 3 :@q q q q <@3 3 R q q q q q q q q q q q q q q q q q q S 3 3 [@q q q q }@3 3 |@o+                  ",
"                _@p.3 3 3 3 3 :@q q q q <@3 3 R q q q q q q q q q q q q q q q q q q S 3 3 [@q q q q }@3 3 1@o+                  ",
"                _@p.3 3 2@3@3@4@q q q q 5@3@3@6@7@7@8@q q q q q q q q q q q q U+7@7@9@3@3@0@q q q q 4@3@3@a@b@c@d@              ",
"                _@p.3 3 e@q q q q q q q q q q f@3 3 p q q q q q q q q q q q q r 3 3 g@q q q q q q q q q q h@3 3 i@              ",
"                _@p.3 3 e@q q q q q q q q q q f@3 3 p q q q q q q q q q q q q r 3 3 j@q q q q q q q q q q h@3 3 i@              ",
"                _@p.3 3 e@q q q q k@l@m@n@q q o@p@p@q@m@m@m@m@m@m@m@m@m@m@m@m@r@p@p@o@q q s@m@t@G q q q q h@3 3 i@              ",
"                _@p.3 3 e@q q q q u@v@3 6.q q q q q w@3 3 3 3 3 3 3 3 3 3 3 3 x@q q q q q 7.3 y@z@q q q q h@3 3 i@              ",
"A@A@A@B@        _@C@D@o.E@F@F@F@F@G@v@3 6.q q H@I@I@J@K@K@K@K@K@K@K@K@K@K@K@K@J@I@I@H@q q 7.3 L@M@F@F@F@F@N@O@P@Q@              ",
"+ + + -         R@S@T@3 U@n+n+n+n+n+3 3 6.q q V@W@W@X@X@X@X@X@X@X@X@X@X@X@X@X@X@W@W@Y@q q 7.3 3 n+n+n+n+n+Z@@+                  ",
"+ + + `@             #3 .#3 3 3 3 3 3 3 6.q q V@W@W@W@W@W@W@W@W@W@W@W@W@W@W@W@W@W@W@Y@q q 7.3 3 3 3 3 3 3 +#                    ",
"+ + + `@             #3 1@@###$#3 3 %#&#*#q q V@W@W@W@W@W@W@W@W@W@W@W@W@W@W@W@W@W@W@Y@q q =#&#-#3 3 p.;#>#,#                    ",
"'#'#'#)#             #3 3 !#~#{#3 3 ]#q q q q V@W@W@W@W@W@W@W@W@W@W@W@W@W@W@W@W@W@W@Y@q q q q ^#3 3 p.3 /#A@A@A@)       G.A@A@A@",
") ) ) )              #3 3 !#~#{#3 3 ]#q q q q V@W@W@W@W@W@W@W@W@W@W@W@W@W@W@W@W@W@W@Y@q q q q ^#3 3 p.3 (#(@(@(@_#      :#(@(@(@",
"                    <#[#[#}#|#1#3 3 ]#q q q q 2#3#3#4#W@W@W@W@W@W@W@W@W@W@W@W@5#3#3#2#q q q q ^#3 3 6#[#7#+ + + _#      /@+ + + ",
"                          8#3 p.3 3 ]#q q q q q q q 9#W@W@W@W@W@W@W@W@W@W@W@W@0#q q q q q q q ^#3 3 a#  b#+ + + _#      /@+ + + ",
"D+D+D+G.        D+D+D+B@  c#d#e#*.f#g#h#z@q q q q q 0#i#i#W@W@W@W@W@W@W@W@i#i#j#q q q q q z@h#k#l#m#n#  R+o#o#o#S+D+D+D+R+p#p#p#",
"(@(@(@q#      r#(@(@(@s#      t#u#p.v#w#x#q q q q q y#z#A#W@W@W@W@W@W@W@W@A#z#y#q q q q q B#w#C#D#E#B@  G.G.G.G./@(@(@(@F#G#G#G#",
"+ + + `@      r#+ + + H#      R@I#J#K#3 6.q q q q q q q L#W@W@W@W@W@W@W@W@L#q q q q q q q 7.3 M#9.              R++ + + N#O#O#O#",
"+ + + `@      r#+ + + H#      P#Q#R#S#&@T#q q q q q q q U#V#V#V#V#V#V#V#V#W#q q q q q q q X#&@Y#Z#`# $          R++ + + N#O#O#O#",
".$.$.$+$G.G.G.. (@@$@$#$      $$3 3 ]#q q q q q q q q q 8@3 3 3 3 3 3 3 3 %$q q q q q q q q q ^#3 3 &$G.G.G.G.G.*$.$.$.$=$O#O#O#",
"G#G#G#-$(@(@(@;$G.G.G.G.      >$3 3 ]#q q q q q q q q q 8@3 3 3 3 3 3 3 3 %$q q q q q q q q q ^#3 3 ,$(@(@(@(@(@'$G#G#G#O#O#O#O#",
"O#O#O#)$+ + + @               >$3 3 ]#q p !$!$:@q q 7@!$~${$.#.#|@|@|@.#]$^$!$7@q q /$!$!$($q ^#3 3 _$+ + + + + =$O#O#O#O#O#O#O#",
"O#O#O#)$+ + + @               >$3 3 ]#q <@3 3 R q q w@3 *.:$3 3 3 3 3 3 J#|@3 x@q q S 3 3 [@q ^#3 3 <$+ + + + + =$O#O#O#O#O#O#O#",
"[$[$[$}$(@(@(@;$              >$|$1$2$3$4$3 3 R 3$3$x@5$6$7$b.b.b.b.b.b.8$9$|$x@3$3$S 3 3 [@3$0$1$J#,$(@(@(@(@(@F#[$[$[$[$[$[$[$",
"G.G.G.G.G.G.G.G.              d@a$b$c$d$e$3 3 f$d$g$h$i$j$                k$a$l$d$d$m$3 3 n$d$o$p$q$d@G.G.G.G.G.G.G.G.G.G.G.G.G.",
"                                  ) r$3 3 3 3 3 3 3 s$+ G.                    t$3 3 3 3 3 3 3 8.9.                              ",
"                                  ) u$v$w$v$v$x$y$z$A$+ G.                    B$w$w$v$v$v$v$w$C$D$                              ",
"                                              ) (@+ + + G.                                                                      ",
"                                                                                                                                ",
"                                                                                                                                ",
"                                                                                                                                ",
"                                                                                                                                "};
