/* XPM */
static char * pexit_xpm[] = {
"64 64 290 2",
"  	c #65A847",
". 	c #64A647",
"+ 	c #407B52",
"@ 	c #417D51",
"# 	c #64A747",
"$ 	c #437E51",
"% 	c #448051",
"& 	c #63A648",
"* 	c #63A548",
"= 	c #61A448",
"- 	c #468250",
"; 	c #427E51",
"> 	c #427D51",
", 	c #62A448",
"' 	c #417C52",
") 	c #417D52",
"! 	c #64A648",
"~ 	c #65A747",
"{ 	c #5B973F",
"] 	c #3A6428",
"^ 	c #60A044",
"/ 	c #558E3B",
"( 	c #000000",
"_ 	c #5E9C42",
": 	c #437F51",
"< 	c #427D52",
"[ 	c #63A647",
"} 	c #62A446",
"| 	c #61A144",
"1 	c #538738",
"2 	c #220000",
"3 	c #5A953F",
"4 	c #64A646",
"5 	c #305E3D",
"6 	c #690001",
"7 	c #D10404",
"8 	c #D00404",
"9 	c #390001",
"0 	c #56903C",
"a 	c #2F5E3E",
"b 	c #6A0101",
"c 	c #D40404",
"d 	c #D30404",
"e 	c #3A0000",
"f 	c #2D5939",
"g 	c #2B5638",
"h 	c #634029",
"i 	c #940202",
"j 	c #A60303",
"k 	c #9A0202",
"l 	c #5A6528",
"m 	c #467630",
"n 	c #4D8135",
"o 	c #62A347",
"p 	c #061208",
"q 	c #880202",
"r 	c #640101",
"s 	c #2B4B1C",
"t 	c #407B51",
"u 	c #000B09",
"v 	c #880000",
"w 	c #D40000",
"x 	c #630101",
"y 	c #294B1C",
"z 	c #66A947",
"A 	c #2A5336",
"B 	c #060F08",
"C 	c #0A0E08",
"D 	c #BF0404",
"E 	c #C80404",
"F 	c #DF9B9B",
"G 	c #FCF0F0",
"H 	c #F2CBCB",
"I 	c #B50303",
"J 	c #AA0303",
"K 	c #960704",
"L 	c #0B1606",
"M 	c #508638",
"N 	c #295135",
"O 	c #050000",
"P 	c #CB0404",
"Q 	c #E7A5A5",
"R 	c #FFFFFF",
"S 	c #F4D8D8",
"T 	c #BD0303",
"U 	c #9F0202",
"V 	c #4F8537",
"W 	c #62A345",
"X 	c #4E8437",
"Y 	c #32623F",
"Z 	c #5C3F28",
"` 	c #7C0202",
" .	c #7D0404",
"..	c #DE9090",
"+.	c #E49797",
"@.	c #F0C7C7",
"#.	c #F8E5E5",
"$.	c #D94C4C",
"%.	c #A70303",
"&.	c #690101",
"*.	c #57692A",
"=.	c #508738",
"-.	c #3D744C",
";.	c #960202",
">.	c #D50B0B",
",.	c #FCF4F4",
"'.	c #E18484",
").	c #6E0101",
"!.	c #12240A",
"~.	c #3B734C",
"{.	c #3C744C",
"].	c #5A9740",
"^.	c #558E3C",
"/.	c #528438",
"(.	c #5C0101",
"_.	c #A30303",
":.	c #D50909",
"<.	c #F4D1D1",
"[.	c #F6DBDB",
"}.	c #FAEAEA",
"|.	c #FDF5F5",
"1.	c #DE7070",
"2.	c #D20404",
"3.	c #CD0404",
"4.	c #BB0303",
"5.	c #7D0101",
"6.	c #4E0101",
"7.	c #4C1E08",
"8.	c #558F3C",
"9.	c #396126",
"0.	c #310000",
"a.	c #D40303",
"b.	c #CA0404",
"c.	c #AC0303",
"d.	c #DA5B5B",
"e.	c #E38F8F",
"f.	c #DF7878",
"g.	c #478350",
"h.	c #60A249",
"i.	c #468251",
"j.	c #B80303",
"k.	c #B90303",
"l.	c #1E0000",
"m.	c #900202",
"n.	c #B40303",
"o.	c #D70404",
"p.	c #D90404",
"q.	c #C40404",
"r.	c #B70303",
"s.	c #DA0404",
"t.	c #DE0404",
"u.	c #930202",
"v.	c #CF0404",
"w.	c #DD0404",
"x.	c #CC0404",
"y.	c #B30303",
"z.	c #B10303",
"A.	c #A80303",
"B.	c #0D0000",
"C.	c #160000",
"D.	c #190000",
"E.	c #D50404",
"F.	c #530101",
"G.	c #440101",
"H.	c #B60303",
"I.	c #6F0101",
"J.	c #120000",
"K.	c #100000",
"L.	c #3E0000",
"M.	c #030000",
"N.	c #970202",
"O.	c #9E0202",
"P.	c #978D8D",
"Q.	c #9D9D9D",
"R.	c #958E8E",
"S.	c #9E0000",
"T.	c #C70404",
"U.	c #870202",
"V.	c #500101",
"W.	c #E1E1E1",
"X.	c #FAFAFA",
"Y.	c #E3E3E3",
"Z.	c #890202",
"`.	c #910202",
" +	c #8A0202",
".+	c #447F51",
"++	c #458051",
"@+	c #5E9D42",
"#+	c #5B9740",
"$+	c #548D3B",
"%+	c #000100",
"&+	c #616161",
"*+	c #8A8A8A",
"=+	c #888888",
"-+	c #141414",
";+	c #2A0000",
">+	c #2D0000",
",+	c #3C3C3C",
"'+	c #525252",
")+	c #0F1F09",
"!+	c #5A963F",
"~+	c #60A043",
"{+	c #6C6C6C",
"]+	c #999999",
"^+	c #979797",
"/+	c #171717",
"(+	c #444444",
"_+	c #5C5C5C",
":+	c #989898",
"<+	c #838383",
"[+	c #848484",
"}+	c #646464",
"|+	c #464646",
"1+	c #878787",
"2+	c #9B9B9B",
"3+	c #F5F5F5",
"4+	c #C1C1C1",
"5+	c #E9E9E9",
"6+	c #62A548",
"7+	c #13250A",
"8+	c #61A348",
"9+	c #4A8750",
"0+	c #63A546",
"a+	c #548C3A",
"b+	c #538C3A",
"c+	c #4B6940",
"d+	c #4B4B4B",
"e+	c #4C4C4C",
"f+	c #B3B3B3",
"g+	c #B9B9B9",
"h+	c #D1D1D1",
"i+	c #7E7E7E",
"j+	c #808080",
"k+	c #DEDEDE",
"l+	c #CACACA",
"m+	c #A7A7A7",
"n+	c #4E763F",
"o+	c #61A349",
"p+	c #42702D",
"q+	c #030303",
"r+	c #929292",
"s+	c #C7C7C7",
"t+	c #FBFBFB",
"u+	c #5E5E5E",
"v+	c #4A4A4A",
"w+	c #B5B5B5",
"x+	c #458151",
"y+	c #487932",
"z+	c #233F17",
"A+	c #243F18",
"B+	c #848584",
"C+	c #BABABA",
"D+	c #EDEDED",
"E+	c #7D7D7D",
"F+	c #626262",
"G+	c #777777",
"H+	c #EEEEEE",
"I+	c #7A7C7A",
"J+	c #538A3A",
"K+	c #0C1A06",
"L+	c #ECECEC",
"M+	c #A5A5A5",
"N+	c #488550",
"O+	c #386153",
"P+	c #355A54",
"Q+	c #365E54",
"R+	c #345754",
"S+	c #4E8436",
"T+	c #4D8236",
"U+	c #527247",
"V+	c #949494",
"W+	c #C5C5C5",
"X+	c #4E763E",
"Y+	c #528A39",
"Z+	c #4C8135",
"`+	c #282828",
" @	c #355B54",
".@	c #365C54",
"+@	c #071004",
"@@	c #494B49",
"#@	c #282B28",
"$@	c #56913C",
"%@	c #376153",
"&@	c #345854",
"*@	c #5C9A41",
"=@	c #365D54",
"-@	c #43722E",
";@	c #61A244",
">@	c #60A149",
",@	c #61A149",
"      . + + + @ #                                                                                                               ",
"      . + + + @ #                                                                                                               ",
"      . + + + @ #                                                                                                               ",
"      . $ $ $ % #                                                                       & * * *                                 ",
"                                                                                        % + + + =                               ",
"                                                                                        % + + + =                               ",
"                                                                                        % + + + =                               ",
"                        & & & &                                                         - ; ; > ,                               ",
"                      # > ' ' ) !                                                         ~ ~ ~                                 ",
"                      # ) + + ' !             { ] ] ] ] ] ] ] ] ] ] ] ] ] ] ] ^                                                 ",
"                      # ) + + ' !             / ( ( ( ( ( ( ( ( ( ( ( ( ( ( ( _                                                 ",
"                      # : < < $ , [ } ^ | | | 1 2 2 2 2 2 2 2 2 2 2 2 2 2 2 2 3 | | | | 4                                       ",
"                        # # # [ $ ' 5 ( ( ( ( 6 7 7 7 7 7 7 7 7 7 7 7 7 7 7 8 9 ( ( ( ( 0                                       ",
"                              # < + a ( ( ( ( b c c c c c c c c c c c c c c d e ( ( ( ( 0                                       ",
"                              . f g h i i i i j c c c c c c c c c c c c c c c k i i i i l m n                                   ",
"        . . . .         . . . o p ( q c c c c c c c c c c c c c c c c c c c c c c c c c r ( s                                   ",
"      . ) ' ' $ #     # $ ) ) t u ( v w w w w w c c c c c c c c c c c c c c c c c c c c x ( y z z                               ",
"      . + + + @ #     # ) A B C D E F G G G G H c c c c c c c c c c c c c c c c c c c c I J K L L M                             ",
"      . + + + @ #     # ) N ( O P c Q R R R R S c c c c c c c c c c c c c c c c c c c c T I U ( ( V                             ",
"      . ' ' ' ; [ # W X Y Z `  ...+.@.R R R R #.+.+.$.c c c c c c c c c c c c c c c c c T I %.&.&.*.V =.                        ",
"        # # # * > ) -.( ( ;.c >.,.R R R R R R R R R '.c c c c c c c c c c c c c c c c c T I I I I ).( !.#                       ",
"              ! ' + ~.( ( ;.c >.,.R R R R R R R R R '.c c c c c c c c c c c c c c c c c T I I I I ).( !.#                       ",
"              ! ' + ~.( ( ;.c >.,.R R R R R R R R R '.c c c c c c c c c c c c c c c c c T I I I I ).( !.#                       ",
"              ! ) ' {.( ( ;.c >.,.R R R R R R R R R '.c c c c c c c c c c c c c c c c c T I I I I ).( !.#                       ",
"                ].^./.(.(._.c :.<.[.}.R R R R |.[.[.1.c c c c c c c c c c c c c c 2.3.3.4.I I I I 5.6.7.8.0 _                   ",
"                9.( 0.c c c c c a.a.Q R R R R S a.a.c c c c c c c c c c c c c c c b.I I I I I I I I I c.( ( m                   ",
"                9.( 0.d c c c c c c Q R R R R S c c c c c c c c c c c c c c c c c b.I I I I I I I I I c.( ( m                   ",
"                9.( 0.d c c c c c c d.e.e.e.e.f.c c c c c c c c c c c c c c c c c b.I I I I I I I I I c.( ( m   # # # #         ",
"                9.( 0.d c c c c c c c c c c c c c c c c c c c c c c c c c c c c c b.I I I I I I I I I c.( ( m   g.' ' ' h.      ",
"                9.( 0.d c c c c c c c c c c c c c c c c c c c c c c c c c c c 7 7 E I I I I I I I I I c.( ( m   i.+ + + h.      ",
"                9.( 0.d c c c c c c c c c c c c c c c c c c c c c c c c c c c j.I I I I I I I I I I I c.( ( m   i.+ + + h.      ",
"                9.( 0.d c c c c c c c c c c c c c c c c c c c c c c c c c c c k.I I I I I I I I I I I c.( ( m   - + + + h.      ",
"                9.( l.m.m.n.c c c c c c c c c c c c c c c c c o.p.p.p.p.8 q.q.r.I I I I I I I I I I I c.( ( m   # . . .         ",
"                9.( ( ( ( ;.c c c c c c c c c c c c c c c c c s.t.t.t.t.3.I I I I I I I I I I I I I I c.( ( m                   ",
"                9.( ( ( ( u.v.v.c c c c c 8 v.v.v.v.v.v.8 c c s.t.t.w.w.x.I I I I I I I I I I I I y.z.A.( ( m                   ",
"                9.( ( ( ( B.C.D.P c c c E.F.C.C.C.C.C.C.G.E.c c c c H.r.H.I I I I I I I I I I I I I.J.K.( ( m                   ",
"                9.( ( ( ( ( ( O P c c c E.6.( ( ( ( ( ( L.E.c c c d I I I I I I I I I I I I I I I ).( ( ( ( m                   ",
"                9.( ( ( ( ( ( M.N.O.O.O.O.P.Q.Q.Q.Q.Q.Q.R.S.O.r.E T.I I I I I I I j U.U.U.U.U.U.U.V.( ( ( ( m                   ",
"                9.( ( ( ( ( ( ( ( ( ( ( ( W.X.X.X.X.X.X.Y.( ( Z.I I I I I I I I I `.( ( ( ( ( ( ( ( ( ( ( ( m                   ",
"                9.( ( ( ( ( ( ( ( ( ( ( ( W.X.X.X.X.X.X.Y.( (  +I I I I I I I I I `.( ( ( ( ( ( ( ( ( ( ( ( m                   ",
".+.+.+++        @+#+$+%+( &+*+=+-+( ( ( ( W.X.X.X.X.X.X.Y.( ( ;+e e e e e e e e e >+( ( ( ( ,+*+*+'+( )+!+#+~+                  ",
"+ + + )             @+%+( {+]+^+/+( ( ( ( W.X.X.X.X.X.X.Y.( ( ( ( ( ( ( ( ( ( ( ( ( ( ( ( ( (+]+]+_+( !.#                       ",
"+ + + )             @+%+( {+]+:+<+[+}+( ( W.X.X.X.X.X.X.Y.( ( ( ( ( ( ( ( ( ( ( ( |+[+[+[+[+1+]+]+_+( !.#                       ",
"+ + + <             @+%+( {+]+2+3+X.4+( ( W.X.X.X.X.X.X.Y.( ( ( ( ( ( ( ( ( ( ( ( *+X.X.X.X.5+]+]+_+( !.#                       ",
", , , 6+            @+%+( {+]+2+3+X.4+( ( W.X.X.X.X.X.X.Y.( ( ( ( ( ( ( ( ( ( ( ( *+X.X.X.X.5+]+]+_+( 7+g..+.+: 8+      9+.+.+.+",
"                    0+a+b+c+d+e+f+g+4+h+h+1+i+i+i+i+i+i+j+h+h+h+h+h+h+h+h+h+h+h+h+k+X.X.l+g+m+d+d+n+b+/ +++ + + o+      g.+ + + ",
"                          p+( q+r+]+s+X.t+u+( ( ( ( ( ( v+t+X.X.X.X.X.X.X.X.X.X.X.X.X.X.w+]+1+( ( V     x++ + + o+      g.+ + + ",
"                          y+z+A+B+*+C+D+D+E+F+F+F+F+F+F+G+t+X.X.X.X.X.X.X.X.X.H+D+D+D+D+m+*+I+z+z+J+    x++ + + o+      g.+ + + ",
".+.+.+x+      # % .+.+x+#     4 K+( &+]+]+L+X.X.X.X.X.X.X.X.X.X.X.X.X.X.X.X.X.M+]+]+]+]+|+( s           6+, , , N+.+.+.+O+P+P+P+",
"+ + + )       ! ' + + ' #     4 K+( &+]+]+L+X.X.X.X.X.X.X.X.X.X.X.X.X.X.X.X.X.M+]+]+]+]+|+( s                   i.+ + + Q+R+R+R+",
"+ + + )       ! ' + + ' #     # S+T+U+u+u+V+Q.m+W+W+W+W+W+W+W+W+W+W+W+W+W+W+W+{+u+u+u+u+X+T+Y+                  i.+ + + Q+R+R+R+",
"+ + + )       ! ' + + ' #           Z+( ( ( ( d+]+]+]+]+]+]+]+]+]+]+]+]+]+]+]+`+( ( ( ( 0                       i.+ + + Q+R+R+R+",
" @ @ @.@% % % x+8+, , ,             n +@+@+@+@@@V+V+V+V+V+V+V+V+V+V+V+V+V+V+V+#@+@+@+@+@$@      N+% % % % % % % %@ @ @ @&@R+R+R+",
"R+R+R+&@+ + + @ #                   # 4 4 4 4 b+( ( ( ( ( ( ( ( ( ( ( ( ( ( ( *@4 4 4 4 ~       +++ + + + + + + =@R+R+R+R+R+R+R+",
"R+R+R+&@+ + + @ #                             / ( ( ( ( ( ( ( ( ( ( ( ( ( ( ( _                 +++ + + + + + + =@R+R+R+R+R+R+R+",
"R+R+R+&@+ + + @ #                             *@-@-@-@-@-@-@-@-@-@-@-@-@-@-@-@;@                +++ + + + + + + =@R+R+R+R+R+R+R+",
">@>@>@,@8+8+8+,                                 - x+x+x+#                                       , 8+8+8+8+8+8+8+,@>@>@>@>@>@>@>@",
"                                                @ + + + .                                                                       ",
"                                                @ + + + .                                                                       ",
"                                                @ + + + .                                                                       ",
"                                                8+8+8+8+                                                                        ",
"                                                                                                                                ",
"                                                                                                                                ",
"                                                                                                                                "};
