/* XPM */
static char * playerd_xpm[] = {
"64 64 392 2",
"  	c #65A847",
". 	c #61A348",
"+ 	c #407B52",
"@ 	c #437F51",
"# 	c #61A448",
"$ 	c #478450",
"% 	c #4A874F",
"& 	c #5FA149",
"* 	c #63A648",
"= 	c #4C894F",
"- 	c #5B9B4B",
"; 	c #487932",
"> 	c #416E2D",
", 	c #5F9E43",
"' 	c #61A144",
") 	c #305932",
"! 	c #285034",
"~ 	c #3A662F",
"{ 	c #497B33",
"] 	c #254118",
"^ 	c #000000",
"/ 	c #5A953F",
"( 	c #5D9C42",
"_ 	c #29481B",
": 	c #569140",
"< 	c #406C2C",
"[ 	c #406D2C",
"} 	c #8D280F",
"| 	c #9F0404",
"1 	c #3E452D",
"2 	c #274E33",
"3 	c #3E764D",
"4 	c #64A747",
"5 	c #61A244",
"6 	c #4E6828",
"7 	c #BD7000",
"8 	c #BE7000",
"9 	c #A66A0E",
"0 	c #4A7D33",
"a 	c #2C4D1D",
"b 	c #BC0606",
"c 	c #D60808",
"d 	c #D70808",
"e 	c #450101",
"f 	c #3C724A",
"g 	c #5E9D42",
"h 	c #010100",
"i 	c #462700",
"j 	c #FE9700",
"k 	c #FF9800",
"l 	c #DD8300",
"m 	c #305320",
"n 	c #497C33",
"o 	c #3F6C2B",
"p 	c #933012",
"q 	c #A70505",
"r 	c #CC0707",
"s 	c #3F7549",
"t 	c #62A448",
"u 	c #62A345",
"v 	c #496828",
"w 	c #C67500",
"x 	c #C77600",
"y 	c #CB7800",
"z 	c #F19000",
"A 	c #AD7011",
"B 	c #4B7E34",
"C 	c #2E501F",
"D 	c #BA0606",
"E 	c #5A9741",
"F 	c #417C52",
"G 	c #407C52",
"H 	c #64A647",
"I 	c #427E51",
"J 	c #60A043",
"K 	c #020401",
"L 	c #371E00",
"M 	c #FD9700",
"N 	c #DB8200",
"O 	c #325621",
"P 	c #427D51",
"Q 	c #599541",
"R 	c #407A52",
"S 	c #3F7952",
"T 	c #64A648",
"U 	c #447F51",
"V 	c #427D52",
"W 	c #3A6F4A",
"X 	c #355954",
"Y 	c #345854",
"Z 	c #417B52",
"` 	c #62A548",
" .	c #477831",
"..	c #3A6428",
"+.	c #912E11",
"@.	c #A80505",
"#.	c #CB0707",
"$.	c #AD0606",
"%.	c #37402A",
"&.	c #1C3230",
"*.	c #1C3130",
"=.	c #325350",
"-.	c #345754",
";.	c #63A546",
">.	c #3B6528",
",.	c #406126",
"'.	c #C87700",
").	c #FE9800",
"!.	c #F18F00",
"~.	c #A86D10",
"{.	c #305421",
"].	c #B60606",
"^.	c #380101",
"/.	c #30514E",
"(.	c #020601",
"_.	c #261400",
":.	c #D47D00",
"<.	c #345A23",
"[.	c #3F7A52",
"}.	c #61A245",
"|.	c #EBA428",
"1.	c #F1BC2E",
"2.	c #F1BD2F",
"3.	c #DC4B13",
"4.	c #40794F",
"5.	c #010301",
"6.	c #F29000",
"7.	c #995900",
"8.	c #A87246",
"9.	c #FFE1CC",
"0.	c #FFE0CC",
"a.	c #FFD4B3",
"b.	c #EF8F00",
"c.	c #CC7900",
"d.	c #A76D11",
"e.	c #3A6327",
"f.	c #F6CD33",
"g.	c #FFEB3B",
"h.	c #DF5F17",
"i.	c #3E774F",
"j.	c #010302",
"k.	c #EB8C00",
"l.	c #595959",
"m.	c #FFFFFF",
"n.	c #FFEEE0",
"o.	c #CE7A00",
"p.	c #396127",
"q.	c #F5C832",
"r.	c #F2C230",
"s.	c #F2C330",
"t.	c #DB4111",
"u.	c #31524E",
"v.	c #407952",
"w.	c #3F7950",
"x.	c #24492F",
"y.	c #23482E",
"z.	c #26462D",
"A.	c #D17C00",
"B.	c #D27D00",
"C.	c #333333",
"D.	c #9B9B9B",
"E.	c #9A9A9A",
"F.	c #AC9687",
"G.	c #FFEC3B",
"H.	c #DD5015",
"I.	c #5B9843",
"J.	c #62A248",
"K.	c #5FA046",
"L.	c #050B03",
"M.	c #110800",
"N.	c #623800",
"O.	c #050C03",
"P.	c #57923D",
"Q.	c #528A39",
"R.	c #6B4118",
"S.	c #770303",
"T.	c #897118",
"U.	c #8E831D",
"V.	c #EAD736",
"W.	c #8D4E11",
"X.	c #770102",
"Y.	c #517D34",
"Z.	c #63A445",
"`.	c #E0CF33",
" +	c #544D0F",
".+	c #5C9940",
"++	c #58923D",
"@+	c #538B3A",
"#+	c #233F17",
"$+	c #E09E17",
"%+	c #FFB41B",
"&+	c #FFB51B",
"*+	c #543904",
"=+	c #345923",
"-+	c #325420",
";+	c #CF7B01",
">+	c #D57E00",
",+	c #D57F00",
"'+	c #F99400",
")+	c #D47E00",
"!+	c #DF8500",
"~+	c #854D00",
"{+	c #6E5121",
"]+	c #477C3E",
"^+	c #59953F",
"/+	c #E08500",
"(+	c #FF9900",
"_+	c #543000",
":+	c #63A446",
"<+	c #091305",
"[+	c #070400",
"}+	c #F89400",
"|+	c #20412A",
"1+	c #56964C",
"2+	c #DF8400",
"3+	c #DA8200",
"4+	c #49531C",
"5+	c #2F5320",
"6+	c #64A746",
"7+	c #335822",
"8+	c #2E521F",
"9+	c #D17C01",
"0+	c #E58800",
"a+	c #814B00",
"b+	c #725E1B",
"c+	c #568F3C",
"d+	c #599540",
"e+	c #63A548",
"f+	c #442600",
"g+	c #64A646",
"h+	c #0D1B07",
"i+	c #F39100",
"j+	c #59953E",
"k+	c #59963E",
"l+	c #765614",
"m+	c #824B00",
"n+	c #EA8B00",
"o+	c #E38700",
"p+	c #42531D",
"q+	c #305420",
"r+	c #2F531F",
"s+	c #030802",
"t+	c #F59200",
"u+	c #834C00",
"v+	c #8A5000",
"w+	c #F08F00",
"x+	c #755917",
"y+	c #5C9A41",
"z+	c #080300",
"A+	c #371D00",
"B+	c #E28600",
"C+	c #FC9600",
"D+	c #724200",
"E+	c #734200",
"F+	c #825808",
"G+	c #FEDC33",
"H+	c #FFDD33",
"I+	c #FBDB33",
"J+	c #E2D033",
"K+	c #CBBB2E",
"L+	c #1E3613",
"M+	c #59943E",
"N+	c #5B9840",
"O+	c #EF8E00",
"P+	c #020100",
"Q+	c #46400B",
"R+	c #FEEA3B",
"S+	c #E5D335",
"T+	c #233E17",
"U+	c #508E4E",
"V+	c #468251",
"W+	c #634810",
"X+	c #6B3D00",
"Y+	c #6A3D00",
"Z+	c #EC8D00",
"`+	c #6C3E00",
" @	c #6F4906",
".@	c #E1CF33",
"+@	c #E3D134",
"@@	c #E5D334",
"#@	c #65A947",
"$@	c #1E3513",
"%@	c #E88A00",
"&@	c #F79300",
"*@	c #0E0500",
"=@	c #373207",
"-@	c #FDE93B",
";@	c #1D3513",
">@	c #5C9D4A",
",@	c #5A973F",
"'@	c #62430C",
")@	c #693C00",
"!@	c #110600",
"~@	c #E68900",
"{@	c #E58E04",
"]@	c #E7D535",
"^@	c #EFDC37",
"/@	c #685F13",
"(@	c #696013",
"_@	c #62631B",
":@	c #508638",
"<@	c #254318",
"[@	c #375E25",
"}@	c #4E8B4F",
"|@	c #59994B",
"1@	c #172B0F",
"2@	c #FF9E04",
"3@	c #FFEA3B",
"4@	c #EBD936",
"5@	c #1F3914",
"6@	c #58933E",
"7@	c #4F8C4E",
"8@	c #58984C",
"9@	c #53914D",
"0@	c #5D9B41",
"a@	c #0F1E08",
"b@	c #643900",
"c@	c #F0DD37",
"d@	c #6A6113",
"e@	c #6B6213",
"f@	c #625A11",
"g@	c #071204",
"h@	c #264419",
"i@	c #2F5220",
"j@	c #53924D",
"k@	c #52904E",
"l@	c #66A947",
"m@	c #11220A",
"n@	c #EDDA37",
"o@	c #5D9E4A",
"p@	c #59984C",
"q@	c #447A51",
"r@	c #396653",
"s@	c #437E51",
"t@	c #11210A",
"u@	c #F49100",
"v@	c #EDDB37",
"w@	c #518F4E",
"x@	c #3A6953",
"y@	c #0B1806",
"z@	c #4F2C00",
"A@	c #532F00",
"B@	c #553000",
"C@	c #533101",
"D@	c #534B0E",
"E@	c #534C0E",
"F@	c #515115",
"G@	c #5E9C42",
"H@	c #172C0E",
"I@	c #65A747",
"J@	c #3A6853",
"K@	c #3D6E52",
"L@	c #52904D",
"M@	c #57964C",
"N@	c #58974C",
"O@	c #060100",
"P@	c #0D0200",
"Q@	c #172B0E",
"R@	c #58984B",
"S@	c #375F54",
"T@	c #365C54",
"U@	c #010001",
"V@	c #629B3F",
"W@	c #FA9803",
"X@	c #F99802",
"Y@	c #609B41",
"Z@	c #0F1E09",
"`@	c #396753",
" #	c #60A044",
".#	c #6AA845",
"+#	c #FA9903",
"@#	c #67A846",
"##	c #6BA945",
"$#	c #FC9903",
"%#	c #FB9A03",
"&#	c #68A947",
"*#	c #0F1F09",
"=#	c #52884D",
"-#	c #528A4D",
";#	c #56954C",
">#	c #0A1506",
",#	c #0B1706",
"'#	c #0C1706",
")#	c #251400",
"!#	c #13220C",
"~#	c #5F9F43",
"{#	c #538D4D",
"]#	c #0A1505",
"^#	c #070F04",
"/#	c #62A244",
"(#	c #5E9E46",
"_#	c #54934D",
"      . + + + @                                                                                                                 ",
"      . + + + @                                                                                                                 ",
"      . + + + @                                                                                                                 ",
"      # $ $ $ %                                                                         . & & & *                               ",
"                                                                                        = + + + -                               ",
"                  ; > > ,                                                   ' > > > > > ) ! ! ! ~ > {                           ",
"                  ] ^ ^ /                                                   ( ^ ^ ^ ^ ^ ^ ^ ^ ^ ^ ^ _                           ",
"                  ] ^ ^ : . . .                                             ( ^ ^ ^ ^ ^ ^ ^ ^ ^ ^ ^ _                           ",
"            { < [ } | | 1 2 2 3 4                                     5 [ < 6 7 8 8 8 8 8 8 8 8 8 8 9 [ < 0                     ",
"            a ^ ^ b c d e ^ ^ f 4                                     g h ^ i j k k k k k k k k k k l ^ ^ m                     ",
"            a ^ ^ b c d e ^ ^ f 4                                     g h ^ i j k k k k k k k k k k l ^ ^ m                     ",
"      n o o p q q r c d e ^ ^ s . t t t         t t t t         u < o v w x y k k k k k k k k k k k z x x A o o B               ",
"      C ^ ^ D c c c c d e ^ ^ E F + + G H       I + + + t       J K ^ L M k k k k k k k k k k k k k k k k N ^ ^ O               ",
"      C ^ ^ D c c c c d e ^ ^ E F + + + H       P + + + t       J K ^ L M k k k k k k k k k k k k k k k k N ^ ^ O               ",
"      C ^ ^ D c c c c d e ^ ^ E F + + + H       P + + + t       J K ^ L M k k k k k k k k k k k k k k k k N ^ ^ O               ",
"      C ^ ^ D c c c c d e ^ ^ Q R S S R t * * T U V V V t       J K ^ L M k k k k k k k k k k k k k k k k N ^ ^ O               ",
"      C ^ ^ D c c c c d e ^ ^ W X Y Y Y Z F F F ` 4 4 4         J K ^ L M k k k k k k k k k k k k k k k k N ^ ^ O               ",
" .....+.@.@.#.c c c c c $.@.@.%.&.*.=.-.R + + + *         ;.>...,.x '.y ).k k k k k k k k k k k k k k k k !.'.'.~.....{         ",
"{.^ ^ ].c c c c c c c c c c d ^.^ ^ /.-.R + + + *         u (.^ _.M k k k k k k k k k k k k k k k k k k k k k k :.^ ^ <.        ",
"{.^ ^ ].c c c c c c c c c c d ^.^ ^ /.-.S R R [.` 4 4 4 4 }.(.^ _.M k k k k k k k k k k k k k k k k k k k k k k :.^ ^ <.        ",
"{.^ ^ ].c c |.1.2.3.c c c c d ^.^ ^ /.-.X X X Y Z V V V V 4.5.^ _.M k k k k k k k 6.7.7.8.9.0.a.k k k k k k k k b.c.c.d.e.e.B   ",
"{.^ ^ ].c c f.g.g.h.c c c c d ^.^ ^ /.-.-.-.-.-.S + + + + i.j.^ _.M k k k k k k k k.^ ^ l.m.m.n.k k k k k k k k k k k o.^ ^ p.  ",
"{.^ ^ ].c c f.g.g.h.c c c c d ^.^ ^ /.-.-.-.-.-.S + + + + i.j.^ _.M k k k k k k k k.^ ^ l.m.m.n.k k k k k k k k k k k o.^ ^ p.  ",
"{.^ ^ ].c c f.g.g.q.r.s.t.c d ^.^ ^ u.Y Y Y Y -.v.+ w.x.y.z.A.B.:.).k k k k k k k k.^ ^ C.D.E.F.k k k k k k k k k k k o.^ ^ p.  ",
"{.^ ^ ].c c f.g.g.g.g.G.H.c d ^.^ ^ I.J.J.J.J.J.t ` K.L.^ M.M k k k k k k k k k k k.^ ^ ^ ^ ^ N.k k k k k k k k k k k o.^ ^ p.  ",
"{.^ ^ ].c c f.g.g.g.g.G.H.c d ^.^ ^ g               u O.^ M.M k k k k k k k k k k k.^ ^ ^ ^ ^ N.k k k k k k k k k k k o.^ ^ p.  ",
"P.Q.Q.R.S.S.T.U.U.V.g.G.W.S.X.Y.Q.Q.Z.              u O.^ M.M k k k k k k k k k k k.^ ^ ^ ^ ^ N.k k k k k k k k k k k o.^ ^ p.  ",
"      C ^ ^ ^ ^ ^ `.g.G. +^ ^ .+                    u O.^ M.M k k k k k k k k k k k.^ ^ ^ ^ ^ N.k k k k k k k k k k k o.^ ^ p.  ",
"      C ^ ^ ^ ^ ^ `.g.G. +^ ^ .+                    u O.^ M.M k k k k k k k k k k k.^ ^ ^ ^ ^ N.k k k k k k k k k k k o.^ ^ p.  ",
"      ++@+@+#+^ ^ $+%+&+*+^ ^ .+              ;.=+O -+;+>+,+).k k k k k k k k k k '+)+>+>+>+>+N k k k k k k k k !+~+~+{+]+@+^+  ",
"            a ^ ^ /+k (+_+^ ^ .+              :+<+^ [+}+k k k k k k k k k k k k k k k k k k k k k k k k k k k k :.^ ^ |+1+      ",
"            a ^ ^ /+k (+_+^ ^ .+              :+<+^ [+}+k k k k k k k k k k k k k k k k k k k k k k k k k k k k :.^ ^ |+1+      ",
"            a ^ ^ /+k k 2+3+N 4+m 5+J   6+7+m 8+9+3+N M k k k k k k k k k k k k k k k k k k k k k k 0+a+a+a+a+a+b+c+c+d+e+      ",
"            a ^ ^ /+k k k k (+f+^ ^ g   g+h+^ ^ i+k k k k k k k k k k k k k k k k k k k k k k k k k l ^ ^ ^ ^ ^ O               ",
"            a ^ ^ /+k k k k (+f+^ ^ g   g+h+^ ^ i+k k k k k k k k k k k k k k k k k k k k k k k k k l ^ ^ ^ ^ ^ O               ",
"            .+j+k+l+m+m+n+k k 0+o+0+p+q+r+s+^ ^ i+k k k k k k k t+u+m+v+j k k k k w+m+m+m+m+m+m+m+m+x+j+j+j+j+j+y+              ",
"                  ] ^ ^ o+k k k k (+L ^ ^ ^ ^ ^ i+k k k k k k k 6.z+^ L M k k k k k.^ ^ ^ ^ ^ ^ ^ ^ _                           ",
"                  ] ^ ^ o+k k k k (+L ^ ^ ^ ^ ^ i+k k k k k k k 6.z+^ A+M k k k k k.^ ^ ^ ^ ^ ^ ^ ^ _                           ",
"                  ] ^ ^ o+k k k k (+L ^ ^ >+B+B+M k k k k k k k C+B+B+,+D+E+F+G+H+I+J+J+K+^ ^ L+j+M+N+                          ",
"                  ] ^ ^ o+k k k k (+L ^ ^ w+k k k k k k k k k k k k k O+P+^ Q+R+g.g.g.g.S+^ ^ T+                                ",
"= = = U+          ] ^ ^ o+k k k k (+L ^ ^ w+k k k k k k k k k k k k k O+h ^ Q+R+g.g.g.g.S+^ ^ T+                                ",
"+ + + V+          N+j+^+W+X+Y+Z+k (+L ^ ^ w+k k k k k k k }+`+X+X+X+X+ @.@+@@@g.g.g.g.g.S+^ ^ T+                                ",
"+ + + V+              #@$@^ ^ %@k (+L ^ ^ w+k k k k k k k &@*@^ ^ ^ ^ =@-@g.g.g.g.g.g.g.S+^ ^ T+                                ",
"+ + + V+              #@;@^ ^ %@k (+L ^ ^ w+k k k k k k k &@*@^ ^ ^ ^ =@-@g.g.g.g.g.g.g.S+^ ^ T+                                ",
"- - - >@                .+,@N+'@)@)@!@^ ^ w+k k k k k k k j ~@0+{@@@@@]@g.g.g.g.g.^@/@(@_@,@,@:@<@<@[@  1+}@}@}@>@      |@}@}@}@",
"                            #@1@^ ^ ^ ^ ^ w+k k k k k k k k k k 2@3@g.g.g.g.g.g.g.4@^ ^ 5@    6@^ ^ _   7@+ + + 8@      9@+ + + ",
"                            #@1@^ ^ ^ ^ ^ w+k k k k k k k k k k 2@3@g.g.g.g.g.g.g.4@^ ^ 5@    6@^ ^ _   7@+ + + 8@      9@+ + + ",
"                              0@y+0@a@^ ^ b@X+X+t+k k k k k k k 2@3@g.g.g.g.c@d@e@f@^ ^ g@h@h@i@y+y+g   7@+ + + 8@      9@+ + + ",
"U+U+U+j@      * U+U+U+k@          l@m@^ ^ ^ ^ ^ i+k k k k k k k 2@3@g.g.g.g.n@^ ^ ^ ^ ^ ^ ^ ^ T+        o@p@p@p@j@U+U+U+q@r@r@r@",
"+ + + V+      ` + + + s@          l@t@^ ^ ^ ^ ^ u@k k k k k k k 2@g.g.g.g.g.v@^ ^ ^ ^ ^ ^ ^ ^ T+                w@+ + + x@-.-.-.",
"+ + + V+      ` + + + s@            0@y+N+y@^ ^ z@A@B@'+k }+B@A@C@D@E@E@E@E@F@.+y+y+y+y+y+y+y+G@                w@+ + + x@-.-.-.",
"+ + + V+      ` + + + s@                g+h+^ ^ ^ ^ [+}+k &@*@^ ^ ^ ^ ^ ^ ^ H@I@                                w@+ + + x@-.-.-.",
"J@J@J@K@L@L@L@L@M@M@M@N@                g+h+^ ^ ^ ^ O@}+k &@P@^ ^ ^ ^ ^ ^ ^ Q@I@                R@L@L@L@L@L@L@L@q@J@J@J@S@-.-.-.",
"-.-.-.T@+ + + @                         g+h+^ U@M+0@V@W@k X@Y@0@6@5.^ Z@y+0@G@                  }@+ + + + + + + `@-.-.-.-.-.-.-.",
"-.-.-.T@+ + + @                         g+h+^ U@ #  .#+#k +#@#  J K ^ t@6+                      }@+ + + + + + + `@-.-.-.-.-.-.-.",
"-.-.-.T@+ + + @                         g+h+^ U@' l@##$#(+%#&#l@ #^ ^ *#6+                      }@+ + + + + + + `@-.-.-.-.-.-.-.",
"=#=#=#-#;#;#;#M@                        g+h+^ ^ >#,#'#)#_.)#,#,#!#g , ~#                        - ;#;#;#;#;#;#;#{#=#=#=#=#=#=#=#",
"                                        g+h+^ ^ ^ ^ ^ ^ ^ ^ ^ ^ ,#6+                                                            ",
"                                        g+]#^ ^ ^ ^ ^ ^ ^ ^ ^ ^ ^#6+                                                            ",
"                                          u }./#4.i.i.i.(#}.}.}.u                                                               ",
"                                                _#j@j@9@*                                                                       ",
"                                                                                                                                ",
"                                                                                                                                ",
"                                                                                                                                "};
