/* XPM */
static char * player_g_xpm[] = {
"64 64 356 2",
"  	c #65A847",
". 	c #60A149",
"+ 	c #407B52",
"@ 	c #468150",
"# 	c #60A249",
"$ 	c #437E51",
"% 	c #488450",
"& 	c #63A548",
"* 	c #62A548",
"= 	c #56903C",
"- 	c #497C33",
"; 	c #5D9C42",
"> 	c #61A244",
", 	c #4D8236",
"' 	c #416E2C",
") 	c #000000",
"! 	c #548D3B",
"~ 	c #5D9A41",
"{ 	c #203915",
"] 	c #3F6C2D",
"^ 	c #458151",
"/ 	c #437331",
"( 	c #2B5638",
"_ 	c #875E22",
": 	c #B56A00",
"< 	c #6A6E27",
"[ 	c #467630",
"} 	c #5E9C42",
"| 	c #62A345",
"1 	c #4B6C2C",
"2 	c #970404",
"3 	c #8A270E",
"4 	c #4C8035",
"5 	c #BD6F00",
"6 	c #FF9800",
"7 	c #824B00",
"8 	c #5F9E43",
"9 	c #010200",
"0 	c #390101",
"a 	c #D60808",
"b 	c #C10707",
"c 	c #29481B",
"d 	c #42712E",
"e 	c #93701D",
"f 	c #C47400",
"g 	c #E58800",
"h 	c #D37D00",
"i 	c #676C26",
"j 	c #5E9D42",
"k 	c #CD0707",
"l 	c #A40505",
"m 	c #932F11",
"n 	c #4B7F34",
"o 	c #487931",
"p 	c #B96D00",
"q 	c #744200",
"r 	c #59943E",
"s 	c #BE0606",
"t 	c #2D4E1E",
"u 	c #467732",
"v 	c #417C52",
"w 	c #2D583A",
"x 	c #346643",
"y 	c #21432B",
"z 	c #8E5E1C",
"A 	c #D07B00",
"B 	c #E88A00",
"C 	c #D98100",
"D 	c #5F5E1F",
"E 	c #365D25",
"F 	c #63A445",
"G 	c #365E25",
"H 	c #3D5722",
"I 	c #AD0605",
"J 	c #AE0505",
"K 	c #B10606",
"L 	c #CE0707",
"M 	c #962A10",
"N 	c #457530",
"O 	c #2E5B3C",
"P 	c #AD6600",
"Q 	c #663B00",
"R 	c #5C9A41",
"S 	c #020401",
"T 	c #280101",
"U 	c #D50808",
"V 	c #B70606",
"W 	c #315521",
"X 	c #305D3B",
"Y 	c #8F6416",
"Z 	c #EA8B00",
"` 	c #FFCCA5",
" .	c #FFE8D9",
"..	c #B79680",
"+.	c #844D00",
"@.	c #DE8400",
"#.	c #DB4712",
"$.	c #F5C832",
"%.	c #EFB12C",
"&.	c #4E8336",
"*.	c #A46000",
"=.	c #FFDCC2",
"-.	c #FFFFFF",
";.	c #979797",
">.	c #DD5515",
",.	c #FFEB3B",
"'.	c #F7D134",
").	c #B9865F",
"!.	c #7F7F7F",
"~.	c #484848",
"{.	c #E98B00",
"].	c #E68800",
"^.	c #5B561B",
"/.	c #2E511E",
"(.	c #5F9F43",
"_.	c #DA3B10",
":.	c #F7D334",
"<.	c #F7D335",
"[.	c #F8D635",
"}.	c #9F5D00",
"|.	c #5B3300",
"1.	c #DB4211",
"2.	c #010301",
"3.	c #280000",
"4.	c #D70808",
"5.	c #DC4211",
"6.	c #FFEC3B",
"7.	c #F8D134",
"8.	c #64A747",
"9.	c #5B9840",
"0.	c #578F3C",
"a.	c #4F0302",
"b.	c #4F0101",
"c.	c #68400C",
"d.	c #E9D736",
"e.	c #5F5710",
"f.	c #5C4C0E",
"g.	c #4F461B",
"h.	c #453F0B",
"i.	c #FEEB3B",
"j.	c #E6D435",
"k.	c #4E8236",
"l.	c #A56000",
"m.	c #FF9900",
"n.	c #5A3200",
"o.	c #66A947",
"p.	c #45400B",
"q.	c #2C4E1E",
"r.	c #4E762F",
"s.	c #3B2000",
"t.	c #B36900",
"u.	c #F49100",
"v.	c #ED8D00",
"w.	c #F99400",
"x.	c #EF8E00",
"y.	c #EB8C00",
"z.	c #43330A",
"A.	c #13240B",
"B.	c #14250C",
"C.	c #60A043",
"D.	c #452901",
"E.	c #FEA109",
"F.	c #FFA109",
"G.	c #E69107",
"H.	c #152F1D",
"I.	c #3B724C",
"J.	c #5B9944",
"K.	c #4A7D34",
"L.	c #FE9700",
"M.	c #442600",
"N.	c #010101",
"O.	c #452700",
"P.	c #FE9800",
"Q.	c #E68900",
"R.	c #183320",
"S.	c #4A7D33",
"T.	c #AE6600",
"U.	c #412400",
"V.	c #000001",
"W.	c #65A947",
"X.	c #422500",
"Y.	c #183420",
"Z.	c #63A546",
"`.	c #61A144",
" +	c #46742F",
".+	c #070500",
"++	c #BD7000",
"@+	c #F59200",
"#+	c #F49200",
"$+	c #F19000",
"%+	c #2F1B02",
"&+	c #030502",
"*+	c #070E05",
"=+	c #050A03",
"-+	c #311D02",
";+	c #F39100",
">+	c #F69200",
",+	c #FC9600",
"'+	c #2F1900",
")+	c #030702",
"!+	c #62A245",
"~+	c #311A00",
"{+	c #000301",
"]+	c #301A00",
"^+	c #65A747",
"/+	c #3C6D2C",
"(+	c #D27D00",
"_+	c #704100",
":+	c #E28600",
"<+	c #1D0100",
"[+	c #FB9500",
"}+	c #FD9700",
"|+	c #EA8C00",
"1+	c #0D3714",
"2+	c #1F1000",
"3+	c #010000",
"4+	c #42702E",
"5+	c #0B1806",
"6+	c #040B02",
"7+	c #1E1B03",
"8+	c #292505",
"9+	c #D48305",
"0+	c #FF9D05",
"a+	c #F79501",
"b+	c #744300",
"c+	c #291500",
"d+	c #E38700",
"e+	c #281400",
"f+	c #3C6729",
"g+	c #C9B92D",
"h+	c #FEEA3B",
"i+	c #80761A",
"j+	c #DA8200",
"k+	c #F89400",
"l+	c #1C0D00",
"m+	c #63A648",
"n+	c #64A647",
"o+	c #3D672A",
"p+	c #C9BA2D",
"q+	c #82771A",
"r+	c #DB8200",
"s+	c #F99500",
"t+	c #90841E",
"u+	c #49430C",
"v+	c #CD7B02",
"w+	c #EC8C00",
"x+	c #D98201",
"y+	c #192D0F",
"z+	c #182D0F",
"A+	c #2A491C",
"B+	c #478350",
"C+	c #736A17",
"D+	c #F08F00",
"E+	c #142B0E",
"F+	c #746A17",
"G+	c #030100",
"H+	c #172B0E",
"I+	c #427D51",
"J+	c #498550",
"K+	c #5A973F",
"L+	c #244017",
"M+	c #B6AA2B",
"N+	c #F7E339",
"O+	c #91851F",
"P+	c #645B12",
"Q+	c #644003",
"R+	c #643900",
"S+	c #633900",
"T+	c #1B0D00",
"U+	c #D98101",
"V+	c #243F17",
"W+	c #2C4D1E",
"X+	c #63A647",
"Y+	c #396227",
"Z+	c #D3C22F",
"`+	c #FFAA13",
" @	c #0F1E08",
".@	c #448051",
"+@	c #61A448",
"@@	c #447F51",
"#@	c #61A348",
"$@	c #478351",
"%@	c #2E501E",
"&@	c #477831",
"*@	c #58943E",
"=@	c #315621",
"-@	c #B9AB29",
";@	c #E1CF33",
">@	c #F6E339",
",@	c #E18500",
"'@	c #DC8200",
")@	c #170A00",
"!@	c #2D4F1E",
"~@	c #64A648",
"{@	c #D6C531",
"]@	c #081204",
"^@	c #64A646",
"/@	c #427D52",
"(@	c #468151",
"_@	c #3F7A52",
":@	c #61A349",
"<@	c #365E54",
"[@	c #345854",
"}@	c #458051",
"|@	c #4A7C33",
"1@	c #335822",
"2@	c #B4A92B",
"3@	c #D5C430",
"4@	c #D58E0E",
"5@	c #D57E00",
"6@	c #D88000",
"7@	c #261300",
"8@	c #010201",
"9@	c #345A23",
"0@	c #64A746",
"a@	c #365D54",
"b@	c #345754",
"c@	c #305320",
"d@	c #407A52",
"e@	c #478250",
"f@	c #417D52",
"g@	c #468251",
"h@	c #365F54",
"i@	c #468250",
"j@	c #386026",
"k@	c #14270C",
"l@	c #315421",
"m@	c #376026",
"n@	c #EB9007",
"o@	c #5A6523",
"p@	c #375F25",
"q@	c #050C03",
"r@	c #365C54",
"s@	c #2A4A1C",
"t@	c #64A847",
"u@	c #EF9A14",
"v@	c #7CA742",
"w@	c #0E1C08",
"x@	c #355C54",
"y@	c #355954",
"z@	c #376054",
"A@	c #3E692A",
"B@	c #467731",
"C@	c #4C7F34",
"D@	c #4B7F35",
"E@	c #B6750D",
"F@	c #C37300",
"G@	c #C27300",
"H@	c #5D7E30",
"I@	c #4B7E34",
"J@	c #081304",
"K@	c #407C52",
"L@	c #417D51",
"M@	c #254118",
"N@	c #44732F",
"O@	c #44742F",
"      . + + + @                                                                                                                 ",
"      . + + + @                                                                                                                 ",
"      . + + + @                                                                                                                 ",
"      # $ $ $ %                                                                         & & & &                                 ",
"                                                                                        $ + + + *                               ",
"                          = - - - - - - - - - - - ;                                     $ + + + *     > - - ,                   ",
"                          ' ) ) ) ) ) ) ) ) ) ) ) !                                     $ + + + *     ~ ) ) {                   ",
"                        & ] ) ) ) ) ) ) ) ) ) ) ) !                                     ^ $ $ $ *     ~ ) ) {                   ",
"                    = / ( _ : : : : : : : : : : : < [ [ }                                       | [ [ 1 2 2 3 [ [ 4             ",
"                    [ ) ) 5 6 6 6 6 6 6 6 6 6 6 6 7 ) ) =                                       8 9 ) 0 a a b ) ) c             ",
"                    [ ) ) 5 6 6 6 6 6 6 6 6 6 6 6 7 ) ) =                                       8 9 ) 0 a a b ) ) c             ",
"              = d d e f f g 6 6 6 6 6 6 6 6 6 6 6 h f f i d d j                                 8 9 ) 0 a a k l l m d d n       ",
"              o ) ) p 6 6 6 6 6 6 6 6 6 6 6 6 6 6 6 6 6 q ) ) r                                 8 9 ) 0 a a a a a s ) ) t       ",
"              o ) ) p 6 6 6 6 6 6 6 6 6 6 6 6 6 6 6 6 6 q ) ) r                                 8 9 ) 0 a a a a a s ) ) t       ",
"              o ) ) p 6 6 6 6 6 6 6 6 6 6 6 6 6 6 6 6 6 q ) ) r                                 8 9 ) 0 a a a a a s ) ) t       ",
"        & & & u ) ) p 6 6 6 6 6 6 6 6 6 6 6 6 6 6 6 6 6 q ) ) r                                 8 9 ) 0 a a a a a s ) ) t       ",
"      # v v v w ) ) p 6 6 6 6 6 6 6 6 6 6 6 6 6 6 6 6 6 q ) ) r                                 8 9 ) 0 a a a a a s ) ) t       ",
"      . x y y z A A B 6 6 6 6 6 6 6 6 6 6 6 6 6 6 6 6 6 C A A D E E 8                     F G E H I J K a a a a a L J J M E E N ",
"      . O ) ) P 6 6 6 6 6 6 6 6 6 6 6 6 6 6 6 6 6 6 6 6 6 6 6 Q ) ) R                     | S ) T U a a a a a a a a a a V ) ) W ",
"      # X ) ) P 6 6 6 6 6 6 6 6 6 6 6 6 6 6 6 6 6 6 6 6 6 6 6 Q ) ) R                     | S ) T U a a a a a a a a a a V ) ) W ",
"  ! W W Y C C Z 6 6 6 6 6 6 6 6 `  . ...+.+.@.6 6 6 6 6 6 6 6 Q ) ) R                     | S ) T U a a a a #.$.$.%.a a V ) ) W ",
"  &.) ) *.6 6 6 6 6 6 6 6 6 6 6 =.-.-.;.) ) h 6 6 6 6 6 6 6 6 Q ) ) R                     | S ) T U a a a a >.,.,.'.a a V ) ) W ",
"  &.) ) *.6 6 6 6 6 6 6 6 6 6 6 =.-.-.;.) ) h 6 6 6 6 6 6 6 6 Q ) ) R                     | S ) T U a a a a >.,.,.'.a a V ) ) W ",
"  &.) ) *.6 6 6 6 6 6 6 6 6 6 6 ).!.!.~.) ) h 6 6 6 6 6 6 6 6 {.g ].^././.(.              | S ) T U a _.:.<.[.,.,.'.a a V ) ) W ",
"  &.) ) *.6 6 6 6 6 6 6 6 6 6 6 }.) ) ) ) ) h 6 6 6 6 6 6 6 6 6 6 6 |.) ) }               | S ) T U a 1.,.,.,.,.,.'.a a V ) ) W ",
"  &.) ) *.6 6 6 6 6 6 6 6 6 6 6 }.) ) ) ) ) h 6 6 6 6 6 6 6 6 6 6 6 |.) ) }               | 2.) 3.U 4.5.,.,.,.6.6.7.4.4.V ) ) W ",
"  &.) ) *.6 6 6 6 6 6 6 6 6 6 6 }.) ) ) ) ) h 6 6 6 6 6 6 6 6 6 6 6 |.) ) }               8.9.9.0.a.b.c.,.,.d.e.e.f.b.b.g.9.9.} ",
"  &.) ) *.6 6 6 6 6 6 6 6 6 6 6 }.) ) ) ) ) h 6 6 6 6 6 6 6 6 6 6 6 |.) ) }                     8 9 ) h.i.,.j.) ) ) ) ) t       ",
"  k.) ) l.m.m.6 6 6 6 6 6 6 6 6 }.) ) ) ) ) h 6 6 6 6 6 6 6 6 6 6 6 n.) ) j o.o.                8 9 ) p.i.6.j.) ) ) ) ) q.      ",
"  | ; ; r.s.s.t.6 6 6 6 6 6 6 6 u.v.v.v.v.v.w.6 6 6 6 6 6 6 6 6 6 6 x.v.y.z.A.B.C.              8 9 ) D.E.F.G.) ) H.I.I.J.      ",
"        K.) ) P 6 6 6 6 6 6 6 6 6 6 6 6 6 6 6 6 6 6 6 6 6 6 6 6 6 6 6 6 L.M.) N.(.              8 9 ) O.P.6 Q.) ) R.+ + #       ",
"        S.) ) T.m.m.m.m.m.6 6 6 6 6 6 6 6 6 6 6 6 6 6 6 6 6 6 6 6 6 6 6 L.U.) V.C.o.W.      o.o.(.) ) X.P.6 Q.) ) Y.v v #       ",
"        Z.`.`. +.+.+.+.+.+++6 6 6 6 6 6 6 6 6 6 6 6 6 6 6 6 6 6 6 6 6 6 6 @+#+$+%+&+*+|   | =+&+-+;+#+>+6 6 Q.) ) c             ",
"              o ) ) ) ) ) 5 6 6 6 6 6 6 6 6 6 6 6 6 6 6 6 6 6 6 6 6 6 6 6 6 6 ,+'+) )+!+  | S ) ~+L.6 6 6 6 Q.) ) c             ",
"              o ) ) ) ) ) 5 6 6 6 6 6 6 6 6 6 6 6 6 6 6 6 6 6 6 6 6 6 6 6 6 6 ,+'+) )+!+  | {+) ]+L.6 6 6 6 Q.) ) c             ",
"              ^+8.8.8.8.8./+) ) ) ) ) ) ) ) (+6 6 6 6 6 _+) ) :+6 6 6 6 6 6 6 ,+'+) ) ) ) <+[+}+}+6 6 |+) ) 1+8.8.8.            ",
"                          ' ) ) ) ) ) ) ) ) h 6 6 6 6 6 q ) ) :+6 6 6 6 6 6 6 ,+'+) ) ) ) 2+,+6 6 6 6 y.3+) {                   ",
"                          4+5+5+6+) ) 7+8+8+9+0+0+a+u.u.b+c+c+d+6 6 6 6 6 6 6 ,+U.c+e+3+) 2+,+6 6 6 6 y.3+) {                   ",
"                            ^+^+f+) ) g+h+h+,.,.,.i+) ) j+L.L.6 6 6 6 6 6 6 6 6 L.L.k+l+) 2+,+6 6 6 6 y.3+) {                   ",
"m+m+m+n+                        o+) ) p+,.,.,.,.,.q+) ) r+6 6 6 6 6 6 6 6 6 6 6 6 6 s+l+) 2+,+6 6 6 6 y.3+) {                   ",
"+ + + %                         o+) ) p+,.,.,.,.,.t+u+u+v+w+w+w+w+w+,+6 6 6 6 6 6 6 s+l+) 2+,+6 }+w+w+x+y+z+A+                  ",
"+ + + B+                        o+) ) p+,.,.,.,.,.,.,.,.C+) ) ) ) ) Z 6 6 6 6 6 6 6 s+l+) 2+,+6 D+) ) E+^+                      ",
"+ + + B+                        o+) ) p+,.,.,.,.,.,.,.,.F+) ) ) ) ) Z 6 6 6 6 6 6 6 s+l+) 2+,+6 D+G+) H+                        ",
"I+I+I+J+                  8 K+K+o+L+L+M+j.j.N+,.,.,.,.,.O+P+P+Q+R+S+v.6 6 6 6 6 6 6 s+l+) T+d+Q.U+V+L+W+X+m+m+m+        n+m+m+m+",
"^+^+^+^+                  ' ) ) n     Y+) ) Z+,.,.,.,.,.,.,.,.`+6 6 6 6 6 6 6 6 6 6 s+l+) ) ) )  @8.    .@v v + +@      B+v v v ",
"                          ' ) ) n     Y+) ) Z+,.,.,.,.,.,.,.,.`+6 6 6 6 6 6 6 6 6 6 s+l+) ) ) )  @8.    @@+ + + #@      $@+ + + ",
"                          S.%@%@&@*@*@=@) ) -@;@;@>@,.,.,.,.,.`+6 6 6 6 6 6 6 P.:+,@'@)@) S !@%@W ^+    @@+ + + #@      $@+ + + ",
"~@~@~@8.        ~@~@~@n+        o+) ) ) ) ) ) ) ) {@,.,.,.,.,.`+6 6 6 6 6 6 6 ,+'+) ) ) ) ]@^@          ^ /@/@/@# ~@~@~@(@_@_@_@",
"v v v %       :@v v v ^         o+) ) ) ) ) ) ) ) {@,.,.,.,.,.`+6 6 6 6 6 6 6 ,+'+) ) ) ) ]@^@          8.8.8.8.(@v v v <@[@[@[@",
"+ + + B+      :@+ + + }@        |@1@1@1@1@1@1@1@1@2@3@3@3@3@3@4@5@5@k+6 6 6@5@(+7@) 8@W 1@9@0@                  ^ + + + a@b@b@b@",
"+ + + B+      :@+ + + }@                          c@) ) ) ) ) ) ) ) Z 6 L.M.) ) ) ) )+!+                        ^ + + + a@b@b@b@",
"d@d@d@e@8.8.8.# v f@f@g@                          c@) ) ) ) ) ) ) ) Z 6 L.M.) ) ) ) )+!+        8.8.8.8.8.8.8.8.@@d@d@d@a@b@b@b@",
"[@[@[@h@v v v i@8.8.8.8.                          [ j@j@k@) ) l@j@m@n@6 P.o@j@p@q@) )+!+        .@v v v v v v v r@[@[@[@b@b@b@b@",
"b@b@b@<@+ + + @                                         s@) ) r   t@u@6 P.v@  ^@w@) )+!+        @@+ + + + + + + x@b@b@b@b@b@b@b@",
"b@b@b@<@+ + + @                                         s@) ) r   t@u@6 P.v@  ^@w@) )+!+        @@+ + + + + + + x@b@b@b@b@b@b@b@",
"y@y@y@z@v v v i@                                8.8.8.8.&@A@A@B@C@D@E@F@G@H@C@I@J@) )+!+        .@v v v v v v v a@y@y@y@y@y@y@y@",
"8.8.8.8.8.8.8.8.                              m+v K@K@L@      M@) ) ) ) ) ) ) ) ) ) )+!+        8.8.8.8.8.8.8.8.8.8.8.8.8.8.8.8.",
"                                              m++ + + v       M@) ) ) ) ) ) ) ) ) ) )+!+                                        ",
"                                              m++ + + v       |@N@N@N@N@N@N@N@N@N@N@O@Z.                                        ",
"                                              m+K@+ + f@                                                                        ",
"                                                                                                                                ",
"                                                                                                                                ",
"                                                                                                                                ",
"                                                                                                                                "};
