/* XPM */
static char * pplayerf_xpm[] = {
"64 64 473 2",
"  	c #65A847",
". 	c #62A448",
"+ 	c #407B52",
"@ 	c #437F51",
"# 	c #468251",
"$ 	c #498550",
"% 	c #78A146",
"& 	c #B97C34",
"* 	c #B87C34",
"= 	c #97923E",
"- 	c #61A348",
"; 	c #61A349",
"> 	c #64A747",
", 	c #8E9743",
"' 	c #FB0500",
") 	c #FB0800",
"! 	c #C37531",
"~ 	c #458151",
"{ 	c #60A249",
"] 	c #8F9743",
"^ 	c #FF0500",
"/ 	c #FF0800",
"( 	c #C77531",
"_ 	c #D76D30",
": 	c #E0642C",
"< 	c #E65B29",
"[ 	c #FF260A",
"} 	c #F04A1F",
"| 	c #8C9D46",
"1 	c #50803A",
"2 	c #385A29",
"3 	c #3B5E2C",
"4 	c #65A748",
"5 	c #66A847",
"6 	c #F4441B",
"7 	c #FF2D0D",
"8 	c #989845",
"9 	c #436E31",
"0 	c #000000",
"a 	c #111C0C",
"b 	c #65A747",
"c 	c #448051",
"d 	c #67A848",
"e 	c #68A849",
"f 	c #69A849",
"g 	c #FF2E0D",
"h 	c #FF310D",
"i 	c #FF2F0D",
"j 	c #65A848",
"k 	c #66A849",
"l 	c #456D31",
"m 	c #0A0400",
"n 	c #181E0C",
"o 	c #66A749",
"p 	c #66A848",
"q 	c #D37032",
"r 	c #FD2C0D",
"s 	c #FF600F",
"t 	c #FFD017",
"u 	c #FFCF17",
"v 	c #FF9913",
"w 	c #558B3D",
"x 	c #C86909",
"y 	c #FB850F",
"z 	c #F1800E",
"A 	c #020000",
"B 	c #3C602C",
"C 	c #D47032",
"D 	c #FF610F",
"E 	c #FFD217",
"F 	c #FFD117",
"G 	c #FF9A13",
"H 	c #CB6B0A",
"I 	c #FF870F",
"J 	c #F4810E",
"K 	c #050200",
"L 	c #3C612C",
"M 	c #7EA045",
"N 	c #A5903F",
"O 	c #E1612B",
"P 	c #FF4815",
"Q 	c #FF4A16",
"R 	c #FF6617",
"S 	c #FFBA1C",
"T 	c #FFB91C",
"U 	c #FF8915",
"V 	c #979645",
"W 	c #62A548",
"X 	c #62A348",
"Y 	c #568C3E",
"Z 	c #677935",
"` 	c #884705",
" .	c #DA730C",
"..	c #F7830E",
"+.	c #894705",
"@.	c #7A6226",
"#.	c #5F9D44",
"$.	c #AB8B3B",
"%.	c #FF6F22",
"&.	c #FF7424",
"*.	c #FF591B",
"=.	c #87724E",
"-.	c #407750",
";.	c #010301",
">.	c #8E4A05",
",.	c #D26F0B",
"'.	c #4F8338",
").	c #87734E",
"!.	c #407850",
"~.	c #FF4E17",
"{.	c #FF5D1C",
"].	c #FF7223",
"^.	c #FF8123",
"/.	c #FFB01D",
"(.	c #FF8E1C",
"_.	c #87784F",
":.	c #FF601D",
"<.	c #FF8B22",
"[.	c #FFAB1E",
"}.	c #867B50",
"|.	c #3F7952",
"1.	c #3F7550",
"2.	c #FF2C0D",
"3.	c #FF7324",
"4.	c #FF8A22",
"5.	c #826251",
"6.	c #345754",
"7.	c #345652",
"8.	c #000001",
"9.	c #4E8338",
"0.	c #65A947",
"a.	c #AB983F",
"b.	c #FF6D22",
"c.	c #FFC11A",
"d.	c #FFC819",
"e.	c #FFCA18",
"f.	c #7A3E21",
"g.	c #182120",
"h.	c #2B261F",
"i.	c #E97C0E",
"j.	c #EA7C0E",
"k.	c #F8840F",
"l.	c #935617",
"m.	c #25371C",
"n.	c #25371D",
"o.	c #629F46",
"p.	c #AB9A3F",
"q.	c #FFCA19",
"r.	c #77350D",
"s.	c #230F01",
"t.	c #FE870F",
"u.	c #9D5106",
"v.	c #010201",
"w.	c #609E45",
"x.	c #A19C42",
"y.	c #EB7A32",
"z.	c #F7772B",
"A.	c #EFC429",
"B.	c #F0CC2E",
"C.	c #F1CA28",
"D.	c #FFC519",
"E.	c #FCAA3F",
"F.	c #F07C41",
"G.	c #EB7334",
"H.	c #6E3517",
"I.	c #D48D3A",
"J.	c #FE7424",
"K.	c #627C50",
"L.	c #488058",
"M.	c #7C7E50",
"N.	c #FF7423",
"O.	c #FABEAD",
"P.	c #EBEDEC",
"Q.	c #708381",
"R.	c #202F2E",
"S.	c #677F55",
"T.	c #477F58",
"U.	c #7D7E50",
"V.	c #FBBFAE",
"W.	c #F6F6F6",
"X.	c #5D7472",
"Y.	c #20302E",
"Z.	c #A17D35",
"`.	c #BB5418",
" +	c #BB5419",
".+	c #CB9D70",
"++	c #C19560",
"@+	c #AB7C3E",
"#+	c #D8B6AD",
"$+	c #F4F4F4",
"%+	c #446360",
"&+	c #1A1008",
"*+	c #BF743A",
"=+	c #BF753A",
"-+	c #BF7032",
";+	c #BB6209",
">+	c #E77A0D",
",+	c #FA840F",
"'+	c #C0761F",
")+	c #C99832",
"!+	c #7B5D1D",
"~+	c #41682F",
"{+	c #010100",
"]+	c #EF7F0E",
"^+	c #DE760D",
"/+	c #ABABAB",
"(+	c #58726D",
"_+	c #21312E",
":+	c #0B1110",
"<+	c #365B53",
"[+	c #365B54",
"}+	c #314D47",
"|+	c #3E682B",
"1+	c #41692F",
"2+	c #F7F7F7",
"3+	c #A1C496",
"4+	c #355428",
"5+	c #131D0E",
"6+	c #64A647",
"7+	c #558A3E",
"8+	c #BED4B7",
"9+	c #365529",
"0+	c #060B04",
"a+	c #395C2A",
"b+	c #2F4B22",
"c+	c #1F3216",
"d+	c #213717",
"e+	c #ACCAA2",
"f+	c #355528",
"g+	c #619E45",
"h+	c #F1F3F0",
"i+	c #6EAC53",
"j+	c #365528",
"k+	c #010F0D",
"l+	c #010A09",
"m+	c #000504",
"n+	c #000505",
"o+	c #E2EADF",
"p+	c #031E1B",
"q+	c #2ADBC9",
"r+	c #2ADBCA",
"s+	c #21B2A4",
"t+	c #147A70",
"u+	c #17877C",
"v+	c #488550",
"w+	c #417C52",
"x+	c #5EA049",
"y+	c #E3EBE0",
"z+	c #031E1C",
"A+	c #2BDFCD",
"B+	c #2BE0CE",
"C+	c #22B6A7",
"D+	c #147D73",
"E+	c #178A7E",
"F+	c #488450",
"G+	c #E77B0D",
"H+	c #844505",
"I+	c #854505",
"J+	c #A4938B",
"K+	c #B5BEB1",
"L+	c #578D3F",
"M+	c #2C4622",
"N+	c #101A15",
"O+	c #8DC8A9",
"P+	c #8DC9A9",
"Q+	c #8AA889",
"R+	c #D9730B",
"S+	c #F7830F",
"T+	c #854605",
"U+	c #877D5E",
"V+	c #557B67",
"W+	c #010101",
"X+	c #53853C",
"Y+	c #599240",
"Z+	c #B65F08",
"`+	c #27421B",
" @	c #478450",
".@	c #407A52",
"+@	c #58903F",
"@@	c #4C7F36",
"#@	c #9B5811",
"$@	c #A45507",
"%@	c #AB5908",
"&@	c #C06509",
"*@	c #B76109",
"=@	c #C3670A",
"-@	c #E4790D",
";@	c #AD5B08",
">@	c #AE6313",
",@	c #416D2D",
"'@	c #416D2E",
")@	c #1C3013",
"!@	c #B05C08",
"~@	c #F2810E",
"{@	c #050100",
"]@	c #C36709",
"^@	c #E67A0D",
"/@	c #497535",
"(@	c #AF5B08",
"_@	c #FF880F",
":@	c #D3700B",
"<@	c #487535",
"[@	c #5B2F03",
"}@	c #F3810E",
"|@	c #FD860F",
"1@	c #BF660A",
"2@	c #452202",
"3@	c #CF6D0A",
"4@	c #F5820E",
"5@	c #462302",
"6@	c #8B4906",
"7@	c #F6820E",
"8@	c #AA6219",
"9@	c #2B3E22",
"0@	c #643303",
"a@	c #CE6D0B",
"b@	c #8D4905",
"c@	c #B86108",
"d@	c #568E3D",
"e@	c #EB7D0E",
"f@	c #D5710B",
"g@	c #5C2E02",
"h@	c #BD6409",
"i@	c #DD750C",
"j@	c #5B2E02",
"k@	c #9F5407",
"l@	c #1C3014",
"m@	c #773E04",
"n@	c #9D5206",
"o@	c #210E01",
"p@	c #FC860F",
"q@	c #EA7D0E",
"r@	c #1D3114",
"s@	c #497635",
"t@	c #457132",
"u@	c #606B2F",
"v@	c #BC6308",
"w@	c #BB6309",
"x@	c #562C02",
"y@	c #FD9011",
"z@	c #F9A114",
"A@	c #C28910",
"B@	c #9B7A0E",
"C@	c #9E7B0E",
"D@	c #F7A014",
"E@	c #FB9913",
"F@	c #AC5B08",
"G@	c #8E6825",
"H@	c #457032",
"I@	c #5D9A42",
"J@	c #5D9643",
"K@	c #FA9B13",
"L@	c #F0BE1A",
"M@	c #F4AF17",
"N@	c #5C9643",
"O@	c #63A446",
"P@	c #578F3D",
"Q@	c #57903E",
"R@	c #3E672C",
"S@	c #B96209",
"T@	c #D8720B",
"U@	c #D9730C",
"V@	c #3B1D01",
"W@	c #203716",
"X@	c #447B4B",
"Y@	c #60A149",
"Z@	c #4C894F",
"`@	c #497A34",
" #	c #DB740C",
".#	c #472302",
"+#	c #478350",
"@#	c #5FA149",
"##	c #FA9A13",
"$#	c #F0BD1A",
"%#	c #F5AE17",
"&#	c #FE880F",
"*#	c #F6AC16",
"=#	c #F1BB19",
"-#	c #FE890F",
";#	c #498650",
">#	c #63A548",
",#	c #4B874F",
"'#	c #396453",
")#	c #365C54",
"!#	c #437E51",
"~#	c #53883B",
"{#	c #385A28",
"]#	c #375A28",
"^#	c #B56818",
"/#	c #D16E0B",
"(#	c #F0BC1A",
"_#	c #F3B318",
":#	c #F5AD17",
"<#	c #E2780D",
"[#	c #D06E0B",
"}#	c #4F5A27",
"|#	c #426A30",
"1#	c #375F54",
"2#	c #F2B919",
"3#	c #FB9712",
"4#	c #427E51",
"5#	c #376054",
"6#	c #386153",
"7#	c #60A248",
"8#	c #568F3D",
"9#	c #426E2F",
"0#	c #A8651C",
"a#	c #C26609",
"b#	c #A67B0E",
"c#	c #9C7B0E",
"d#	c #E7820F",
"e#	c #D8720C",
"f#	c #BF6509",
"g#	c #536B2E",
"h#	c #355E33",
"i#	c #37623A",
"j#	c #468151",
"k#	c #345854",
"l#	c #355C54",
"m#	c #497A33",
"n#	c #472402",
"o#	c #18301F",
"p#	c #365E54",
"q#	c #462200",
"r#	c #355B54",
"s#	c #4B2502",
"t#	c #4A2502",
"u#	c #9B5106",
"v#	c #A75807",
"w#	c #609644",
"x#	c #609D46",
"y#	c #609C46",
"z#	c #525828",
"A#	c #532A03",
"B#	c #D6710C",
"C#	c #C96A0A",
"D#	c #183020",
"E#	c #5F9E49",
"F#	c #61A249",
"G#	c #61A046",
"H#	c #375829",
"I#	c #253F1C",
"J#	c #5F9F49",
"K#	c #4E8137",
"L#	c #253E1A",
"M#	c #C76D12",
"N#	c #DA740C",
"O#	c #040100",
"P#	c #804204",
"Q#	c #8F5219",
"R#	c #172D1E",
"S#	c #182E1E",
"T#	c #62A146",
"U#	c #416730",
"V#	c #313E19",
"W#	c #E3790D",
"X#	c #E57A0D",
"Y#	c #4A4319",
"Z#	c #365827",
"`#	c #365428",
" $	c #346342",
".$	c #407C52",
"+$	c #63A647",
"@$	c #62A246",
"#$	c #030502",
"$$	c #619E46",
"%$	c #346242",
"&$	c #62A245",
"*$	c #50803B",
"=$	c #456F32",
"-$	c #579142",
";$	c #63A546",
">$	c #63A347",
"      . + + + @                                                                                                                 ",
"      . + + + @                                                                                                                 ",
"      . + + + @                                                                                                                 ",
"      . # # # $       % & * =                                                           - ; ; ; >                               ",
"                      , ' ) !                                                           ~ + + + {                               ",
"                      ] ^ / (                                                           ~ + + + {                               ",
"                  _ : < [ [ } : : |               1 2 2 2 2 2 2 2 2 2 2 2 2 3 4         ~ + + + {                               ",
"                5 6 7 7 7 7 7 7 7 8               9 0 0 0 0 0 0 0 0 0 0 0 0 a b         $ c c c ;                               ",
"            d e f 6 7 g h h i 7 7 8         j k k l m m m m m m m m m m m m n o k p                                             ",
"            q r r 7 7 s t u v 7 7 8         w 0 0 x y y y y y y y y y y y y z A 0 B                                             ",
"            C 7 7 7 7 D E F G 7 7 8         w 0 0 H I I I I I I I I I I I I J K 0 L                                             ",
"      M N N O 7 7 P Q R S T U 7 7 V W X Y Y Z ` `  .I I I I I I I I I I I I ..+.` @.Y Y #.                                      ",
"      $.7 7 7 7 7 %.&.&.&.&.*.7 7 =.+ -.;.0 >.I I I I I I I I I I I I I I I I I I ,.0 0 '.                                      ",
"      $.7 7 7 7 7 %.&.&.&.&.*.7 7 ).+ !.;.0 >.I I I I I I I I I I I I I I I I I I ,.0 0 '.                                      ",
"      $.7 7 ~.{.{.].&.^././.(.{.{._.+ !.;.0 >.I I I I I I I I I I I I I I I I I I ,.0 0 '.                                      ",
"      $.7 7 :.&.&.&.&.<.F F [.&.&.}.|.1.;.0 >.I I I I I I I I I I I I I I I I I I ,.0 0 '.                                      ",
"      $.2.2.:.&.&.3.3.4.F F [.&.&.5.6.7.8.0 >.I I I I I I I I I I I I I I I I I I ,.0 0 9.0.0.                                  ",
"      a.b.b.].&.&.c.d.e.F F [.&.&.f.g.h.i.j.z I I I I I I I I I I I I I I I I I I k.j.j.l.m.n.o.                                ",
"      p.&.&.&.&.&.q.F F F F [.&.&.r.0 s.t.I I I I I I I I I I I I I I I I I I I I I I I u.0 v.w.                                ",
"      x.y.y.z.&.&.A.B.C.D.D.E.F.G.H.0 s.t.I I I I I I I I I I I I I I I I I I I I I I I u.0 v.w.                                ",
"        b b I.&.J.K.L.M.N.&.O.P.Q.R.0 s.t.I I I I I I I I I I I I I I I I I I I I I I I u.0 v.w.                                ",
"            I.&.&.S.T.U.N.&.V.W.X.Y.0 s.t.I I I I I I I I I I I I I I I I I I I I I I I u.0 v.w.                                ",
"            Z.`. +.+++@+`.`.#+$+%+Y.0 &+*+=+-+;+;+>+I I I I I I I I I I I I ,+;+;+'+)+)+!+0 v.w.                                ",
"            ~+0 {+]+I ^+0 0 /+W.(+_+0 :+<+[+}+0 0 H I I I I I I I I I I I I J K 0 L     |+0 v.w.                                ",
"            1+0 {+]+I ^+0 0 /+2+3+4+0 5+6+> 7+0 0 H I I I I I I I I I I I I J K 0 L     |+0 v.w.                                ",
"            1+0 {+]+I ^+0 0 /+2+8+9+0 0+a+a+b+0 0 H I I I I I I I I I I I I J K 0 c+a+a+d+0 v.w.                                ",
"            1+0 {+]+I ^+0 0 /+2+e+f+0 0 0 0 0 0 0 H I I I I I I I I I I I I J K 0 0 0 0 0 0 v.g+                                ",
"            1+0 {+]+I ^+0 0 /+h+i+j+0 0 k+k+l+0 0 H I I I I I I I I I I I I J K 0 m+k+k+n+0 v.g+                                ",
"            1+0 {+]+I ^+0 0 /+o+  9+0 p+q+r+s+0 0 H I I I I I I I I I I I I J K 0 t+r+r+u+0 v.g+                v+w+w+w+x+      ",
"            1+0 {+]+I ^+0 0 /+y+  f+0 z+A+B+C+0 0 H I I I I I I I I I I I I J K 0 D+B+B+E+0 v.g+                F++ + + x+      ",
"            1+0 {+]+I G+H+I+J+K+L+M+0 N+O+P+Q+I+I+R+I I I I I I I I I I I I S+T+I+U+P+P+V+0 W+X+L+Y+            F++ + + x+      ",
"            1+0 {+]+I I I I Z+0 0 0 0 s.t.I I I I I I I I I I I I I I I I I I I I I I I u.0 0 0 0 `+             @.@.@.@x+      ",
"            1+0 {+]+I I I I Z+0 0 0 0 s.t.I I I I I I I I I I I I I I I I I I I I I I I u.0 0 0 0 `+            > > > >         ",
"            +@@@@@#@$@$@$@$@%@&@&@&@&@*@$@$@=@I I I I I I I I I I I I I I I I I I -@$@$@;@&@&@&@&@>@,@'@Y                       ",
"                  )@0 0 0 0 !@I I I I ~@{@0 >.I I I I I I I I I I I I I I I I I I ,.0 0 ]@I I I I ^@0 0 /@                      ",
"                  )@0 0 0 0 (@I I I I ~@0 0 >._@_@I I I I I I I I I I I I I I _@_@:@0 0 ]@I I I I ^@0 0 <@                      ",
"                  )@0 [@i.i.}@I I I I |@i.i.1@2@2@3@I I I I I I I I I I I I 4@5@2@6@i.i.7@I I I I y i.i.8@9@9@Y+                ",
"                  )@0 0@_@I I I I I I I I I a@0 0 H I I I I I I I I I I I I J K 0 b@I I I I I I I I I I c@0 0 d@                ",
"                  )@0 0@_@I I I I e@^@>+I I f@g@g@h@^@^@^@^@^@^@^@^@^@^@^@^@i@j@g@k@I I ]+^@^@y I I I I c@0 0 d@                ",
"                  l@0 0@_@I I I I m@0 s.t.I I I I n@0 0 0 0 0 0 0 0 0 0 0 0 o@p@I I I I u.0 0 q@I I I I c@0 0 d@                ",
"@ @ @ F+          r@0 0@_@I I I I m@0 s.t.I I I I n@0 0 0 0 0 0 0 0 0 0 0 0 o@p@I I I I u.0 0 q@I I I I c@0 0 d@                ",
"+ + + ~           s@t@u@v@w@w@w@w@x@0 s.t.I y@z@z@A@B@B@B@B@B@B@B@B@B@B@B@B@C@D@z@E@I I u.0 0 F@w@w@w@w@G@H@t@I@                ",
"+ + + ~               J@0 0 0 0 0 0 0 s.t.I K@L@L@L@L@L@L@L@L@L@L@L@L@L@L@L@L@L@L@M@I I u.0 0 0 0 0 0 0 /@                      ",
"+ + + ~               N@0 0 0 0 0 0 0 s.t.I K@L@L@L@L@L@L@L@L@L@L@L@L@L@L@L@L@L@L@M@I I u.0 0 0 0 0 0 0 /@                      ",
". . . .               O@P@Q@R@0 0 S@T@U@I I K@L@L@L@L@L@L@L@L@L@L@L@L@L@L@L@L@L@L@M@I I >+T@T@V@0 W@Q@Q@X@c c c Y@      Z@c c c ",
"                            `@0 0  #I I I I K@L@L@L@L@L@L@L@L@L@L@L@L@L@L@L@L@L@L@M@I I I I t..#0 `+    +#+ + + @#      $ + + + ",
"                            `@0 0  #I I I I ##$#$#L@L@L@L@L@L@L@L@L@L@L@L@L@L@$#$#%#I I I I t..#0 `+    +#+ + + @#      $ + + + ",
"                            `@0 0  #I I I I I &#&#*#L@L@L@L@L@L@L@L@L@L@L@L@=#-#&#_@I I I I t..#0 `+    +#+ + + @#      ;#+ + + ",
"~ ~ ~ ;#      >#~ ~ ~ +#    `@0 0  #I I I I I I I *#L@L@L@L@L@L@L@L@L@L@L@L@=#_@I I I I I I t..#0 `+    . - - - ,#~ ~ ~ '#)#)#)#",
"+ + + ~       W + + + !#    ~#{#]#^#/#,.I I I I I z@M@M@(#L@L@L@L@L@L@L@_#M@:#I I I I I <#/#[#}#{#|#            F++ + + 1#6.6.6.",
"+ + + ~       W + + + !#          4+0 s.t.I I I I I I I 2#L@L@L@L@L@L@L@3#I I I I I I I u.0 W+g+                F++ + + 1#6.6.6.",
"+ + + ~       >#+ + + 4#          f+0 s.t.I I I I I I I 2#L@L@L@L@L@L@L@3#I I I I I I I u.0 v.g+                F++ + + 5#6.6.6.",
")#)#)#6#~ ~ ~ F+7#- - -     8#9#9#0#&@a#I I I I I I I I b#c#c#c#c#c#c#c#d#I I I I I I I e#&@f#g#h#i#j#~ ~ ~ ~ ~ '#)#)#)#k#6.6.6.",
"6.6.6.l#+ + + @             m#0 0  #I I I I I I I I I t.n#0 0 0 0 0 0 0 e#I I I I I I I I I t..#0 o#+ + + + + + p#6.6.6.6.6.6.6.",
"6.6.6.l#+ + + @             `@0 0  #I I _@_@_@I I _@_@_@q#0 0 0 0 0 0 0 R+_@_@I I I _@_@I I t..#0 o#+ + + + + + p#6.6.6.6.6.6.6.",
"6.6.6.r#+ + + @             `@0 0  #I J s#t#u#I I v#t#t#w#x#x#y#x#y#x#x#z#t#A#p@I B#t#t#C#I t..#0 D#+ + + + + + p#6.6.6.6.6.6.6.",
"E#E#E#E#{ { { F#            `@0 0  #I ~@{@0 >.I I n@0 0 G#              H#0 o@p@I ,.0 0 ]@I t..#0 I#{ { { { { { J#E#E#E#E#E#E#E#",
"                            K#L#L#M#^@N#O#0 P#^@^@Q#R#S#T#              U#L#V#W#^@h@0 0 !@^@X#Y#L#Z#                            ",
"                                  `#0 0 0 0 0 0 0  $+ .$+$                  @$#$0 0 0 0 0 0 v.$$                                ",
"                                  9+0 0 0 0 0 0 0 %$+ + +$                  &$#$0 0 0 0 0 0 v.g+                                ",
"                                  *$=$=$=$=$=$H@=$-$@#@#                    ;$H@H@H@=$=$=$H@H@>$                                ",
"                                                                                                                                ",
"                                                                                                                                ",
"                                                                                                                                "};
