/* XPM */
static char * pwall01_xpm[] = {
"64 64 409 2",
"  	c #65A847",
". 	c #5C9D4A",
"+ 	c #407B52",
"@ 	c #4A8750",
"# 	c #5E9F4A",
"$ 	c #488550",
"% 	c #508E4E",
"& 	c #64A746",
"* 	c #60A249",
"= 	c #5FA049",
"- 	c #63A648",
"; 	c #63A646",
"> 	c #599B3E",
", 	c #57993C",
"' 	c #579A3C",
") 	c #4A8650",
"! 	c #5C9D4B",
"~ 	c #5EA141",
"{ 	c #2D6C1B",
"] 	c #1E5F0F",
"^ 	c #1D5F0E",
"/ 	c #206210",
"( 	c #62A544",
"_ 	c #5DA040",
": 	c #246414",
"< 	c #0E5402",
"[ 	c #0D5301",
"} 	c #0D5201",
"| 	c #115604",
"1 	c #61A444",
"2 	c #49864F",
"3 	c #64A747",
"4 	c #62A545",
"5 	c #5B9D3F",
"6 	c #236213",
"7 	c #0C5101",
"8 	c #0B5100",
"9 	c #0B5000",
"0 	c #0F5403",
"a 	c #5EA142",
"b 	c #4B894C",
"c 	c #44804F",
"d 	c #468250",
"e 	c #478350",
"f 	c #5D9E4A",
"g 	c #5FA149",
"h 	c #458151",
"i 	c #54963A",
"j 	c #387824",
"k 	c #367922",
"l 	c #1B9D07",
"m 	c #149F00",
"n 	c #139B00",
"o 	c #118801",
"p 	c #118701",
"q 	c #128602",
"r 	c #367722",
"s 	c #387724",
"t 	c #397824",
"u 	c #43842C",
"v 	c #498B31",
"w 	c #0D5302",
"x 	c #0D5A01",
"y 	c #16B400",
"z 	c #17BB00",
"A 	c #18BC00",
"B 	c #17B700",
"C 	c #149E01",
"D 	c #149D01",
"E 	c #149C01",
"F 	c #149901",
"G 	c #0C5501",
"H 	c #0C5201",
"I 	c #296B18",
"J 	c #60A343",
"K 	c #488B31",
"L 	c #0B5900",
"M 	c #17B400",
"N 	c #18BB00",
"O 	c #18BD00",
"P 	c #17BC00",
"Q 	c #17B600",
"R 	c #159D01",
"S 	c #159D02",
"T 	c #149C02",
"U 	c #0B5400",
"V 	c #0A5000",
"W 	c #286A18",
"X 	c #468251",
"Y 	c #458150",
"Z 	c #3C7844",
"` 	c #54933A",
" .	c #539239",
"..	c #3D8228",
"+.	c #107101",
"@.	c #0E6E01",
"#.	c #0F7200",
"$.	c #16AE00",
"%.	c #16B300",
"&.	c #16AF01",
"*.	c #149A01",
"=.	c #0E7000",
"-.	c #0E6E00",
";.	c #0F6F01",
">.	c #237612",
",.	c #519037",
"'.	c #53933A",
").	c #54943B",
"!.	c #60A243",
"~.	c #266815",
"{.	c #0B5101",
"].	c #0B4F01",
"^.	c #0E6C01",
"/.	c #149F01",
"(.	c #159C02",
"_.	c #128D01",
":.	c #0B5200",
"<.	c #135805",
"[.	c #53943A",
"}.	c #256815",
"|.	c #0A4F00",
"1.	c #14A001",
"2.	c #0B5201",
"3.	c #539439",
"4.	c #64A847",
"5.	c #128E01",
"6.	c #0B5401",
"7.	c #125905",
"8.	c #4F9036",
"9.	c #5FA242",
"0.	c #61A348",
"a.	c #62A548",
"b.	c #60A348",
"c.	c #246716",
"d.	c #15A301",
"e.	c #17B800",
"f.	c #17B900",
"g.	c #17BA00",
"h.	c #159C01",
"i.	c #15A201",
"j.	c #17B301",
"k.	c #16B201",
"l.	c #17B001",
"m.	c #177308",
"n.	c #175C09",
"o.	c #42812C",
"p.	c #407B51",
"q.	c #3F7B51",
"r.	c #1A5C19",
"s.	c #15A401",
"t.	c #0E7101",
"u.	c #3F7D2A",
"v.	c #3F7A51",
"w.	c #195819",
"x.	c #0B4E01",
"y.	c #0A4D00",
"z.	c #0E6A01",
"A.	c #17BD00",
"B.	c #18BE00",
"C.	c #0E6F00",
"D.	c #5C9E44",
"E.	c #26662D",
"F.	c #26652C",
"G.	c #27642D",
"H.	c #15770D",
"I.	c #107E01",
"J.	c #107D01",
"K.	c #128701",
"L.	c #15A001",
"M.	c #16AB00",
"N.	c #16AB01",
"O.	c #16AC00",
"P.	c #16A900",
"Q.	c #0D6A00",
"R.	c #437F51",
"S.	c #4C894F",
"T.	c #63A548",
"U.	c #589941",
"V.	c #0C5202",
"W.	c #138E01",
"X.	c #159B01",
"Y.	c #0D6500",
"Z.	c #65A747",
"`.	c #407C52",
" +	c #3A744A",
".+	c #0B5001",
"++	c #0B4F00",
"@+	c #0A4C00",
"#+	c #128C01",
"$+	c #149A02",
"%+	c #3C784B",
"&+	c #377445",
"*+	c #32703E",
"=+	c #0D6201",
"-+	c #0D6300",
";+	c #0D6000",
">+	c #138F01",
",+	c #5D9E49",
"'+	c #2A6832",
")+	c #0D5203",
"!+	c #0C5102",
"~+	c #0E6501",
"{+	c #18C000",
"]+	c #18C100",
"^+	c #18C200",
"/+	c #15A501",
"(+	c #5D9F49",
"_+	c #2B6932",
":+	c #0D6401",
"<+	c #40812B",
"[+	c #0D6400",
"}+	c #5EA041",
"|+	c #377724",
"1+	c #2F6C1E",
"2+	c #2F691D",
"3+	c #218C0F",
"4+	c #15AC00",
"5+	c #15AA00",
"6+	c #15AD00",
"7+	c #139201",
"8+	c #20800F",
"9+	c #2F6B1D",
"0+	c #2F6B1E",
"a+	c #377524",
"b+	c #5B9E40",
"c+	c #236413",
"d+	c #0A4E00",
"e+	c #129100",
"f+	c #118101",
"g+	c #0A5100",
"h+	c #5D9F40",
"i+	c #108101",
"j+	c #62A546",
"k+	c #64A647",
"l+	c #0F7900",
"m+	c #139800",
"n+	c #16B001",
"o+	c #16B101",
"p+	c #15A101",
"q+	c #0F7501",
"r+	c #0F7401",
"s+	c #1B780B",
"t+	c #32732F",
"u+	c #2D6B36",
"v+	c #2D6A36",
"w+	c #397546",
"x+	c #56964B",
"y+	c #0C5C00",
"z+	c #149B01",
"A+	c #149E02",
"B+	c #149801",
"C+	c #0D5702",
"D+	c #2F6D38",
"E+	c #55954B",
"F+	c #0C5E00",
"G+	c #139701",
"H+	c #0C5601",
"I+	c #2E6C38",
"J+	c #0B5700",
"K+	c #478931",
"L+	c #488A30",
"M+	c #149D02",
"N+	c #0B5500",
"O+	c #0E7001",
"P+	c #0E6F01",
"Q+	c #139501",
"R+	c #0F7201",
"S+	c #128B01",
"T+	c #0E6D01",
"U+	c #129001",
"V+	c #118201",
"W+	c #3D7D29",
"X+	c #367423",
"Y+	c #367323",
"Z+	c #128A01",
"`+	c #128901",
" @	c #149B02",
".@	c #0B5300",
"+@	c #0F7500",
"@@	c #145706",
"#@	c #32701F",
"$@	c #519438",
"%@	c #41812B",
"&@	c #0B5600",
"*@	c #448051",
"=@	c #4F8C4E",
"-@	c #41822B",
";@	c #139601",
">@	c #236313",
",@	c #145806",
"'@	c #135705",
")@	c #125604",
"!@	c #139101",
"~@	c #0F5402",
"{@	c #276716",
"]@	c #5DA041",
"^@	c #5A9D3E",
"/@	c #0C5800",
"(@	c #0C5901",
"_@	c #599D3E",
":@	c #5B9E3F",
"<@	c #64A846",
"[@	c #0C5301",
"}@	c #0C5200",
"|@	c #2C6931",
"1@	c #5A9A4B",
"2@	c #55934D",
"3@	c #41832B",
"4@	c #30721E",
"5@	c #206022",
"6@	c #2B6832",
"7@	c #3C7D2D",
"8@	c #40832B",
"9@	c #3B793F",
"0@	c #59994B",
"a@	c #52914D",
"b@	c #63A645",
"c@	c #2E6B38",
"d@	c #5D9E48",
"e@	c #4D8B4E",
"f@	c #63A746",
"g@	c #0A5200",
"h@	c #095101",
"i@	c #095100",
"j@	c #0B5102",
"k@	c #2E6C39",
"l@	c #5E9F49",
"m@	c #4E8B4E",
"n@	c #4D8A4F",
"o@	c #4C8F34",
"p@	c #195F0C",
"q@	c #1B600C",
"r@	c #1A600C",
"s@	c #195506",
"t@	c #184C02",
"u@	c #184B02",
"v@	c #194C03",
"w@	c #1A5F0B",
"x@	c #1A5F0C",
"y@	c #488935",
"z@	c #60A149",
"A@	c #62A448",
"B@	c #518F4E",
"C@	c #3E7052",
"D@	c #365D54",
"E@	c #5E9E4A",
"F@	c #488450",
"G@	c #64A645",
"H@	c #64702C",
"I@	c #642A0C",
"J@	c #642A0B",
"K@	c #64300E",
"L@	c #64A143",
"M@	c #3A6953",
"N@	c #345754",
"O@	c #65A746",
"P@	c #63712D",
"Q@	c #612D0C",
"R@	c #612C0C",
"S@	c #61320F",
"T@	c #65A244",
"U@	c #63722D",
"V@	c #622D0D",
"W@	c #622D0C",
"X@	c #622C0C",
"Y@	c #62320F",
"Z@	c #65A344",
"`@	c #375F54",
" #	c #3C6B53",
".#	c #4E8C4E",
"+#	c #659C41",
"@#	c #64943D",
"##	c #64923C",
"$#	c #647F34",
"%#	c #623410",
"&#	c #635A22",
"*#	c #64933D",
"=#	c #51904D",
"-#	c #3E6F52",
";#	c #355B54",
">#	c #386254",
",#	c #648F3B",
"'#	c #623611",
")#	c #636426",
"!#	c #396653",
"~#	c #5C9A4A",
"{#	c #5D9B4A",
"]#	c #498650",
"^#	c #49854F",
"/#	c #648E3B",
"(#	c #5D9C4A",
"_#	c #407A51",
":#	c #648E3C",
"<#	c #623711",
"[#	c #622F0D",
"}#	c #622E0D",
"|#	c #636527",
"1#	c #64923D",
"2#	c #634E1C",
"3#	c #62491A",
"4#	c #63481A",
"5#	c #624819",
"6#	c #63702C",
"7#	c #64A345",
"8#	c #659940",
"9#	c #65983F",
"0#	c #64983F",
"a#	c #659E42",
"b#	c #65A646",
"      . + + + @                                                                                                                 ",
"      . + + + @                                                                                                                 ",
"      . + + + @                                                                                                                 ",
"      # $ $ $ %                             & & & & & & & & & & & & & & & & &           * = = = -                               ",
"                                          ; > , , , , , , , , , , , , , , , ' &         ) + + + !                               ",
"                                          ~ { ] ^ ^ ^ ^ ^ ^ ^ ^ ^ ^ ^ ^ ^ ^ / (         ) + + + !                               ",
"                                        & _ : < [ [ [ [ [ } } } } } } } } [ | 1         2 + + + !                               ",
"                      3 * * * *     & 4 ( 5 6 7 8 8 8 8 8 9 9 9 9 9 9 9 9 9 0 a 4 4 4 4 b c d e f                               ",
"                      g + + + h   & i j j k l m m m m m n o p p p p p p p p q r s s s s t u 4                                   ",
"                      g + + + h   & v < w x y z A A A z B C D D D D D D D E F G H H H H < I J &                                 ",
"                      g + + + h   & K [ H L M N O O O P Q C R S S S S S S T F U V V V V [ W J &                                 ",
"                      * X X Y Z `  ...+.@.#.$.%.%.%.%.%.&.C S S S S S S S S *.=.-.-.-.-.;.>.,.'.).!.                            ",
"                            & ~.{.].^./.(.(.T T T T T T T S S S S S S S S S S (.(.(.(.(.D _.:.H <.[.&                           ",
"                            & }.{.|.^.1.T T S S S S S S S S S S S S S S S S S T T T T T D _.:.2.<.3.; 4.                        ",
"                            & }.{.|.^.1.(.S S S S S S T R D D D D (.S S S S S S S S S S D 5.6.G 7.8.9.J 4                       ",
"      3 0.0.0.a.      3 0.0.b.c.{.|.^.1.(.S S S S S S R d.e.f.g.d.h.S S S S S S S S S S R i.j.k.l.m.n.n.o.                      ",
"      . + + + @       g + p.q.r.{.|.^.1.(.S S S S S S R s.N P O s.h.S S S S S S S S S S h.s.O P z t.H 2.u.                      ",
"      . + + + @       g v.v.v.w.x.y.z.1.(.S S S S S S R s.O A.B.s.h.S S S S S S S S S S h.s.B.A.z C.:.:.u.                      ",
"      . + + + @       D.E.F.G.H.I.J.K.C S S S S S S S R L.M.N.O.L.h.S S S S S S S S S S h.L.O.N.P.Q.:.:.u.                      ",
"      f R.R.R.S.T.T.T.U.V.H x.W.L./.C S S S S S S S S S E X.X.X.h.S S S S S S S S S S S S h.X.X.*.Y.:.:.u.                      ",
"        Z.Z.Z.f `.p.+  +.+++@+#+C S S S S S S S S S S S S S S S S S S S S S S S S S S S S S S D $+Y.:.:.u.                      ",
"              f %+&+&+*+=+-+;+>+C S S S S S S S S S S S S S S S S S S S S S S S S S S S S S S E $+Y.:.:.u.                      ",
"              ,+'+)+!+~+{+]+^+/+h.S S S S S S S S S S S S S S S S S S S S S S S S S S S S S S E $+Y.:.:.u.                      ",
"              (+_+V.{.:+z z O s.h.S S S S S S S S S S S S S S S S S S S S S S S S S S S S S S E $+Y.:.:.u.                      ",
"          3 & & <+H V [+P P B.s.h.S S S S S S S S S S S S S S S S S S S S S S S S S S S S S S E $+Y.:.8 u.3 3 3                 ",
"      & }+|+1+2+3+4+5+6+A O B.s.h.S S S S S S S S S S S S S S S S S S S S S S S S S S S S S S S (.7+>+>+8+9+0+a+9.              ",
"      & b+c+[ d+e+B.O O O O B.s.h.S S S S S S S S S S S S S S S S S S S S S S S S S S S S S S S S S S S f+g+H 6 h+              ",
"      & b+c+[ d+e+B.A.A.A.A.B.s.h.S S S S S S S S S S S S S S S S S S S S S S S S S S S S S S S S S S S i+9 7 6 b+j+; k+Z.      ",
"      & b+c+[ |.l+m+m+n n+n+o+p+h.S S S S S S S S S S S S S S S S S S S S S S S S S S S S S S S S S S S _.q+r+s+t+u+v+w+x+      ",
"      & b+c+[ 9 V ++d+y+z+E E (.(.S S S S S S S S S S S S S S S S S S S S S S S S S S S S S S S S S S S S A+D B+C+!+)+D+E+      ",
"      & b+c+[ 8 8 8 8 F+E S S S S S S S S S S S S S S S S S S S S S S S S S S S S S S S S S S S S S S S S S E G+H+{.V.I+E+      ",
"      & b+c+[ 8 8 8 8 F+T T S S S S S S S S S S S S S S S S S S S S S S S S S S S S S S S S S S S S S S S S (.G+J+{.H D+E+      ",
"      & b+c+[ 8 8 8 8 F+T T S S S S S S S S S S S S S S S S S S S S S S S S S S S S S S S S S S S S S S S S (.G+J+7 [ K+;       ",
"      & b+c+[ 8 8 8 8 F+E T S S S S S S S S S S S S S S S S S S S S S S S S S S S S S S S S S S S S S S S S E G+J+7 [ L+&       ",
"      & b+c+[ 8 8 8 8 F+D M+M+R S S S S S S S S S S S S D D M+M+M+M+M+M+M+M+M+S S S S S S S S S S S S S S M+E G+J+7 [ L+&       ",
"      & b+c+[ 8 8 8 8 N+O+O+P+7+D S S S S S S S S S S E Q+R+O+O+O+O+O+O+O+O+R+*.(.S S S S S S S S S S S S+O+P+T+:.7 [ L+&       ",
"      & b+c+[ 8 8 8 8 8 8 8 d+#+C S S S S S S S S S S E U+U 8 8 8 8 8 8 8 8 U F T S S S S S S S S S S S i+8 8 8 8 H [ L+&       ",
"      & b+c+[ :.8 8 8 8 8 8 d+_.C S S S S S S S S S S E U+U 8 8 8 8 8 8 8 8 U *.S S S S S S S S S S S S V+g+8 8 8 H [ L+&       ",
"      & a W+X+Y+6 :.8 8 8 8 d+J.S+Z+Z+Z+`+S+ @(.S S S E U+U 8 8 8 8 8 8 8 8 .@K.Z+Z+Z+Z+Z+Z+Z+Z+Z+Z+Z+Z++@8 :.@@#@Y+Y+$@&       ",
"            & & %@H 8 8 8 8 8 V g+g+g+g+8 &@G+(.S S S E U+U 8 8 8 8 8 8 8 8 .+g+g+g+g+g+g+g+g+g+g+g+g+g+8 8 H 6 h+& 3           ",
"*@*@*@=@      & -@w H H 8 8 8 8 8 8 8 8 9 &@;@z+(.(.(.z+U+U 8 8 8 8 8 8 8 8 8 8 8 8 8 8 8 8 8 8 8 8 8 8 :.H w >@h+              ",
"+ + + S.      & u ,@'@)@8 8 8 8 8 8 8 8 8 &@G+E D D D E !@U 8 8 8 8 8 8 8 8 8 8 8 8 8 8 8 8 8 8 8 8 8 8 ~@'@,@{@]@              ",
"+ + + S.        9.^@^@$@H :.8 8 8 8 8 8 8 g+/@(@(@(@(@(@J+9 8 8 8 8 8 8 8 8 8 8 8 8 8 8 8 8 8 8 8 8 8 :.s _@^@:@&               ",
"+ + + S.          <@  b+[@:.}@}@}@}@8 8 8 9 9 9 9 9 9 9 9 8 8 8 8 8 8 8 8 8 8 8 8 8 8 }@}@}@}@}@}@}@}@:.u.3 <@4.                ",
"0.0.0.a.              b+w [@H H H H H 8 8 8 8 8 8 8 8 8 8 8 8 8 8 8 8 8 8 8 8 8 8 8 H H H H H H H H [@[@|@Y h h 1@      2@h h h ",
"                      J 3@-@-@-@-@-@4@H :.8 8 8 8 8 8 8 8 8 8 8 8 8 8 8 8 8 8 8 8 {.5@6@7@-@-@-@-@-@-@8@9@+ + + 0@      a@+ + + ",
"                        & & & & & b@K [ H 8 8 8 8 8 8 8 8 8 8 8 8 8 8 8 8 8 8 8 8 H c@q.d@& & & & & & & e@+ + + 0@      a@+ + + ",
"                                  f@v w V.2.2.2.2.g@h@h@h@h@h@h@h@h@h@h@h@h@i@2.j@V.k@q.l@              m@+ + + 0@      a@+ + + ",
"e e e %       = e e e n@          & o@p@q@r@r@r@r@s@t@t@u@u@u@u@u@u@u@u@u@t@v@w@r@x@y@z@k+              A@* * * B@e e e C@D@D@D@",
"+ + + S.      E@+ + + F@            <@; f@f@f@f@G@H@I@J@J@J@J@J@J@J@J@J@J@J@K@L@f@f@3                           % + + + M@N@N@N@",
"+ + + S.      E@+ + + F@              4.4.4.4.4.O@P@Q@Q@Q@R@R@R@R@R@R@Q@Q@Q@S@T@4.4.                            % + + + M@N@N@N@",
"+ + + S.      E@+ + + F@                          U@V@W@W@X@X@X@X@X@X@X@W@W@Y@Z@                                % + + + M@N@N@N@",
"`@`@`@ #$ $ $ .#= = = *                           +#@###$#%#W@X@X@X@W@&#*#@#@#O@                =#$ $ $ $ $ $ $ -#`@`@`@;#N@N@N@",
"N@N@N@>#+ + + @                                       O@,#'#V@X@X@X@W@)#O@                      S.+ + + + + + + !#N@N@N@N@N@N@N@",
"N@N@N@>#+ + + @                                       O@,#'#V@X@X@X@W@)#O@                      S.+ + + + + + + !#N@N@N@N@N@N@N@",
"N@N@N@>#+ + + @                                       O@,#'#V@X@X@X@W@)#O@                      S.+ + + + + + + !#N@N@N@N@N@N@N@",
"~#~#~#{## # # z@                              3 ]#]#]#^#/#'#V@X@X@X@W@)#O@                      * # # # # # # # (#~#~#~#~#~#~#~#",
"                                              3 + + + _#:#<#[#}#}#}#V@|#O@                                                      ",
"                                              3 + + + _#1#2#3#4#4#3#5#6#O@                                                      ",
"                                              3 + + + + 7#8#9#9#9#9#0#a#                                                        ",
"                                                # f f f   b#b#b#b#b#b#O@                                                        ",
"                                                                                                                                ",
"                                                                                                                                ",
"                                                                                                                                "};
